<svg width="478" height="185" viewBox="0 0 478 185" fill="none" xmlns="http://www.w3.org/2000/svg">
<path d="M88.2479 182.279V135.213H0.658203V119.162L82.5355 2.72059H110.009V116.441H141.835V135.213H110.009V182.279H88.2479ZM23.7797 116.441H88.2479V49.2426C88.2479 44.527 88.3386 39.7206 88.5199 34.8235C88.8826 29.9265 89.1546 25.1201 89.336 20.4044H88.7919C86.6158 24.9387 83.8049 30.0171 80.3594 35.6397C76.9138 41.2622 73.7403 46.1593 70.8388 50.3309L23.7797 116.441Z" fill="#F3F0EC"/>
<path d="M239.579 185C219.268 185 203.038 177.11 190.888 161.331C178.738 145.551 172.663 122.608 172.663 92.5C172.663 62.3922 178.738 39.4485 190.888 23.6691C203.038 7.8897 219.268 0 239.579 0C260.071 0 276.301 7.8897 288.27 23.6691C300.42 39.4485 306.495 62.3922 306.495 92.5C306.495 122.608 300.42 145.551 288.27 161.331C276.301 177.11 260.071 185 239.579 185ZM239.579 165.412C249.19 165.412 257.26 162.691 263.789 157.25C270.498 151.627 275.485 143.375 278.749 132.493C282.195 121.61 283.918 108.279 283.918 92.5C283.918 76.7206 282.195 63.3897 278.749 52.5073C275.485 41.625 270.498 33.4632 263.789 28.022C257.26 22.3995 249.19 19.5882 239.579 19.5882C229.968 19.5882 221.807 22.3995 215.097 28.022C208.569 33.4632 203.582 41.625 200.136 52.5073C196.872 63.3897 195.24 76.7206 195.24 92.5C195.24 108.279 196.872 121.61 200.136 132.493C203.582 143.375 208.569 151.627 215.097 157.25C221.807 162.691 229.968 165.412 239.579 165.412Z" fill="#F3F0EC"/>
<path d="M423.754 182.279V135.213H336.164V119.162L418.042 2.72059H445.515V116.441H477.342V135.213H445.515V182.279H423.754ZM359.286 116.441H423.754V49.2426C423.754 44.527 423.845 39.7206 424.026 34.8235C424.389 29.9265 424.661 25.1201 424.842 20.4044H424.298C422.122 24.9387 419.311 30.0171 415.866 35.6397C412.42 41.2622 409.246 46.1593 406.345 50.3309L359.286 116.441Z" fill="#F3F0EC"/>
</svg>
