<svg width="552" height="226" viewBox="0 0 552 226" fill="none" xmlns="http://www.w3.org/2000/svg">
<path d="M276 225.82C428.431 225.82 552 217.059 552 206.252C552 195.444 428.431 186.683 276 186.683C123.569 186.683 0 195.444 0 206.252C0 217.059 123.569 225.82 276 225.82Z" fill="#E6E6E6"/>
<path d="M491.625 217.21C446.621 209.214 397.407 210.543 345.784 217.21C369.313 197.381 389.62 177.552 366.091 157.722C411.988 167.174 418.416 166.218 469.472 157.722C457.63 177.552 479.783 197.381 491.625 217.21Z" fill="#F0004E"/>
<path opacity="0.2" d="M491.625 217.21C446.621 209.214 397.407 210.543 345.784 217.21C369.313 197.381 389.62 177.552 366.091 157.722C411.988 167.174 418.416 166.218 469.472 157.722C457.63 177.552 479.783 197.381 491.625 217.21Z" fill="black"/>
<path d="M480.648 208.75C442.418 202.368 400.613 203.429 356.761 208.75C376.748 192.922 393.998 177.094 374.011 161.266C412.999 168.811 418.459 168.047 461.829 161.266C451.77 177.094 470.588 192.922 480.648 208.75Z" fill="#F0004E"/>
<path d="M466.087 183.247C477.336 183.247 486.456 174.143 486.456 162.913C486.456 151.683 477.336 142.579 466.087 142.579C454.837 142.579 445.717 151.683 445.717 162.913C445.717 174.143 454.837 183.247 466.087 183.247Z" fill="#2F2E41"/>
<path d="M373.619 139.327L387.733 141.676L394.79 162.027L374.404 174.551L350.88 139.327H372.835H373.619Z" fill="#A0616A"/>
<path d="M413.608 170.637C431.796 170.637 446.54 155.919 446.54 137.762C446.54 119.606 431.796 104.887 413.608 104.887C395.42 104.887 380.676 119.606 380.676 137.762C380.676 155.919 395.42 170.637 413.608 170.637Z" fill="#A0616A"/>
<path d="M231.699 18.0029C231.699 18.0029 151.722 26.6131 137.608 25.0476C123.494 23.4821 117.222 21.9166 117.222 21.9166C117.222 21.9166 107.812 34.4404 112.517 39.9196C115.152 43.0769 118.34 45.7292 121.926 47.747C121.926 47.747 130.551 45.3988 136.824 47.747C143.097 50.0952 206.608 60.2708 217.585 50.8779C228.562 41.4851 231.699 18.0029 231.699 18.0029Z" fill="#2F2E41"/>
<path d="M237.187 192.554C237.187 192.554 184.653 177.681 175.244 111.932V105.67C175.244 105.67 164.85 123.873 161.131 127.586C156.818 131.891 141.528 170.637 142.312 174.551C143.096 178.464 142.312 180.03 142.312 180.03L119.574 177.682V170.637C119.574 170.637 131.727 134.24 132.511 125.629C133.295 117.019 162.699 57.1399 162.699 57.1399C162.699 57.1399 173.676 34.4405 192.494 57.1399C211.312 79.8393 212.881 95.4941 212.881 95.4941L237.187 142.458L237.187 192.554Z" fill="#2F2E41"/>
<path d="M119.574 19.5687L94.483 10.9586C94.483 10.9586 70.9602 -6.26161 76.4489 10.9586C81.9375 28.1788 107.028 65.7502 114.085 61.8365C121.142 57.9229 129.629 48.2083 127.738 46.8037C125.847 45.3991 113.301 35.2235 119.574 19.5687Z" fill="#2F2E41"/>
<path d="M122.606 166.016L102.352 175.891C102.352 175.891 77.858 179.653 91.518 186.706C105.178 193.759 142.861 201.283 144.745 194.7C146.629 188.117 145.882 177.191 143.9 177.481C141.919 177.772 128.259 179.182 122.606 166.016Z" fill="#2F2E41"/>
<path d="M226.994 140.893C226.994 140.893 216.801 184.726 234.051 194.119C251.301 203.512 372.051 205.078 381.46 187.857C390.869 170.637 386.165 170.637 386.165 170.637L361.074 142.459L381.46 140.893C381.46 140.893 381.46 134.631 374.403 133.849C367.346 133.066 345.392 125.238 326.574 130.718C307.755 136.197 296.778 119.759 296.778 119.759L226.994 140.893Z" fill="#383954"/>
<path d="M213.665 3.91365L200.335 76.7087L292.074 65.7503L308.54 0L213.665 3.91365Z" fill="#3F3D56"/>
<path d="M216.409 6.6534L205.432 71.6204L288.938 61.8366L305.011 2.73975L216.409 6.6534Z" fill="white"/>
<path d="M203.471 77.4916L200.335 76.709L198.767 79.8394L223.858 149.503L226.218 148.603L226.994 144.025L203.471 77.4916Z" fill="#B3B3B3"/>
<path d="M200.335 75.9256L225.426 148.721L320.301 134.631L292.074 65.7505L200.335 75.9256Z" fill="#D0CDE1"/>
<path d="M212.881 73.5778V77.4915L282.665 69.6641L281.881 65.7505L212.881 73.5778Z" fill="#3F3D56"/>
<path d="M214.449 81.4051L225.426 111.932L296.778 103.322L284.233 74.3604L214.449 81.4051Z" fill="#3F3D56"/>
<path d="M303.835 124.455L301.483 118.193C301.483 118.193 283.449 86.884 274.04 93.1459C264.631 99.4078 293.642 129.935 293.642 129.935H303.051L303.835 124.455Z" fill="#A0616A"/>
<path d="M244.244 129.152L241.892 119.759C241.892 119.759 235.619 90.7975 246.597 92.363C257.574 93.9285 260.71 121.324 260.71 121.324L259.926 127.586L244.244 129.152Z" fill="#A0616A"/>
<path d="M263.062 125.238C263.062 125.238 242.676 122.107 241.892 126.804C241.108 131.5 237.187 201.947 256.79 204.295C276.392 206.643 373.619 216.819 363.426 192.554C353.233 168.289 337.551 171.42 337.551 171.42L270.903 178.464L263.062 125.238Z" fill="#626488"/>
<path d="M324.613 134.24L303.835 119.759L290.113 130.326L307.364 149.112L324.613 134.24Z" fill="#575A89"/>
<path opacity="0.2" d="M268.943 148.329L272.079 178.073L326.182 174.942L279.136 174.16L268.943 148.329Z" fill="black"/>
<path d="M429.864 182.872C451.516 182.872 469.069 165.35 469.069 143.736C469.069 122.121 451.516 104.599 429.864 104.599C408.212 104.599 390.66 122.121 390.66 143.736C390.66 165.35 408.212 182.872 429.864 182.872Z" fill="#2F2E41"/>
<path d="M228.171 29.353L276.785 27.6636L281.489 9.78467L231.307 11.2964L228.171 29.353Z" fill="#F0004E"/>
<path d="M215.625 39.5284L289.33 37.1799L290.114 34.0488L216.409 36.6394L215.625 39.5284Z" fill="#E6E6E6"/>
<path d="M214.057 47.356L287.762 45.0075L288.546 41.8765L214.841 44.4671L214.057 47.356Z" fill="#E6E6E6"/>
<path d="M213.273 53.6175L286.977 51.2697L287.762 48.1387L214.057 50.7286L213.273 53.6175Z" fill="#E6E6E6"/>
</svg>
