<svg width="160" height="20" viewBox="0 0 160 20" fill="none" xmlns="http://www.w3.org/2000/svg">
<path d="M138.442 16.0361H140.853C141.885 16.0361 142.569 15.8311 143.065 15.4895C143.641 15.0892 143.978 14.4645 143.978 13.8202C143.978 13.0978 143.561 12.6 142.887 12.3559L142.897 12.3364C143.76 12.0631 144.266 11.4091 144.266 10.6379C144.266 10.0717 143.988 9.62265 143.552 9.34932C143.145 9.09552 142.579 8.96861 141.766 8.96861H139.712L138.442 16.0361ZM140.436 11.9752L140.784 10.0522H141.657C142.163 10.0522 142.45 10.1205 142.659 10.2572C142.887 10.4134 142.996 10.6379 142.996 10.9405C142.996 11.7214 142.282 11.9752 141.657 11.9752H140.436ZM139.901 14.9526L140.278 12.8636H141.379C142.192 12.8636 142.718 13.1857 142.718 13.8202C142.718 14.1423 142.579 14.4254 142.361 14.6207C142.093 14.855 141.696 14.9526 141.111 14.9526H139.901Z" fill="#FAC300"/>
<path d="M149.275 14.7769C148.858 14.9721 148.243 15.1673 147.687 15.1673C146.874 15.1673 146.298 14.7573 146.259 13.9569H149.761C149.83 13.7031 149.87 13.3614 149.87 13.0978C149.87 11.8581 148.947 11.126 147.787 11.126C147.062 11.126 146.368 11.4091 145.852 11.9655C145.346 12.4926 145.068 13.2345 145.068 13.9666C145.068 15.4407 146.209 16.1435 147.558 16.1435C148.044 16.1435 148.65 16.0556 149.076 15.8604L149.275 14.7769ZM146.388 13.1369C146.606 12.4926 147.082 12.0826 147.747 12.0826C148.392 12.0826 148.759 12.4731 148.759 13.1369H146.388Z" fill="#FAC300"/>
<path d="M152.876 12.2388H154.235L154.414 11.2333H153.055L153.303 9.82765L152.092 9.89598L151.854 11.2333H151.011L150.832 12.2388H151.676L151.348 14.0838C151.299 14.3376 151.279 14.5719 151.279 14.7378C151.279 15.7335 152.013 16.1435 152.866 16.1435C153.114 16.1435 153.352 16.1045 153.541 16.0459L153.729 15.0209C153.551 15.0795 153.332 15.1283 153.134 15.1283C152.688 15.1283 152.499 14.894 152.499 14.5231C152.499 14.3864 152.519 14.2302 152.549 14.0545L152.876 12.2388Z" fill="#FAC300"/>
<path d="M159.967 11.6921C159.342 11.3895 158.588 11.126 157.814 11.126C157.06 11.126 156.316 11.37 155.741 11.9362C155.146 12.5219 154.858 13.3321 154.858 14.074C154.858 15.3235 155.681 16.1435 156.743 16.1435C157.288 16.1435 157.725 15.9287 158.052 15.6457L158.072 15.6554L158.003 16.0361H159.193L159.967 11.6921ZM158.241 14.6402C157.904 14.9623 157.507 15.1576 157.11 15.1576C156.515 15.1576 156.068 14.728 156.068 13.9666C156.068 13.5274 156.217 13.0295 156.534 12.6586C156.802 12.3462 157.179 12.1217 157.715 12.1217C158.062 12.1217 158.419 12.2193 158.658 12.3364L158.241 14.6402Z" fill="#FAC300"/>
<path d="M27.7305 16.1902H31.8115C33.3398 16.1902 34.6075 15.9824 35.5627 15.5494C37.0041 14.9087 37.7508 13.783 37.7508 12.3284C37.7508 10.943 37.0735 9.83466 35.3195 9.24587V9.21124C36.5525 8.74367 37.2298 7.9817 37.2298 6.80411C37.2298 5.67848 36.622 4.86456 35.719 4.36235C34.8507 3.87747 33.6176 3.65234 31.6205 3.65234H27.7305V16.1902ZM31.3079 8.65708V6.4924H31.7247C32.4715 6.4924 32.8709 6.54435 33.1314 6.68289C33.5134 6.87338 33.6524 7.16778 33.6524 7.56608C33.6524 8.32805 33.1488 8.65708 32.072 8.65708H31.3079ZM31.3079 13.3501V10.943H32.4367C33.5829 10.943 34.1734 11.3066 34.1734 12.1552C34.1734 12.6055 34.0171 12.9172 33.6697 13.1077C33.3745 13.2635 32.8535 13.3501 31.8289 13.3501H31.3079Z" fill="black"/>
<path d="M38.9902 11.9301C38.9902 14.4411 41.0568 16.3807 43.9222 16.3807C46.7877 16.3807 48.8543 14.4411 48.8543 11.9301C48.8543 9.41905 46.7877 7.47949 43.9222 7.47949C41.0568 7.47949 38.9902 9.41905 38.9902 11.9301ZM42.394 11.9301C42.394 11.0296 43.0366 10.3369 43.9222 10.3369C44.8079 10.3369 45.4505 11.0296 45.4505 11.9301C45.4505 12.8306 44.8079 13.5233 43.9222 13.5233C43.0366 13.5233 42.394 12.8306 42.394 11.9301Z" fill="black"/>
<path d="M50.2125 11.9301C50.2125 14.4411 52.2791 16.3807 55.1445 16.3807C58.01 16.3807 60.0766 14.4411 60.0766 11.9301C60.0766 9.41905 58.01 7.47949 55.1445 7.47949C52.2791 7.47949 50.2125 9.41905 50.2125 11.9301ZM53.6163 11.9301C53.6163 11.0296 54.2588 10.3369 55.1445 10.3369C56.0302 10.3369 56.6728 11.0296 56.6728 11.9301C56.6728 12.8306 56.0302 13.5233 55.1445 13.5233C54.2588 13.5233 53.6163 12.8306 53.6163 11.9301Z" fill="black"/>
<path d="M61.9384 16.1902H65.3769V12.0167L65.4117 11.9993L67.7909 16.1902H71.7156L68.746 11.4798L71.5941 7.66998H67.8082L65.4117 11.1854L65.3769 11.1681V2.95964H61.9384V16.1902Z" fill="black"/>
<path d="M72.8691 15.6706C73.9806 16.1728 75.422 16.3807 76.4292 16.3807C78.7389 16.3807 80.4929 15.2897 80.5103 13.3847C80.5103 12.0859 79.7288 11.3586 78.079 10.891C76.7766 10.5274 76.0645 10.6313 76.0645 10.1983C76.0645 9.99052 76.2382 9.8693 76.655 9.8693C77.2975 9.8693 78.7216 10.1464 80.0414 10.8391V8.17219C78.9473 7.70462 77.558 7.47949 76.5334 7.47949C74.2758 7.47949 72.5739 8.58781 72.5565 10.4235C72.5565 11.653 73.3033 12.4496 74.9531 12.9172C76.2382 13.2808 77.0023 13.1769 77.0023 13.6445C77.0023 13.8869 76.7939 13.9908 76.3771 13.9908C75.7172 13.9908 74.189 13.7138 72.8691 13.0038V15.6706Z" fill="black"/>
<path d="M87.7157 15.965V20H91.1542V7.53144L88.6535 7.96438C87.9415 7.63535 87.1773 7.47949 86.5001 7.47949C83.6867 7.47949 81.7938 9.45368 81.7938 12.0859C81.7938 14.6662 83.6346 16.3807 85.8922 16.3807C86.6043 16.3807 87.2468 16.1902 87.681 15.9477L87.7157 15.965ZM87.7157 13.5233C87.4552 13.6445 87.1252 13.7311 86.7953 13.7311C85.7359 13.7311 85.267 12.9864 85.267 12.0167C85.267 11.0815 85.7186 10.2156 86.8647 10.2156C87.1773 10.2156 87.4552 10.2849 87.7157 10.3715V13.5233Z" fill="black"/>
<path d="M98.9901 15.4975V16.1902H102.359V7.66998H98.9206V13.0903C98.608 13.3847 98.1739 13.5752 97.7744 13.5752C97.5313 13.5752 97.3055 13.506 97.1319 13.3328C96.9756 13.1769 96.8888 12.9691 96.8888 12.5189V7.66998H93.4502V12.9691C93.4502 14.2506 93.7281 15.0472 94.3359 15.6014C94.8222 16.0343 95.5863 16.3807 96.5241 16.3807C97.5139 16.3807 98.3302 15.9824 98.9554 15.4801L98.9901 15.4975Z" fill="black"/>
<path d="M109.553 15.7745C110.126 16.2075 110.838 16.346 111.55 16.346C112.21 16.346 112.8 16.2248 113.165 16.017V13.6618C113.026 13.7311 112.887 13.7657 112.766 13.7657C112.453 13.7657 112.331 13.5579 112.331 13.2116V10.7525C112.331 9.67881 112.036 8.8822 111.272 8.31073C110.543 7.75657 109.414 7.47949 108.181 7.47949C106.896 7.47949 105.75 7.77389 105.02 8.10292V10.7698C105.732 10.4754 106.601 10.1983 107.504 10.1983C107.955 10.1983 108.389 10.2676 108.65 10.51C108.823 10.6832 108.893 10.8737 108.893 11.1335V11.2547C108.476 11.1681 108.059 11.1162 107.59 11.1162C106.757 11.1162 105.854 11.272 105.194 11.7569C104.621 12.1725 104.187 12.8825 104.187 13.8004C104.187 14.7182 104.603 15.3936 105.281 15.8438C105.836 16.2075 106.514 16.3807 107.295 16.3807C108.146 16.3807 108.893 16.1555 109.518 15.7745H109.553ZM108.893 13.9908C108.719 14.0601 108.494 14.1121 108.285 14.1121C107.886 14.1121 107.521 13.9216 107.521 13.506C107.521 13.0557 107.938 12.8825 108.389 12.8825C108.511 12.8825 108.737 12.8998 108.893 12.9345V13.9908Z" fill="black"/>
<path d="M114.827 16.1902H118.266V11.3413C118.839 10.8044 119.464 10.6313 120.193 10.6313C120.471 10.6313 120.819 10.6659 121.131 10.7352V7.5834C120.975 7.54876 120.732 7.51413 120.506 7.51413C119.568 7.51413 118.787 7.96438 118.231 8.60513L118.196 8.58781V7.66998H114.827V16.1902Z" fill="black"/>
<path d="M130.781 13.125C129.756 13.6791 128.714 13.9216 127.915 13.9216C126.995 13.9216 126.179 13.6099 125.849 12.7094H131.215C131.249 12.4669 131.267 12.1206 131.267 11.8435C131.267 8.7783 129.096 7.47949 126.995 7.47949C124.563 7.47949 122.358 9.21124 122.358 12.0167C122.358 14.7182 124.425 16.3807 127.446 16.3807C128.61 16.3807 129.878 16.1382 130.781 15.7226V13.125ZM125.796 10.943C125.953 10.2849 126.37 9.90393 126.977 9.90393C127.481 9.90393 128.019 10.1637 128.176 10.943H125.796Z" fill="black"/>
<path d="M15.3207 4.52481L13.2529 0.232129C13.2194 0.162568 13.1669 0.10388 13.1016 0.0628149C13.0362 0.0217502 12.9605 -2.28687e-05 12.8833 1.80244e-08H4.57569C4.57569 1.80244e-08 1.99257 2.38367 0.708008 6.25432H14.2339C15.1227 6.25432 15.7062 5.32559 15.3207 4.52481Z" fill="url(#paint0_linear_3695:18562)"/>
<path d="M19.7861 14.8851H0.717773C1.23253 16.4298 2.05304 18.0523 3.27289 19.7309H21.2629C21.9022 19.7309 22.3219 19.063 22.0445 18.4869L20.537 15.357C20.4689 15.2156 20.3623 15.0964 20.2295 15.0129C20.0966 14.9294 19.943 14.8851 19.7861 14.8851V14.8851Z" fill="url(#paint1_linear_3695:18562)"/>
<path d="M18.8818 11.9201L16.9677 7.94565C16.8891 7.78248 16.766 7.64481 16.6127 7.54846C16.4593 7.45211 16.2819 7.40098 16.1007 7.40097H0.378996C-0.0721062 9.26819 -0.184351 11.4212 0.39682 13.776H17.7157C18.6696 13.776 19.2958 12.7794 18.8818 11.9201Z" fill="url(#paint2_linear_3695:18562)"/>
<defs>
<linearGradient id="paint0_linear_3695:18562" x1="-0.346332" y1="3.12716" x2="14.3873" y2="3.12716" gradientUnits="userSpaceOnUse">
<stop stop-color="#ED9A2E"/>
<stop offset="0.14" stop-color="#EFA126"/>
<stop offset="0.68" stop-color="#F7BA0A"/>
<stop offset="1" stop-color="#FAC300"/>
</linearGradient>
<linearGradient id="paint1_linear_3695:18562" x1="1.04517" y1="17.308" x2="22.4587" y2="17.308" gradientUnits="userSpaceOnUse">
<stop offset="0.03" stop-color="#ED9A2E"/>
<stop offset="0.19" stop-color="#F2A91E"/>
<stop offset="0.42" stop-color="#F6B70D"/>
<stop offset="0.68" stop-color="#F9C003"/>
<stop offset="1" stop-color="#FAC300"/>
</linearGradient>
<linearGradient id="paint2_linear_3695:18562" x1="-3.81736" y1="10.5886" x2="15.1943" y2="10.5886" gradientUnits="userSpaceOnUse">
<stop offset="0.23" stop-color="#ED9A2E"/>
<stop offset="0.36" stop-color="#F2AB1B"/>
<stop offset="0.53" stop-color="#F7B90C"/>
<stop offset="0.72" stop-color="#F9C103"/>
<stop offset="1" stop-color="#FAC300"/>
</linearGradient>
</defs>
</svg>
