<svg width="29722" height="4918" viewBox="0 0 29722 4918" fill="none" xmlns="http://www.w3.org/2000/svg">
<path d="M1129.79 3891.72C1515.08 3891.72 1789.53 3812.41 2042.87 3563.9C2264.54 3352.4 2370.1 3093.32 2370.1 2781.36C2370.1 2321.36 2148.43 2014.69 1705.08 1803.2C1963.7 1602.27 2100.92 1374.92 2100.92 1073.53C2100.92 745.716 1932.03 449.622 1647.02 280.426C1409.52 137.666 1087.57 95.3665 691.725 95.3665H0.320312V3891.72H1129.79ZM908.119 782.728C1230.07 782.728 1393.69 925.488 1393.69 1168.71C1393.69 1433.08 1219.52 1581.13 881.729 1581.13H723.392V782.728H908.119ZM902.841 2226.19C1409.52 2226.19 1662.86 2421.82 1662.86 2754.93C1662.86 3077.46 1420.08 3204.36 966.176 3204.36H723.392V2226.19H902.841Z" fill="#212121"/>
<path d="M4302.22 1010.09C3536.93 1010.09 2850.8 1639.29 2850.8 2490.56C2850.8 3315.39 3494.7 3965.74 4307.5 3965.74C5162.52 3965.74 5790.59 3299.53 5790.59 2485.27C5790.59 1655.15 5120.29 1010.09 4302.22 1010.09ZM4312.78 1676.3C4771.95 1676.3 5083.35 2014.69 5083.35 2490.56C5083.35 2982.29 4745.56 3299.53 4312.78 3299.53C3858.88 3299.53 3558.04 2961.14 3558.04 2485.27C3558.04 2019.98 3874.71 1676.3 4312.78 1676.3Z" fill="#212121"/>
<path d="M7678.22 1010.09C6912.92 1010.09 6226.8 1639.29 6226.8 2490.56C6226.8 3315.39 6870.7 3965.74 7683.5 3965.74C8538.52 3965.74 9166.59 3299.53 9166.59 2485.27C9166.59 1655.15 8496.29 1010.09 7678.22 1010.09ZM7688.78 1676.3C8147.95 1676.3 8459.35 2014.69 8459.35 2490.56C8459.35 2982.29 8121.56 3299.53 7688.78 3299.53C7234.88 3299.53 6934.04 2961.14 6934.04 2485.27C6934.04 2019.98 7250.71 1676.3 7688.78 1676.3Z" fill="#212121"/>
<path d="M9740.02 3891.72H10442V2596.31L11634.8 3891.72H12505.6L11154.5 2432.4L12357.9 1084.11H11481.7L10442 2242.05V0.193359H9740.02V3891.72Z" fill="#212121"/>
<path d="M13593.3 2797.23C13788.6 2897.69 13904.7 2987.57 13904.7 3109.18C13904.7 3236.08 13767.5 3336.54 13593.3 3336.54C13408.6 3336.54 13171.1 3199.07 13007.5 3008.72L12574.7 3484.59C12817.5 3801.83 13150 3965.74 13556.4 3965.74C14168.6 3965.74 14564.4 3590.34 14564.4 3088.03C14564.4 2670.33 14316.4 2427.11 13851.9 2189.18L13593.3 2056.99C13440.2 1977.68 13340 1930.09 13340 1824.35C13340 1713.31 13450.8 1655.15 13593.3 1655.15C13762.2 1655.15 13920.5 1755.61 14078.9 1914.23L14511.7 1475.38C14284.7 1174 13952.2 1010.09 13588 1010.09C13049.7 1010.09 12680.2 1380.2 12680.2 1819.06C12680.2 2173.31 12907.2 2448.26 13355.8 2675.62L13593.3 2797.23Z" fill="#212121"/>
<path d="M17897.1 1084.11H17195.1V1390.78C16941.8 1136.98 16651.5 1010.09 16313.7 1010.09C15585.3 1010.09 14994.2 1612.85 14994.2 2490.56C14994.2 3352.4 15617 3965.74 16329.5 3965.74C16683.1 3965.74 16947 3838.84 17195.1 3595.62V4917.47H17897.1V1084.11ZM16456.2 1655.15C16899.5 1655.15 17226.8 1988.25 17226.8 2479.98C17226.8 2992.86 16889 3320.68 16456.2 3320.68C16018.1 3320.68 15701.5 2966.42 15701.5 2485.27C15701.5 2025.27 15991.7 1655.15 16456.2 1655.15Z" fill="#212121"/>
<path d="M18610.4 2368.95C18610.4 2601.59 18599.8 2733.78 18636.8 2961.14C18747.6 3616.77 19164.6 3960.45 19840.1 3960.45C20230.7 3960.45 20521 3854.71 20742.7 3606.2C21038.2 3278.38 21069.9 2897.69 21069.9 2379.52V1084.11H20367.9V2580.44C20367.9 3056.31 20214.9 3315.39 19840.1 3315.39C19470.7 3315.39 19312.4 3051.02 19312.4 2548.72V1084.11H18610.4V2368.95Z" fill="#212121"/>
<path d="M23844 3891.72H24546V1084.11H23844V1390.78C23590.7 1136.98 23300.4 1010.09 22962.6 1010.09C22234.3 1010.09 21643.1 1612.85 21643.1 2490.56C21643.1 3352.4 22265.9 3965.74 22978.4 3965.74C23332.1 3965.74 23596 3838.84 23844 3595.62V3891.72ZM23105.1 1655.15C23548.5 1655.15 23875.7 1988.25 23875.7 2479.98C23875.7 2992.86 23537.9 3320.68 23105.1 3320.68C22667 3320.68 22350.4 2966.42 22350.4 2485.27C22350.4 2025.27 22640.7 1655.15 23105.1 1655.15Z" fill="#212121"/>
<path d="M25697.4 1084.11H25090.4V3891.72H25792.4V2754.93C25792.4 2601.59 25792.4 2427.11 25797.7 2273.77C25813.5 1861.36 25971.8 1628.71 26172.4 1628.71C26246.3 1628.71 26325.4 1660.44 26378.2 1686.87L26594.6 1084.11C26526 1052.39 26436.3 1010.09 26288.5 1010.09C26056.3 1010.09 25829.3 1147.56 25697.4 1438.37V1084.11Z" fill="#212121"/>
<path d="M28940.6 3066.88C28745.4 3257.23 28544.8 3341.83 28244 3341.83C27842.8 3341.83 27526.2 3109.18 27457.6 2691.48H29716.5C29716.5 2628.03 29721.8 2596.31 29721.8 2532.86C29721.8 1644.57 29120.1 1010.09 28233.4 1010.09C27330.9 1010.09 26776.7 1718.6 26776.7 2485.27C26776.7 3310.1 27352 3965.74 28244 3965.74C28835.1 3965.74 29230.9 3775.39 29531.8 3347.12L28940.6 3066.88ZM27489.2 2136.3C27626.5 1782.05 27895.6 1607.56 28244 1607.56C28618.7 1607.56 28919.5 1808.48 29014.5 2136.3H27489.2Z" fill="#212121"/>
</svg>

