<svg width="150" height="48" viewBox="0 0 150 48" fill="none" xmlns="http://www.w3.org/2000/svg">
<path d="M35.243 47.3239V41.2394H6.99008V26.0282H30.5342V19.9437H6.99008V6.08451H34.5703V0H0.263184V47.3239H35.243Z" fill="#F3F0EC"/>
<path d="M49.5272 47.3239V30.2197C49.5272 23.4592 53.227 19.4028 59.2812 19.4028H61.9719V13.1831H58.9448C54.5723 13.1831 50.5362 15.8873 49.1908 20.9577V13.5211H43.1366V47.3239H49.5272Z" fill="#F3F0EC"/>
<path d="M74.8187 47.3239V30.2197C74.8187 23.4592 78.5185 19.4028 84.5727 19.4028H87.2635V13.1831H84.2364C79.8639 13.1831 75.8277 15.8873 74.4824 20.9577V13.5211H68.4282V47.3239H74.8187Z" fill="#F3F0EC"/>
<path d="M106.728 48C115.809 48 122.872 40.9014 122.872 30.4225C122.872 19.9437 115.809 12.8451 106.728 12.8451C97.6465 12.8451 90.5833 19.9437 90.5833 30.4225C90.5833 40.9014 97.6465 48 106.728 48ZM106.459 42.5915C101.01 42.5915 96.9738 38.1972 96.9738 30.4225C96.9738 22.6479 101.01 18.2535 106.459 18.2535H106.997C112.446 18.2535 116.482 22.6479 116.482 30.4225C116.482 38.1972 112.446 42.5915 106.997 42.5915H106.459Z" fill="#F3F0EC"/>
<path d="M137.292 47.3239V30.2197C137.292 23.4592 140.992 19.4028 147.046 19.4028H149.737V13.1831H146.71C142.337 13.1831 138.301 15.8873 136.956 20.9577V13.5211H130.902V47.3239H137.292Z" fill="#F3F0EC"/>
</svg>
