<svg width="132" height="20" viewBox="0 0 132 20" fill="none" xmlns="http://www.w3.org/2000/svg">
<path d="M27.7305 16.1901H31.8115C33.3398 16.1901 34.6075 15.9823 35.5627 15.5494C37.0041 14.9086 37.7508 13.783 37.7508 12.3283C37.7508 10.9429 37.0735 9.83462 35.3195 9.24583V9.21119C36.5525 8.74362 37.2298 7.98165 37.2298 6.80407C37.2298 5.67843 36.622 4.86451 35.719 4.36231C34.8507 3.87742 33.6176 3.65229 31.6205 3.65229H27.7305V16.1901ZM31.3079 8.65703V6.49235H31.7247C32.4715 6.49235 32.8709 6.5443 33.1314 6.68284C33.5134 6.87334 33.6524 7.16773 33.6524 7.56603C33.6524 8.328 33.1488 8.65703 32.072 8.65703H31.3079ZM31.3079 13.3501V10.9429H32.4367C33.5829 10.9429 34.1734 11.3066 34.1734 12.1552C34.1734 12.6054 34.0171 12.9171 33.6697 13.1076C33.3745 13.2635 32.8535 13.3501 31.8289 13.3501H31.3079Z" fill="black"/>
<path d="M38.9902 11.93C38.9902 14.4411 41.0568 16.3806 43.9222 16.3806C46.7877 16.3806 48.8543 14.4411 48.8543 11.93C48.8543 9.419 46.7877 7.47945 43.9222 7.47945C41.0568 7.47945 38.9902 9.419 38.9902 11.93ZM42.394 11.93C42.394 11.0295 43.0366 10.3368 43.9222 10.3368C44.8079 10.3368 45.4505 11.0295 45.4505 11.93C45.4505 12.8305 44.8079 13.5232 43.9222 13.5232C43.0366 13.5232 42.394 12.8305 42.394 11.93Z" fill="black"/>
<path d="M50.2125 11.93C50.2125 14.4411 52.2791 16.3806 55.1445 16.3806C58.01 16.3806 60.0766 14.4411 60.0766 11.93C60.0766 9.419 58.01 7.47945 55.1445 7.47945C52.2791 7.47945 50.2125 9.419 50.2125 11.93ZM53.6163 11.93C53.6163 11.0295 54.2588 10.3368 55.1445 10.3368C56.0302 10.3368 56.6728 11.0295 56.6728 11.93C56.6728 12.8305 56.0302 13.5232 55.1445 13.5232C54.2588 13.5232 53.6163 12.8305 53.6163 11.93Z" fill="black"/>
<path d="M61.9384 16.1901H65.3769V12.0166L65.4117 11.9993L67.7909 16.1901H71.7156L68.746 11.4798L71.5941 7.66994H67.8082L65.4117 11.1854L65.3769 11.1681V2.95959H61.9384V16.1901Z" fill="black"/>
<path d="M72.8691 15.6706C73.9806 16.1728 75.422 16.3806 76.4292 16.3806C78.7389 16.3806 80.4929 15.2896 80.5103 13.3847C80.5103 12.0859 79.7288 11.3586 78.079 10.891C76.7766 10.5273 76.0645 10.6312 76.0645 10.1983C76.0645 9.99048 76.2382 9.86925 76.655 9.86925C77.2975 9.86925 78.7216 10.1463 80.0414 10.839V8.17214C78.9473 7.70457 77.558 7.47945 76.5334 7.47945C74.2758 7.47945 72.5739 8.58776 72.5565 10.4234C72.5565 11.6529 73.3033 12.4496 74.9531 12.9171C76.2382 13.2808 77.0023 13.1769 77.0023 13.6445C77.0023 13.8869 76.7939 13.9908 76.3771 13.9908C75.7172 13.9908 74.189 13.7137 72.8691 13.0037V15.6706Z" fill="black"/>
<path d="M87.7157 15.965V20H91.1542V7.5314L88.6535 7.96434C87.9415 7.6353 87.1773 7.47945 86.5001 7.47945C83.6867 7.47945 81.7938 9.45363 81.7938 12.0859C81.7938 14.6662 83.6346 16.3806 85.8922 16.3806C86.6043 16.3806 87.2468 16.1901 87.681 15.9477L87.7157 15.965ZM87.7157 13.5232C87.4552 13.6445 87.1252 13.731 86.7953 13.731C85.7359 13.731 85.267 12.9864 85.267 12.0166C85.267 11.0815 85.7186 10.2156 86.8647 10.2156C87.1773 10.2156 87.4552 10.2849 87.7157 10.3715V13.5232Z" fill="black"/>
<path d="M98.9901 15.4974V16.1901H102.359V7.66994H98.9206V13.0903C98.608 13.3847 98.1739 13.5752 97.7744 13.5752C97.5313 13.5752 97.3055 13.5059 97.1319 13.3327C96.9756 13.1769 96.8888 12.9691 96.8888 12.5188V7.66994H93.4502V12.9691C93.4502 14.2506 93.7281 15.0472 94.3359 15.6013C94.8222 16.0343 95.5863 16.3806 96.5241 16.3806C97.5139 16.3806 98.3302 15.9823 98.9554 15.4801L98.9901 15.4974Z" fill="black"/>
<path d="M109.553 15.7745C110.126 16.2074 110.838 16.346 111.55 16.346C112.21 16.346 112.8 16.2248 113.165 16.0169V13.6618C113.026 13.731 112.887 13.7657 112.766 13.7657C112.453 13.7657 112.331 13.5579 112.331 13.2115V10.7524C112.331 9.67876 112.036 8.88216 111.272 8.31068C110.543 7.75653 109.414 7.47945 108.181 7.47945C106.896 7.47945 105.75 7.77384 105.02 8.10287V10.7698C105.732 10.4754 106.601 10.1983 107.504 10.1983C107.955 10.1983 108.389 10.2676 108.65 10.51C108.823 10.6832 108.893 10.8737 108.893 11.1334V11.2546C108.476 11.1681 108.059 11.1161 107.59 11.1161C106.757 11.1161 105.854 11.272 105.194 11.7569C104.621 12.1725 104.187 12.8825 104.187 13.8003C104.187 14.7181 104.603 15.3935 105.281 15.8438C105.836 16.2074 106.514 16.3806 107.295 16.3806C108.146 16.3806 108.893 16.1555 109.518 15.7745H109.553ZM108.893 13.9908C108.719 14.0601 108.494 14.112 108.285 14.112C107.886 14.112 107.521 13.9215 107.521 13.5059C107.521 13.0557 107.938 12.8825 108.389 12.8825C108.511 12.8825 108.737 12.8998 108.893 12.9344V13.9908Z" fill="black"/>
<path d="M114.827 16.1901H118.266V11.3412C118.839 10.8044 119.464 10.6312 120.193 10.6312C120.471 10.6312 120.819 10.6659 121.131 10.7351V7.58335C120.975 7.54872 120.732 7.51408 120.506 7.51408C119.568 7.51408 118.787 7.96434 118.231 8.60508L118.196 8.58776V7.66994H114.827V16.1901Z" fill="black"/>
<path d="M130.781 13.1249C129.756 13.6791 128.714 13.9215 127.915 13.9215C126.995 13.9215 126.179 13.6098 125.849 12.7093H131.215C131.249 12.4669 131.267 12.1205 131.267 11.8434C131.267 8.77825 129.096 7.47945 126.995 7.47945C124.563 7.47945 122.358 9.21119 122.358 12.0166C122.358 14.7181 124.425 16.3806 127.446 16.3806C128.61 16.3806 129.878 16.1382 130.781 15.7225V13.1249ZM125.796 10.9429C125.953 10.2849 126.37 9.90389 126.977 9.90389C127.481 9.90389 128.019 10.1636 128.176 10.9429H125.796Z" fill="black"/>
<path d="M15.3197 4.52493L13.252 0.232251C13.2184 0.16269 13.166 0.104002 13.1006 0.062937C13.0352 0.0218723 12.9595 9.92016e-05 12.8823 0.000122088H4.57471C4.57471 0.000122088 1.99159 2.38379 0.707031 6.25444H14.2329C15.1217 6.25444 15.7052 5.32572 15.3197 4.52493Z" fill="url(#paint0_linear_5607_12337)"/>
<path d="M19.787 14.8854H0.71875C1.23351 16.4301 2.05402 18.0526 3.27386 19.7312H21.2638C21.9032 19.7312 22.3228 19.0633 22.0455 18.4872L20.538 15.3573C20.4699 15.2159 20.3633 15.0967 20.2305 15.0132C20.0976 14.9297 19.9439 14.8854 19.787 14.8854Z" fill="url(#paint1_linear_5607_12337)"/>
<path d="M18.8818 11.9202L16.9677 7.9458C16.8891 7.78263 16.766 7.64496 16.6127 7.54861C16.4593 7.45226 16.2819 7.40114 16.1007 7.40112H0.378996C-0.0721062 9.26834 -0.184351 11.4214 0.39682 13.7762H17.7157C18.6696 13.7762 19.2958 12.7796 18.8818 11.9202Z" fill="url(#paint2_linear_5607_12337)"/>
<defs>
<linearGradient id="paint0_linear_5607_12337" x1="-0.347309" y1="3.12728" x2="14.3863" y2="3.12728" gradientUnits="userSpaceOnUse">
<stop stop-color="#ED9A2E"/>
<stop offset="0.14" stop-color="#EFA126"/>
<stop offset="0.68" stop-color="#F7BA0A"/>
<stop offset="1" stop-color="#FAC300"/>
</linearGradient>
<linearGradient id="paint1_linear_5607_12337" x1="1.04615" y1="17.3083" x2="22.4597" y2="17.3083" gradientUnits="userSpaceOnUse">
<stop offset="0.03" stop-color="#ED9A2E"/>
<stop offset="0.19" stop-color="#F2A91E"/>
<stop offset="0.42" stop-color="#F6B70D"/>
<stop offset="0.68" stop-color="#F9C003"/>
<stop offset="1" stop-color="#FAC300"/>
</linearGradient>
<linearGradient id="paint2_linear_5607_12337" x1="-3.81736" y1="10.5888" x2="15.1943" y2="10.5888" gradientUnits="userSpaceOnUse">
<stop offset="0.23" stop-color="#ED9A2E"/>
<stop offset="0.36" stop-color="#F2AB1B"/>
<stop offset="0.53" stop-color="#F7B90C"/>
<stop offset="0.72" stop-color="#F9C103"/>
<stop offset="1" stop-color="#FAC300"/>
</linearGradient>
</defs>
</svg>
