<svg width="93" height="24" viewBox="0 0 93 24" fill="none" xmlns="http://www.w3.org/2000/svg">
    <path d="M4.87358 16.3361C6.04159 16.3361 6.87359 16.0961 7.64159 15.3441C8.31359 14.7041 8.63358 13.9201 8.63358 12.9761C8.63358 11.5841 7.96159 10.6561 6.61759 10.0161C7.40159 9.40806 7.81758 8.72006 7.81758 7.80806C7.81758 6.81606 7.30559 5.92006 6.44159 5.40806C5.72159 4.97606 4.74559 4.84806 3.54559 4.84806H1.44958V16.3361H4.87358ZM4.20159 6.92806C5.17759 6.92806 5.67358 7.36006 5.67358 8.09606C5.67358 8.89606 5.14559 9.34406 4.12159 9.34406H3.64159V6.92806H4.20159ZM4.18559 11.2961C5.72159 11.2961 6.48958 11.8881 6.48958 12.8961C6.48958 13.8721 5.75359 14.2561 4.37759 14.2561H3.64159V11.2961H4.18559Z" fill="white"/>
    <path d="M14.4908 7.61606C12.1708 7.61606 10.0908 9.52006 10.0908 12.0961C10.0908 14.5921 12.0428 16.5601 14.5068 16.5601C17.0988 16.5601 19.0028 14.5441 19.0028 12.0801C19.0028 9.56806 16.9708 7.61606 14.4908 7.61606ZM14.5228 9.63206C15.9148 9.63206 16.8588 10.6561 16.8588 12.0961C16.8588 13.5841 15.8348 14.5441 14.5228 14.5441C13.1468 14.5441 12.2348 13.5201 12.2348 12.0801C12.2348 10.6721 13.1948 9.63206 14.5228 9.63206Z" fill="white"/>
    <path d="M24.7252 7.61606C22.4052 7.61606 20.3252 9.52006 20.3252 12.0961C20.3252 14.5921 22.2772 16.5601 24.7412 16.5601C27.3332 16.5601 29.2372 14.5441 29.2372 12.0801C29.2372 9.56806 27.2052 7.61606 24.7252 7.61606ZM24.7572 9.63206C26.1492 9.63206 27.0932 10.6561 27.0932 12.0961C27.0932 13.5841 26.0692 14.5441 24.7572 14.5441C23.3812 14.5441 22.4692 13.5201 22.4692 12.0801C22.4692 10.6721 23.4292 9.63206 24.7572 9.63206Z" fill="white"/>
    <path d="M30.9756 16.3361H33.1036V12.4161L36.7196 16.3361H39.3596L35.2636 11.9201L38.9116 7.84006H36.2556L33.1036 11.3441V4.56006H30.9756V16.3361Z" fill="white"/>
    <path d="M42.6568 13.0241C43.2488 13.3281 43.6008 13.6001 43.6008 13.9681C43.6008 14.3521 43.1848 14.6561 42.6568 14.6561C42.0968 14.6561 41.3768 14.2401 40.8808 13.6641L39.5688 15.1041C40.3048 16.0641 41.3128 16.5601 42.5448 16.5601C44.4008 16.5601 45.6008 15.4241 45.6008 13.9041C45.6008 12.6401 44.8488 11.9041 43.4408 11.1841L42.6568 10.7841C42.1928 10.5441 41.8888 10.4001 41.8888 10.0801C41.8888 9.74406 42.2248 9.56806 42.6568 9.56806C43.1688 9.56806 43.6488 9.87206 44.1288 10.3521L45.4408 9.02406C44.7528 8.11206 43.7448 7.61606 42.6408 7.61606C41.0088 7.61606 39.8888 8.73606 39.8888 10.0641C39.8888 11.1361 40.5768 11.9681 41.9368 12.6561L42.6568 13.0241Z" fill="white"/>
    <path d="M55.7037 7.84006H53.5757V8.76806C52.8077 8.00006 51.9277 7.61606 50.9037 7.61606C48.6957 7.61606 46.9037 9.44006 46.9037 12.0961C46.9037 14.7041 48.7917 16.5601 50.9517 16.5601C52.0237 16.5601 52.8237 16.1761 53.5757 15.4401V19.4401H55.7037V7.84006ZM51.3357 9.56806C52.6797 9.56806 53.6717 10.5761 53.6717 12.0641C53.6717 13.6161 52.6477 14.6081 51.3357 14.6081C50.0077 14.6081 49.0477 13.5361 49.0477 12.0801C49.0477 10.6881 49.9277 9.56806 51.3357 9.56806Z" fill="white"/>
    <path d="M57.8662 11.7281C57.8662 12.4321 57.8342 12.8321 57.9462 13.5201C58.2822 15.5041 59.5462 16.5441 61.5942 16.5441C62.7782 16.5441 63.6582 16.2241 64.3302 15.4721C65.2262 14.4801 65.3222 13.3281 65.3222 11.7601V7.84006H63.1942V12.3681C63.1942 13.8081 62.7302 14.5921 61.5942 14.5921C60.4742 14.5921 59.9942 13.7921 59.9942 12.2721V7.84006H57.8662V11.7281Z" fill="white"/>
    <path d="M73.732 16.3361H75.86V7.84006H73.732V8.76806C72.964 8.00006 72.084 7.61606 71.06 7.61606C68.852 7.61606 67.06 9.44006 67.06 12.0961C67.06 14.7041 68.948 16.5601 71.108 16.5601C72.18 16.5601 72.98 16.1761 73.732 15.4401V16.3361ZM71.492 9.56806C72.836 9.56806 73.828 10.5761 73.828 12.0641C73.828 13.6161 72.804 14.6081 71.492 14.6081C70.164 14.6081 69.204 13.5361 69.204 12.0801C69.204 10.6881 70.084 9.56806 71.492 9.56806Z" fill="white"/>
    <path d="M79.3505 7.84006H77.5105V16.3361H79.6385V12.8961C79.6385 12.4321 79.6385 11.9041 79.6545 11.4401C79.7025 10.1921 80.1825 9.48806 80.7905 9.48806C81.0145 9.48806 81.2545 9.58406 81.4145 9.66406L82.0705 7.84006C81.8625 7.74406 81.5905 7.61606 81.1425 7.61606C80.4385 7.61606 79.7505 8.03206 79.3505 8.91206V7.84006Z" fill="white"/>
    <path d="M89.1825 13.8401C88.5905 14.4161 87.9825 14.6721 87.0705 14.6721C85.8545 14.6721 84.8945 13.9681 84.6865 12.7041H91.5345C91.5345 12.5121 91.5505 12.4161 91.5505 12.2241C91.5505 9.53606 89.7265 7.61606 87.0385 7.61606C84.3025 7.61606 82.6225 9.76006 82.6225 12.0801C82.6225 14.5761 84.3665 16.5601 87.0705 16.5601C88.8625 16.5601 90.0625 15.9841 90.9745 14.6881L89.1825 13.8401ZM84.7825 11.0241C85.1985 9.95206 86.0145 9.42406 87.0705 9.42406C88.2065 9.42406 89.1185 10.0321 89.4065 11.0241H84.7825Z" fill="white"/>
</svg>
