<svg viewBox="0 0 306 272" fill="none" xmlns="http://www.w3.org/2000/svg">
<path d="M291.236 124.826C290.885 125.176 290.323 125.662 289.608 126.255C285.122 130.143 274.671 139.183 273.351 151.789L271.906 151.41C271.779 137.596 281.346 123.439 287.93 120.574C287.967 120.558 288.001 120.535 288.029 120.506C288.057 120.477 288.08 120.443 288.095 120.405C288.11 120.367 288.117 120.326 288.117 120.285C288.116 120.244 288.108 120.204 288.091 120.166C288.059 120.091 287.999 120.032 287.924 120.001C287.849 119.971 287.766 119.971 287.691 120.002C281.051 122.86 271.225 136.753 271.295 151.253L270.319 150.996C269.954 149.738 267.806 140.991 273.78 129.449C274.78 127.522 275.93 125.68 277.219 123.94L277.282 123.868C281.437 118.358 286.358 115.214 289.734 116.336C290.514 116.546 291.225 116.964 291.794 117.547C292.362 118.13 292.768 118.856 292.97 119.652C293.146 120.593 293.079 121.565 292.775 122.472C292.472 123.38 291.941 124.191 291.236 124.826Z" fill="white"/>
<path d="M283.551 111.906C280.848 115.851 278.048 119.931 276.749 123.583C275.425 125.348 274.251 127.225 273.24 129.193C271.563 132.386 270.348 135.808 269.632 139.355C269.084 118.366 280.392 101.908 283.845 98.9712C283.876 98.9451 283.901 98.913 283.92 98.8769C283.938 98.8407 283.949 98.8012 283.952 98.7607C283.956 98.7201 283.951 98.6793 283.939 98.6406C283.926 98.6019 283.907 98.5661 283.88 98.5353C283.829 98.4728 283.755 98.4334 283.675 98.4254C283.595 98.4174 283.515 98.4414 283.452 98.4924C279.774 101.608 267.372 119.746 269.176 142.392C269.171 142.404 269.171 142.416 269.176 142.428C268.854 145.23 269.006 148.068 269.625 150.818L267.919 150.289C267.463 148.717 263.911 135.403 266.831 117.766C268.382 108.34 273.745 99.1856 279.585 95.9411C282.287 94.4547 284.933 94.2618 287.453 95.3766C288.036 95.5787 288.565 95.9156 288.998 96.3607C289.432 96.8058 289.758 97.3471 289.952 97.9421C290.871 101.222 287.313 106.41 283.551 111.906Z" fill="white"/>
<path d="M293.566 119.557C293.337 118.659 292.88 117.837 292.24 117.175C291.601 116.513 290.802 116.033 289.924 115.784C286.681 114.705 282.154 117.213 278.111 121.901C277.654 122.437 277.198 123.002 276.749 123.595C275.424 125.36 274.25 127.237 273.239 129.205C271.563 132.398 270.347 135.821 269.632 139.367C269.421 140.446 269.281 141.511 269.182 142.44C268.861 145.242 269.013 148.08 269.632 150.83C269.716 151.187 269.779 151.387 269.786 151.401C269.813 151.473 269.866 151.532 269.933 151.566H269.99L271.464 151.952L273.527 152.488C273.566 152.498 273.607 152.498 273.646 152.488C273.694 152.481 273.739 152.464 273.78 152.438C273.815 152.412 273.844 152.379 273.866 152.341C273.888 152.302 273.902 152.26 273.906 152.216C275.036 139.674 285.516 130.606 289.994 126.732C290.696 126.111 291.285 125.618 291.65 125.246C292.422 124.544 293.003 123.653 293.338 122.657C293.674 121.661 293.753 120.593 293.566 119.557ZM291.236 124.839C290.885 125.189 290.324 125.675 289.608 126.268C285.123 130.155 274.671 139.196 273.352 151.802L271.906 151.423L271.295 151.266L270.319 151.008C269.954 149.751 267.807 141.004 273.78 129.462C274.78 127.535 275.93 125.693 277.219 123.952L277.282 123.881C281.438 118.371 286.358 115.227 289.734 116.349C290.514 116.559 291.225 116.977 291.794 117.56C292.363 118.143 292.768 118.869 292.97 119.665C293.144 120.604 293.076 121.573 292.772 122.477C292.468 123.382 291.939 124.19 291.236 124.824V124.839Z" fill="#4EA92E"/>
<path d="M287.93 120.604C281.346 123.462 271.786 137.626 271.906 151.44V151.719C271.908 151.793 271.884 151.865 271.837 151.922C271.79 151.979 271.725 152.016 271.653 152.026H271.604H271.477C271.426 152 271.383 151.961 271.352 151.912C271.321 151.863 271.304 151.806 271.302 151.748C271.302 151.612 271.302 151.476 271.302 151.34C271.232 136.84 281.058 122.962 287.698 120.089C287.773 120.058 287.856 120.058 287.931 120.089C288.006 120.119 288.066 120.179 288.098 120.254C288.114 120.323 288.106 120.396 288.076 120.46C288.045 120.523 287.993 120.574 287.93 120.604Z" fill="#4EA92E"/>
<path d="M284.049 112.263C281.835 115.315 279.85 118.533 278.111 121.889C277.802 122.561 277.528 123.211 277.303 123.854C277.303 123.854 277.023 124.083 276.91 124.04C276.834 124.011 276.773 123.953 276.739 123.878C276.704 123.803 276.701 123.718 276.728 123.64V123.583C278.026 119.931 280.827 115.85 283.529 111.906C287.291 106.41 290.85 101.222 289.938 97.9418C289.744 97.3468 289.418 96.8055 288.984 96.3604C288.551 95.9153 288.022 95.5784 287.439 95.3763C284.919 94.2615 282.273 94.4544 279.571 95.9408C273.731 99.1638 268.34 108.34 266.817 117.766C263.897 135.403 267.449 148.716 267.905 150.289L269.61 150.817L270.144 150.982C270.222 151.006 270.287 151.062 270.326 151.135C270.364 151.209 270.372 151.295 270.348 151.375C270.329 151.43 270.297 151.479 270.254 151.516C270.21 151.554 270.158 151.579 270.102 151.589C270.058 151.6 270.012 151.6 269.968 151.589H269.912L267.568 150.875C267.52 150.859 267.476 150.833 267.441 150.797C267.406 150.76 267.379 150.716 267.364 150.667C267.322 150.532 263.09 136.532 266.206 117.694C267.8 108.097 273.288 98.7279 279.276 95.4263C282.154 93.8398 284.982 93.6397 287.699 94.8403C288.357 95.0827 288.953 95.4754 289.439 95.9882C289.926 96.501 290.291 97.1204 290.506 97.7989C291.531 101.336 287.902 106.646 284.049 112.263Z" fill="#4EA92E"/>
<path d="M283.845 98.9704C280.392 101.908 269.105 118.366 269.632 139.354C269.632 140.34 269.709 141.341 269.786 142.341C269.794 142.42 269.773 142.498 269.726 142.561C269.679 142.623 269.61 142.665 269.534 142.677C269.458 142.682 269.384 142.658 269.324 142.611C269.265 142.564 269.224 142.496 269.211 142.42C269.206 142.408 269.206 142.396 269.211 142.384C267.407 119.738 279.809 101.6 283.487 98.4845C283.55 98.4335 283.63 98.4095 283.71 98.4175C283.79 98.4255 283.864 98.4649 283.916 98.5274C283.941 98.5606 283.959 98.5988 283.969 98.6396C283.98 98.6804 283.981 98.7229 283.975 98.7644C283.968 98.8059 283.953 98.8457 283.931 98.8811C283.909 98.9165 283.88 98.9469 283.845 98.9704Z" fill="#4EA92E"/>
<path d="M171.352 21.7641L164.796 25.616C164.796 25.3159 164.852 25.0229 164.852 24.7299V22.8004C164.852 19.363 162.48 17.9695 159.553 19.6917C158.296 20.4777 157.221 21.5308 156.401 22.7789C155.924 18.4911 152.59 16.8475 148.547 19.2058C144.174 21.7713 140.63 28.0243 140.63 33.1697V36.0282C140.601 37.1823 140.829 38.328 141.296 39.3798L135.864 42.5742C135.007 43.1395 134.295 43.9029 133.784 44.802C133.273 45.7012 132.977 46.7107 132.923 47.7481C132.923 49.6562 134.235 50.428 135.864 49.4775L171.345 28.6175C172.2 28.0514 172.911 27.2876 173.421 26.3885C173.931 25.4894 174.225 24.4803 174.279 23.4435C174.286 21.5855 172.973 20.8137 171.352 21.7641Z" fill="#EBEBEB"/>
<path d="M211.452 25.945L206.538 28.8464C206.538 28.6249 206.58 28.4033 206.58 28.1818V26.7525C206.58 24.1584 204.791 23.1079 202.587 24.4086C201.634 24.9995 200.82 25.7945 200.2 26.7383C199.842 23.4724 197.329 22.2575 194.276 24.0584C190.977 25.995 188.296 30.7116 188.296 34.592V36.7359C188.272 37.6082 188.448 38.4741 188.808 39.2657L184.674 41.6669C184.028 42.0926 183.49 42.6682 183.104 43.3464C182.719 44.0246 182.497 44.7862 182.456 45.5688C182.456 46.998 183.446 47.5912 184.674 46.8766L211.452 31.1547C212.096 30.7257 212.633 30.1484 213.018 29.4694C213.404 28.7904 213.627 28.0286 213.67 27.2456C213.67 25.7949 212.673 25.2304 211.452 25.945Z" fill="#EBEBEB"/>
<path d="M171.814 245.514L166.563 242.427L170.382 240.183C171.067 239.844 171.645 239.316 172.049 238.659C172.453 238.002 172.667 237.242 172.667 236.467C172.667 235.691 172.453 234.931 172.049 234.274C171.645 233.617 171.067 233.089 170.382 232.75L160.878 227.162C159.73 226.547 158.452 226.226 157.154 226.226C155.857 226.226 154.579 226.547 153.431 227.162L147.015 230.935L113.871 211.447C112.733 210.811 111.45 210.488 110.151 210.511C108.85 210.483 107.564 210.806 106.424 211.447L92.8775 219.415C91.9095 219.919 91.0761 220.655 90.4489 221.559C89.8368 222.64 89.6511 223.918 89.9295 225.133L96.9486 260.864C97.3557 262.658 98.6752 264.223 100.872 265.516L110.355 271.062C111.489 271.704 112.771 272.028 114.068 271.998C115.361 272.025 116.637 271.702 117.767 271.062L144.727 255.218L152.574 259.828C153.724 260.44 155.001 260.76 156.298 260.76C157.595 260.76 158.873 260.44 160.022 259.828L171.814 252.946C172.501 252.609 173.081 252.082 173.487 251.425C173.893 250.767 174.108 250.006 174.108 249.23C174.108 248.453 173.893 247.693 173.487 247.035C173.081 246.378 172.501 245.85 171.814 245.514ZM119.606 247.043L118.034 238.996L125.663 243.484L119.606 247.043Z" fill="#E0E0E0"/>
<path d="M21.1082 242.729C26.535 244.744 31.6996 247.427 36.4869 250.718C41.8635 254.42 46.7839 258.915 52.4904 261.966C59.9446 265.961 68.5218 267.405 76.9166 266.969C81.6685 266.733 86.8415 265.675 89.9018 261.859C90.7292 260.902 91.2227 259.694 91.3056 258.422C91.3056 256.564 90.0913 254.963 88.7998 253.677C81.9703 246.859 72.3191 244.044 63.0189 241.835C53.7187 239.627 48.1526 236.883 39.0349 231.923C35.1323 229.78 31.3139 227.514 27.3552 225.492L27.2569 225.442C25.3188 224.361 23.3249 223.388 21.2837 222.526C18.5954 221.518 16.3704 220.782 13.3943 221.011C10.4182 221.24 7.07716 221.19 5.0276 223.641C4.18078 224.674 3.64327 225.933 3.47902 227.269C3.31477 228.604 3.53069 229.959 4.10109 231.173C6.99294 237.962 14.8894 240.42 21.1082 242.729Z" fill="#E0E0E0"/>
<path d="M224.59 189.919C222.211 188.383 219.586 186.768 216.778 185.117C213.971 183.466 211.163 181.908 208.418 180.422C204.71 178.49 200.815 176.955 196.795 175.841C192.5 174.65 188.072 174.026 183.62 173.983H183.045C178.549 174.008 174.073 174.574 169.708 175.67C164.711 176.945 159.918 178.94 155.474 181.594C150.638 184.452 147.234 187.311 145.079 190.291C142.826 193.442 141.738 196.63 141.843 199.774C142.023 203.083 143.291 206.235 145.444 208.721C147.758 211.49 150.476 213.881 153.502 215.81C155.958 217.397 158.646 219.048 161.489 220.72C164.332 222.392 167.104 223.936 169.666 225.315C173.379 227.242 177.276 228.775 181.297 229.889C185.589 231.083 190.015 231.708 194.465 231.747H195.082C199.578 231.724 204.054 231.158 208.418 230.06C213.416 228.786 218.21 226.791 222.653 224.136C227.496 221.277 230.9 218.419 233.048 215.439C235.308 212.294 236.396 209.1 236.284 205.956C236.106 202.646 234.837 199.494 232.683 197.008C230.356 194.24 227.626 191.85 224.59 189.919ZM208.447 208.843C208.201 209.221 207.52 210.015 205.639 211.115C204.226 211.973 202.692 212.605 201.091 212.988C199.952 213.243 198.789 213.375 197.623 213.381C197.314 213.381 197.006 213.381 196.697 213.381C195.263 213.289 193.847 213.006 192.485 212.537C190.986 212.014 189.531 211.369 188.133 210.608C183.027 207.955 178.06 205.033 173.253 201.854C172.161 201.187 171.152 200.388 170.249 199.474C169.785 199.037 169.443 198.482 169.259 197.866C169.259 197.78 169.182 197.502 169.561 196.908C169.807 196.537 170.488 195.744 172.369 194.636C173.78 193.777 175.315 193.148 176.917 192.771C178.005 192.524 179.116 192.397 180.23 192.392C180.574 192.392 180.932 192.392 181.234 192.428C182.668 192.535 184.083 192.828 185.445 193.3C186.96 193.821 188.44 194.445 189.874 195.165C194.977 197.866 199.996 200.81 204.804 203.89C205.916 204.58 206.954 205.387 207.899 206.299C208.345 206.688 208.67 207.203 208.833 207.778C208.819 207.885 208.875 208.178 208.461 208.843H208.447Z" fill="#E0E0E0"/>
<path d="M302.832 168.492L297.581 165.405L301.4 163.161C302.085 162.823 302.663 162.295 303.067 161.637C303.471 160.98 303.685 160.22 303.685 159.445C303.685 158.67 303.471 157.91 303.067 157.253C302.663 156.596 302.085 156.068 301.4 155.729L291.889 150.141C290.741 149.526 289.463 149.205 288.165 149.205C286.868 149.205 285.59 149.526 284.442 150.141L278.026 153.907L244.882 134.426C243.734 133.811 242.456 133.49 241.159 133.49C239.861 133.49 238.584 133.811 237.435 134.426L223.895 142.387C222.924 142.889 222.088 143.625 221.46 144.531C220.846 145.611 220.661 146.889 220.94 148.104L227.959 183.835C228.367 185.629 229.686 187.194 231.883 188.488L241.394 194.076C242.528 194.719 243.81 195.042 245.107 195.012C246.407 195.043 247.691 194.72 248.827 194.076L275.787 178.226L283.635 182.842C284.783 183.457 286.061 183.778 287.358 183.778C288.655 183.778 289.933 183.457 291.082 182.842L302.825 175.939C303.512 175.602 304.092 175.075 304.498 174.417C304.904 173.76 305.119 172.999 305.119 172.223C305.119 171.446 304.904 170.685 304.498 170.028C304.092 169.371 303.512 168.843 302.825 168.507L302.832 168.492ZM250.624 170.014L249.024 161.975L256.653 166.456L250.624 170.014Z" fill="#E0E0E0"/>
<path d="M226.907 244.618C227.092 244.53 227.295 244.484 227.5 244.484C227.705 244.484 227.907 244.53 228.093 244.618L230.416 245.99C230.484 246.018 230.543 246.065 230.585 246.126C230.628 246.187 230.652 246.259 230.655 246.333C230.651 246.409 230.626 246.481 230.584 246.543C230.542 246.605 230.484 246.653 230.416 246.684L220.028 252.794C219.844 252.887 219.641 252.936 219.435 252.936C219.229 252.936 219.026 252.887 218.842 252.794L204.677 244.468C204.61 244.437 204.551 244.388 204.508 244.327C204.465 244.265 204.439 244.193 204.432 244.118C204.439 244.043 204.466 243.971 204.509 243.91C204.552 243.849 204.61 243.8 204.677 243.768L214.897 237.765C215.08 237.671 215.282 237.622 215.487 237.622C215.691 237.622 215.893 237.671 216.076 237.765L218.4 239.13C218.468 239.16 218.527 239.208 218.571 239.27C218.614 239.332 218.64 239.404 218.645 239.48C218.639 239.556 218.613 239.628 218.57 239.69C218.526 239.751 218.468 239.8 218.4 239.83L211.647 243.797L214.02 245.19L220.288 241.503C220.472 241.409 220.675 241.36 220.881 241.36C221.087 241.36 221.29 241.409 221.474 241.503L223.797 242.867C223.865 242.898 223.923 242.946 223.965 243.008C224.007 243.07 224.032 243.143 224.036 243.218C224.031 243.293 224.006 243.365 223.964 243.426C223.922 243.488 223.864 243.537 223.797 243.568L217.522 247.248L219.979 248.677L226.907 244.618Z" fill="#455A64"/>
<path d="M230.374 233.328C230.558 233.234 230.761 233.185 230.967 233.185C231.173 233.185 231.376 233.234 231.56 233.328L233.771 234.629C233.839 234.659 233.897 234.708 233.939 234.769C233.981 234.831 234.006 234.904 234.01 234.979C234.005 235.054 233.98 235.126 233.938 235.187C233.896 235.249 233.839 235.298 233.771 235.329L231.778 236.501C230.43 237.287 230.43 238.08 231.778 238.866L237.169 242.039C237.237 242.069 237.296 242.118 237.34 242.179C237.383 242.241 237.409 242.314 237.414 242.39C237.408 242.465 237.382 242.537 237.339 242.599C237.295 242.661 237.237 242.709 237.169 242.74L234.41 244.362C234.226 244.456 234.023 244.504 233.817 244.504C233.611 244.504 233.408 244.456 233.224 244.362L223.004 238.352C222.928 238.33 222.861 238.283 222.813 238.218C222.765 238.154 222.74 238.075 222.74 237.995C222.74 237.914 222.765 237.835 222.813 237.771C222.861 237.706 222.928 237.659 223.004 237.637L225.552 236.144C225.735 236.049 225.937 236 226.142 236C226.347 236 226.549 236.049 226.731 236.144L227.237 236.437C227.267 236.01 227.416 235.602 227.665 235.257C228.045 234.767 228.523 234.365 229.069 234.078L230.374 233.328Z" fill="#455A64"/>
<path d="M240.986 227.09C241.167 226.991 241.371 226.942 241.576 226.947C241.784 226.942 241.989 226.991 242.173 227.09L244.384 228.391C244.451 228.421 244.509 228.47 244.551 228.532C244.594 228.594 244.618 228.666 244.622 228.741C244.617 228.816 244.592 228.888 244.55 228.95C244.508 229.012 244.451 229.06 244.384 229.091L242.39 230.263C241.042 231.049 241.042 231.84 242.39 232.636L247.781 235.802C247.849 235.831 247.908 235.879 247.951 235.941C247.993 236.003 248.017 236.076 248.019 236.152C248.014 236.227 247.99 236.299 247.948 236.361C247.906 236.422 247.848 236.471 247.781 236.502L245.022 238.124C244.838 238.218 244.635 238.267 244.429 238.267C244.223 238.267 244.02 238.218 243.836 238.124L233.616 232.114C233.549 232.085 233.491 232.038 233.449 231.977C233.407 231.917 233.382 231.845 233.378 231.771C233.382 231.696 233.406 231.624 233.448 231.562C233.491 231.5 233.549 231.451 233.616 231.421L236.164 229.927C236.345 229.828 236.548 229.778 236.754 229.785C236.959 229.779 237.162 229.828 237.343 229.927L237.849 230.22C237.879 229.794 238.028 229.385 238.277 229.041C238.657 228.551 239.136 228.149 239.681 227.862L240.986 227.09Z" fill="#455A64"/>
<path d="M259.84 221.749C260.079 221.871 260.367 222.028 260.71 222.228C261.054 222.428 261.321 222.6 261.532 222.743C262.128 223.098 262.637 223.586 263.02 224.172C263.331 224.661 263.474 225.242 263.427 225.823C263.346 226.464 263.08 227.066 262.662 227.552C262.088 228.223 261.401 228.785 260.633 229.21C259.752 229.73 258.808 230.131 257.826 230.404C256.868 230.667 255.883 230.819 254.892 230.854C253.95 230.885 253.007 230.804 252.084 230.611C251.229 230.441 250.401 230.148 249.627 229.739C249.396 229.618 249.108 229.453 248.764 229.253C248.42 229.053 248.146 228.881 247.943 228.746C247.334 228.398 246.814 227.908 246.427 227.316C246.118 226.821 245.98 226.235 246.034 225.651C246.12 225.009 246.388 224.405 246.806 223.915C247.367 223.234 248.051 222.669 248.82 222.25C249.7 221.729 250.644 221.33 251.628 221.063C252.596 220.803 253.589 220.652 254.59 220.613C255.532 220.575 256.475 220.654 257.398 220.849C258.25 221.028 259.073 221.332 259.84 221.749ZM253.439 227.366C254.032 227.664 254.688 227.806 255.348 227.781C256.013 227.754 256.661 227.563 257.236 227.224C257.819 226.881 258.135 226.509 258.177 226.116C258.219 225.723 257.987 225.351 257.475 224.994C257.25 224.825 257.015 224.67 256.773 224.529C256.516 224.38 256.251 224.244 255.98 224.122C255.391 223.821 254.736 223.678 254.078 223.708C253.413 223.73 252.765 223.919 252.189 224.258C251.607 224.608 251.291 224.972 251.249 225.373C251.207 225.773 251.438 226.137 251.951 226.495C252.174 226.663 252.409 226.816 252.653 226.952C252.906 227.099 253.169 227.231 253.439 227.345V227.366Z" fill="#455A64"/>
<path d="M265.54 212.654C265.724 212.56 265.927 212.511 266.133 212.511C266.339 212.511 266.542 212.56 266.726 212.654L268.944 213.954C269.011 213.985 269.069 214.034 269.111 214.096C269.153 214.158 269.178 214.23 269.182 214.305C269.178 214.38 269.154 214.452 269.112 214.514C269.07 214.576 269.011 214.625 268.944 214.655L266.943 215.827C265.605 216.613 265.605 217.404 266.943 218.199L272.341 221.365C272.408 221.396 272.466 221.445 272.508 221.507C272.55 221.568 272.575 221.64 272.58 221.715C272.576 221.79 272.551 221.863 272.509 221.925C272.467 221.987 272.409 222.035 272.341 222.066L269.576 223.688C269.395 223.787 269.191 223.836 268.986 223.831C268.78 223.837 268.577 223.787 268.396 223.688L258.149 217.685C258.08 217.654 258.022 217.606 257.978 217.544C257.935 217.482 257.909 217.41 257.903 217.335C257.908 217.259 257.934 217.186 257.978 217.125C258.021 217.063 258.08 217.014 258.149 216.985L260.689 215.491C260.874 215.397 261.077 215.348 261.283 215.348C261.488 215.348 261.691 215.397 261.876 215.491L262.381 215.784C262.408 215.357 262.557 214.947 262.809 214.605C263.187 214.112 263.666 213.71 264.213 213.426L265.54 212.654Z" fill="#455A64"/>
<path d="M169.456 238.603L157.706 245.506C156.956 245.891 156.128 246.092 155.288 246.092C154.448 246.092 153.62 245.891 152.87 245.506L143.745 240.132L115.458 256.769C114.705 257.15 113.875 257.348 113.033 257.348C112.192 257.348 111.362 257.15 110.608 256.769L101.104 251.173C99.546 250.268 98.6476 249.284 98.4089 248.222L91.3899 212.576C91.3539 212.366 91.3375 212.153 91.3407 211.94C91.3407 212.655 91.3407 221.523 91.3407 221.945C91.3444 222.129 91.3608 222.313 91.3899 222.495L98.4089 258.141C98.6476 259.199 99.546 260.182 101.104 261.092L110.608 266.681C111.36 267.066 112.191 267.267 113.033 267.267C113.875 267.267 114.706 267.066 115.458 266.681L143.738 250.066L152.863 255.44C153.613 255.825 154.441 256.025 155.281 256.025C156.121 256.025 156.949 255.825 157.699 255.44L169.449 248.536C169.727 248.414 169.967 248.216 170.142 247.964C170.316 247.712 170.419 247.415 170.438 247.107V237.174C170.419 237.481 170.317 237.776 170.144 238.028C169.97 238.28 169.732 238.479 169.456 238.603Z" fill="#4EA92E"/>
<path d="M169.006 234.351V224.418C168.983 224.725 168.879 225.02 168.705 225.272C168.531 225.523 168.293 225.722 168.016 225.847L160.295 230.378L168.627 235.273C168.858 235.022 168.993 234.695 169.006 234.351Z" fill="#4EA92E"/>
<path d="M115.507 232.951L121.354 236.403L129.812 231.436L113.303 221.724L115.5 232.951H115.507Z" fill="#4EA92E"/>
<path opacity="0.35" d="M115.507 232.951L121.354 236.403L129.812 231.436L113.303 221.724L115.5 232.951H115.507Z" fill="black"/>
<path opacity="0.2" d="M169.006 234.351V224.418C168.983 224.725 168.879 225.02 168.705 225.272C168.531 225.523 168.293 225.722 168.016 225.847L160.295 230.378L168.627 235.273C168.858 235.022 168.993 234.695 169.006 234.351Z" fill="black"/>
<path opacity="0.2" d="M169.455 238.604L157.705 245.507C156.964 245.92 156.127 246.123 155.283 246.093V256.055C156.127 256.085 156.964 255.882 157.705 255.469L169.455 248.566C169.733 248.444 169.973 248.245 170.148 247.993C170.322 247.741 170.425 247.444 170.444 247.136V237.203C170.419 237.506 170.314 237.796 170.14 238.043C169.965 238.289 169.729 238.483 169.455 238.604Z" fill="black"/>
<path opacity="0.25" d="M98.4089 248.193L91.3899 212.547C91.3539 212.337 91.3375 212.124 91.3407 211.911C91.3407 212.626 91.3407 221.495 91.3407 221.916C91.3444 222.101 91.3608 222.284 91.3899 222.466L98.4089 258.112C98.4564 258.321 98.5295 258.523 98.6265 258.713V248.779C98.5306 248.594 98.4575 248.397 98.4089 248.193Z" fill="black"/>
<path opacity="0.35" d="M113.037 257.325C112.192 257.348 111.355 257.149 110.608 256.746L101.104 251.151C100.065 250.638 99.2014 249.819 98.6265 248.799V258.733C99.2014 259.752 100.065 260.572 101.104 261.084L110.608 266.672C111.353 267.081 112.191 267.283 113.037 267.258C113.125 267.269 113.215 267.269 113.303 267.258V257.325C113.215 257.336 113.125 257.336 113.037 257.325Z" fill="black"/>
<path opacity="0.2" d="M115.458 256.77C114.796 257.134 114.055 257.326 113.303 257.327V267.261C114.056 267.26 114.798 267.066 115.458 266.696L143.737 250.067V240.133L115.458 256.77Z" fill="black"/>
<path opacity="0.35" d="M152.862 245.507L143.738 240.133V250.067L152.862 255.441C153.6 255.855 154.435 256.057 155.277 256.027V246.093C154.435 246.124 153.6 245.921 152.862 245.507Z" fill="black"/>
<path d="M157.705 245.507C156.954 245.892 156.125 246.092 155.284 246.092C154.443 246.092 153.613 245.892 152.862 245.507L143.737 240.133L115.458 256.769C114.705 257.15 113.876 257.348 113.036 257.348C112.196 257.348 111.367 257.15 110.615 256.769L101.104 251.181C99.5548 250.266 98.6587 249.282 98.4154 248.229L91.3964 212.584C91.256 212.035 91.3184 211.452 91.5718 210.947C91.9841 210.416 92.5067 209.984 93.102 209.682L106.642 201.721C107.387 201.314 108.225 201.114 109.07 201.142C109.911 201.114 110.745 201.314 111.485 201.721L145.934 221.967L153.655 217.436C154.406 217.051 155.236 216.85 156.077 216.85C156.918 216.85 157.747 217.051 158.498 217.436L168.009 223.024C168.303 223.125 168.559 223.317 168.74 223.573C168.921 223.83 169.018 224.138 169.018 224.454C169.018 224.769 168.921 225.077 168.74 225.334C168.559 225.59 168.303 225.782 168.009 225.883L160.288 230.421L169.413 235.795C169.704 235.899 169.956 236.092 170.134 236.348C170.312 236.604 170.408 236.91 170.408 237.224C170.408 237.538 170.312 237.844 170.134 238.1C169.956 238.356 169.704 238.549 169.413 238.653L157.705 245.507ZM129.805 231.428L113.303 221.752L116.714 239.154L129.805 231.428Z" fill="#4EA92E"/>
<path d="M232.612 194.503C232.57 196.897 231.644 199.341 229.861 201.828C227.951 204.501 224.753 207.155 220.266 209.789C216.037 212.319 211.476 214.22 206.719 215.435C202.358 216.539 197.877 217.08 193.383 217.043C189.156 217.005 184.952 216.412 180.875 215.278C177.024 214.216 173.293 212.748 169.743 210.897C167.174 209.525 164.492 208.038 161.671 206.359C158.849 204.68 156.231 203.1 153.781 201.514C150.986 199.737 148.476 197.531 146.341 194.975C144.549 192.942 143.49 190.349 143.337 187.621C143.386 189.194 143.274 195.811 143.337 197.555C143.49 200.282 144.549 202.875 146.341 204.908C148.476 207.464 150.986 209.67 153.781 211.447C156.229 213.034 158.858 214.649 161.671 216.292C164.478 217.943 167.174 219.458 169.743 220.838C173.295 222.683 177.026 224.149 180.875 225.211C184.952 226.345 189.156 226.939 193.383 226.976C197.877 227.013 202.358 226.473 206.719 225.368C211.476 224.153 216.037 222.252 220.266 219.723C224.758 217.083 227.956 214.43 229.861 211.762C231.777 209.096 232.668 206.481 232.598 203.937C232.549 202.457 232.64 196.74 232.612 194.503Z" fill="#4EA92E"/>
<path opacity="0.35" d="M195.79 216.993C194.99 216.993 194.19 217.057 193.397 217.043C189.17 217.005 184.966 216.412 180.889 215.278C177.038 214.216 173.307 212.748 169.757 210.897C167.188 209.525 164.506 208.038 161.685 206.359C158.863 204.68 156.245 203.1 153.795 201.514C151 199.737 148.49 197.531 146.355 194.975C144.563 192.942 143.504 190.349 143.351 187.621C143.4 189.194 143.288 195.811 143.351 197.555C143.504 200.282 144.563 202.875 146.355 204.908C148.49 207.464 151 209.67 153.795 211.447C156.243 213.034 158.872 214.649 161.685 216.292C164.492 217.943 167.188 219.458 169.757 220.838C173.309 222.683 177.04 224.149 180.889 225.211C184.966 226.345 189.17 226.939 193.397 226.976C194.19 226.976 194.99 226.976 195.79 226.926V216.993Z" fill="black"/>
<path opacity="0.2" d="M232.612 194.502C232.57 196.896 231.644 199.34 229.861 201.827C227.952 204.5 224.753 207.154 220.266 209.788C216.038 212.318 211.476 214.219 206.719 215.434C203.14 216.328 199.48 216.85 195.797 216.992V226.925C199.48 226.779 203.139 226.258 206.719 225.367C211.476 224.152 216.038 222.251 220.266 219.722C224.758 217.082 227.956 214.429 229.861 211.761C231.777 209.095 232.668 206.48 232.598 203.935C232.549 202.456 232.64 196.739 232.612 194.502Z" fill="black"/>
<path d="M167.342 189.232C167.885 189.798 168.47 190.321 169.09 190.797C169.392 190.597 169.694 190.396 170.031 190.196C171.679 189.214 173.463 188.492 175.323 188.052C176.988 187.676 178.697 187.546 180.398 187.667C182.049 187.789 183.679 188.123 185.248 188.66C186.892 189.228 188.5 189.898 190.063 190.668C195.262 193.455 200.285 196.411 205.133 199.537C205.765 199.937 206.347 200.351 206.881 200.751C207.949 200.113 208.878 199.259 209.611 198.243C210.227 197.374 210.48 196.292 210.313 195.234C210.057 194.133 209.48 193.137 208.657 192.376C207.576 191.329 206.387 190.405 205.112 189.617C200.259 186.473 195.243 183.512 190.063 180.735C188.508 179.958 186.907 179.281 185.269 178.705C183.7 178.168 182.07 177.834 180.419 177.712C178.718 177.59 177.008 177.722 175.344 178.105C173.483 178.54 171.698 179.263 170.052 180.249C168.617 180.995 167.363 182.056 166.381 183.357C166.069 183.778 165.846 184.26 165.726 184.773C165.605 185.286 165.589 185.818 165.679 186.337C165.969 187.436 166.544 188.436 167.342 189.232Z" fill="#4EA92E"/>
<path opacity="0.35" d="M167.342 189.232C167.885 189.798 168.47 190.321 169.09 190.797C169.392 190.597 169.694 190.396 170.031 190.196C171.679 189.214 173.463 188.492 175.323 188.052C176.988 187.676 178.697 187.546 180.398 187.667C182.049 187.789 183.679 188.123 185.248 188.66C186.892 189.228 188.5 189.898 190.063 190.668C195.262 193.455 200.285 196.411 205.133 199.537C205.765 199.937 206.347 200.351 206.881 200.751C207.949 200.113 208.878 199.259 209.611 198.243C210.227 197.374 210.48 196.292 210.313 195.234C210.057 194.133 209.48 193.137 208.657 192.376C207.576 191.329 206.387 190.405 205.112 189.617C200.259 186.473 195.243 183.512 190.063 180.735C188.508 179.958 186.907 179.281 185.269 178.705C183.7 178.168 182.07 177.834 180.419 177.712C178.718 177.59 177.008 177.722 175.344 178.105C173.483 178.54 171.698 179.263 170.052 180.249C168.617 180.995 167.363 182.056 166.381 183.357C166.069 183.778 165.846 184.26 165.726 184.773C165.605 185.286 165.589 185.818 165.679 186.337C165.969 187.436 166.544 188.436 167.342 189.232Z" fill="black"/>
<path d="M155.67 171.829C159.897 169.297 164.459 167.396 169.216 166.184C173.578 165.083 178.059 164.542 182.553 164.576C186.781 164.617 190.987 165.21 195.068 166.341C198.92 167.405 202.653 168.873 206.207 170.722C208.897 172.151 211.649 173.697 214.461 175.36C217.274 177.022 219.847 178.604 222.182 180.105C224.976 181.884 227.486 184.089 229.622 186.644C231.409 188.681 232.47 191.271 232.634 193.997C232.722 196.546 231.81 199.166 229.896 201.858C227.982 204.55 224.765 207.194 220.245 209.791C216.017 212.32 211.455 214.221 206.698 215.436C202.336 216.537 197.856 217.078 193.362 217.044C189.133 217.005 184.926 216.409 180.847 215.272C176.999 214.213 173.271 212.747 169.722 210.898C167.153 209.526 164.462 208.016 161.65 206.368C158.838 204.719 156.206 203.102 153.754 201.515C150.961 199.734 148.452 197.529 146.313 194.976C144.525 192.938 143.464 190.344 143.302 187.616C143.218 185.072 144.13 182.451 146.04 179.755C147.949 177.058 151.159 174.416 155.67 171.829ZM205.112 189.595C200.259 186.47 195.236 183.518 190.042 180.741C188.486 179.959 186.882 179.279 185.241 178.704C183.674 178.167 182.047 177.831 180.398 177.704C178.696 177.587 176.987 177.722 175.323 178.104C173.462 178.539 171.677 179.262 170.031 180.248C168.596 180.994 167.342 182.056 166.36 183.356C166.046 183.777 165.822 184.258 165.701 184.771C165.581 185.284 165.566 185.817 165.658 186.336C165.941 187.427 166.514 188.416 167.314 189.195C168.37 190.267 169.548 191.205 170.824 191.989C175.693 195.205 180.723 198.161 185.894 200.843C187.406 201.668 188.981 202.365 190.604 202.93C193.113 203.81 195.781 204.122 198.422 203.845C201.062 203.567 203.611 202.706 205.891 201.322C207.331 200.578 208.589 199.513 209.569 198.206C210.184 197.34 210.436 196.261 210.271 195.205C210.017 194.101 209.436 193.104 208.607 192.347C207.543 191.303 206.371 190.381 205.112 189.595Z" fill="#4EA92E"/>
<path d="M300.486 161.582L288.736 168.485C287.987 168.871 287.158 169.071 286.318 169.071C285.479 169.071 284.65 168.871 283.9 168.485L274.776 163.104L246.517 179.719C245.766 180.105 244.936 180.305 244.095 180.305C243.254 180.305 242.425 180.105 241.674 179.719L232.163 174.131C230.605 173.223 229.713 172.237 229.468 171.18L222.449 135.534C222.413 135.324 222.397 135.111 222.4 134.898C222.4 135.612 222.4 144.481 222.4 144.903C222.404 145.087 222.42 145.271 222.449 145.453L229.468 181.092C229.713 182.156 230.605 183.135 232.163 184.05L241.674 189.639C242.425 190.024 243.254 190.224 244.095 190.224C244.936 190.224 245.766 190.024 246.517 189.639L274.776 173.023L283.9 178.405C284.65 178.79 285.479 178.99 286.318 178.99C287.158 178.99 287.987 178.79 288.736 178.405L300.486 171.501C300.765 171.379 301.005 171.181 301.179 170.929C301.354 170.677 301.457 170.38 301.476 170.072V160.153C301.456 160.461 301.353 160.757 301.178 161.009C301.004 161.261 300.764 161.459 300.486 161.582Z" fill="#4EA92E"/>
<path d="M300.044 157.323V147.39C300.022 147.697 299.918 147.992 299.744 148.244C299.569 148.496 299.331 148.694 299.055 148.819L291.334 153.35L299.665 158.238C299.899 157.992 300.035 157.666 300.044 157.323Z" fill="#4EA92E"/>
<path d="M246.538 155.929L252.385 159.381L260.843 154.414L244.334 144.702L246.531 155.929H246.538Z" fill="#4EA92E"/>
<path opacity="0.35" d="M246.538 155.929L252.385 159.381L260.843 154.414L244.334 144.702L246.531 155.929H246.538Z" fill="black"/>
<path opacity="0.2" d="M300.044 157.323V147.39C300.022 147.697 299.918 147.992 299.744 148.244C299.569 148.496 299.331 148.694 299.055 148.819L291.334 153.35L299.665 158.238C299.899 157.992 300.035 157.666 300.044 157.323Z" fill="black"/>
<path opacity="0.2" d="M300.487 161.582L288.737 168.485C287.996 168.898 287.159 169.101 286.315 169.071V179.004C287.159 179.034 287.996 178.832 288.737 178.418L300.487 171.515C300.765 171.393 301.005 171.195 301.18 170.943C301.354 170.69 301.457 170.394 301.476 170.086V160.152C301.456 160.46 301.353 160.756 301.179 161.009C301.004 161.261 300.765 161.459 300.487 161.582Z" fill="black"/>
<path opacity="0.25" d="M229.44 171.18L222.421 135.534C222.385 135.324 222.369 135.111 222.372 134.898C222.372 135.612 222.372 144.481 222.372 144.903C222.376 145.087 222.392 145.271 222.421 145.453L229.44 181.092C229.486 181.304 229.561 181.509 229.665 181.699V171.766C229.564 171.582 229.488 171.385 229.44 171.18Z" fill="black"/>
<path opacity="0.35" d="M244.068 180.304C243.224 180.329 242.388 180.127 241.646 179.718L232.135 174.129C231.096 173.619 230.234 172.799 229.665 171.778V181.733C230.234 182.754 231.096 183.574 232.135 184.084L241.646 189.673C242.388 190.082 243.224 190.284 244.068 190.259C244.156 190.269 244.246 190.269 244.334 190.259V180.304C244.246 180.314 244.156 180.314 244.068 180.304Z" fill="black"/>
<path opacity="0.2" d="M246.489 179.719C245.829 180.09 245.088 180.284 244.334 180.284V190.217C245.088 190.218 245.829 190.023 246.489 189.652L274.748 173.037V163.104L246.489 179.719Z" fill="black"/>
<path opacity="0.35" d="M283.901 168.485L274.776 163.104V173.037L283.901 178.418C284.639 178.832 285.473 179.035 286.315 179.004V169.071C285.473 169.102 284.639 168.899 283.901 168.485Z" fill="black"/>
<path d="M288.744 168.484C288 168.895 287.161 169.094 286.315 169.063C285.472 169.09 284.637 168.89 283.894 168.484L274.769 163.11L246.51 179.718C245.758 180.099 244.929 180.297 244.089 180.297C243.249 180.297 242.42 180.099 241.667 179.718L232.156 174.129C230.608 173.215 229.711 172.231 229.468 171.178L222.449 135.532C222.312 134.983 222.374 134.402 222.625 133.896C223.037 133.364 223.559 132.933 224.155 132.631L237.694 124.67C238.447 124.285 239.277 124.084 240.12 124.084C240.962 124.084 241.792 124.285 242.545 124.67L276.987 144.915L284.708 140.377C285.46 139.997 286.289 139.798 287.13 139.798C287.97 139.798 288.799 139.997 289.551 140.377L299.055 146.002C299.349 146.102 299.604 146.294 299.786 146.551C299.967 146.807 300.064 147.115 300.064 147.431C300.064 147.747 299.967 148.055 299.786 148.311C299.604 148.567 299.349 148.759 299.055 148.86L291.334 153.398L300.459 158.772C300.749 158.876 301.001 159.07 301.179 159.326C301.358 159.582 301.453 159.888 301.453 160.201C301.453 160.515 301.358 160.821 301.179 161.077C301.001 161.333 300.749 161.527 300.459 161.631L288.744 168.484ZM260.843 154.406L244.334 144.708L247.746 162.102L260.843 154.406Z" fill="#4EA92E"/>
<path d="M195.151 119.176C195.762 116.275 184.131 123.114 183.521 126.015L187.255 136.284C187.39 136.582 187.61 136.831 187.887 136.999C188.708 137.514 191.74 139.257 192 139.422C192.21 139.553 192.447 139.633 192.692 139.658C192.938 139.682 193.185 139.649 193.417 139.562C193.648 139.474 193.856 139.335 194.027 139.153C194.197 138.972 194.325 138.753 194.4 138.514L199.257 121.556C199.566 120.162 195.151 119.176 195.151 119.176Z" fill="#4EA92E"/>
<path opacity="0.25" d="M195.151 119.176C195.762 116.275 184.131 123.114 183.521 126.015L187.255 136.284C187.39 136.582 187.61 136.831 187.887 136.999C188.708 137.514 191.74 139.257 192 139.422C192.21 139.553 192.447 139.633 192.692 139.658C192.938 139.682 193.185 139.649 193.417 139.562C193.648 139.474 193.856 139.335 194.027 139.153C194.197 138.972 194.325 138.753 194.4 138.514L199.257 121.556C199.566 120.162 195.151 119.176 195.151 119.176Z" fill="black"/>
<path d="M231.531 42.2109L134.479 99.217C134.024 99.5178 133.645 99.9237 133.373 100.402C133.101 100.88 132.944 101.417 132.914 101.968V156.28C132.944 156.832 133.101 157.369 133.373 157.847C133.645 158.325 134.024 158.731 134.479 159.032L135.455 159.596C135.939 159.847 136.474 159.977 137.016 159.977C137.559 159.977 138.094 159.847 138.578 159.596L235.637 102.526C236.092 102.223 236.47 101.816 236.741 101.336C237.011 100.857 237.167 100.319 237.196 99.7673V45.5196C237.167 44.9685 237.011 44.4319 236.741 43.9538C236.47 43.4756 236.092 43.0694 235.637 42.7683L234.662 42.2038C234.176 41.9549 233.64 41.8259 233.096 41.8272C232.552 41.8284 232.016 41.9599 231.531 42.2109Z" fill="#4EA92E"/>
<path opacity="0.25" d="M231.531 42.2109L134.479 99.217C134.024 99.5178 133.645 99.9237 133.373 100.402C133.101 100.88 132.944 101.417 132.914 101.968V156.28C132.944 156.832 133.101 157.369 133.373 157.847C133.645 158.325 134.024 158.731 134.479 159.032L135.455 159.596C135.939 159.847 136.474 159.977 137.016 159.977C137.559 159.977 138.094 159.847 138.578 159.596L235.637 102.526C236.092 102.223 236.47 101.816 236.741 101.336C237.011 100.857 237.167 100.319 237.196 99.7673V45.5196C237.167 44.9685 237.011 44.4319 236.741 43.9538C236.47 43.4756 236.092 43.0694 235.637 42.7683L234.662 42.2038C234.176 41.9549 233.64 41.8259 233.096 41.8272C232.552 41.8284 232.016 41.9599 231.531 42.2109Z" fill="black"/>
<path d="M237.203 45.5193V46.141C237.201 45.8835 237.133 45.6309 237.005 45.4085C236.878 45.1861 236.695 45.0016 236.475 44.8736C236.256 44.7456 236.007 44.6784 235.754 44.6789C235.501 44.6793 235.253 44.7473 235.034 44.8761L139.168 101.268C138.511 101.644 137.968 102.195 137.595 102.861V102.911L133.384 100.432C133.65 99.9372 134.037 99.5212 134.507 99.2238L231.559 42.2106C232.045 41.965 232.579 41.8373 233.121 41.8373C233.663 41.8373 234.198 41.965 234.683 42.2106L235.658 42.7751C236.108 43.078 236.483 43.4839 236.751 43.9605C237.019 44.437 237.174 44.9709 237.203 45.5193Z" fill="#4EA92E"/>
<path opacity="0.45" d="M237.203 45.5193V46.141C237.201 45.8835 237.133 45.6309 237.005 45.4085C236.878 45.1861 236.695 45.0016 236.475 44.8736C236.256 44.7456 236.007 44.6784 235.754 44.6789C235.501 44.6793 235.253 44.7473 235.034 44.8761L139.168 101.268C138.511 101.644 137.968 102.195 137.595 102.861V102.911L133.384 100.432C133.65 99.9372 134.037 99.5212 134.507 99.2238L231.559 42.2106C232.045 41.965 232.579 41.8373 233.121 41.8373C233.663 41.8373 234.198 41.965 234.683 42.2106L235.658 42.7751C236.108 43.078 236.483 43.4839 236.751 43.9605C237.019 44.437 237.174 44.9709 237.203 45.5193Z" fill="white"/>
<path d="M235.757 45.2408C235.604 45.2413 235.454 45.2832 235.322 45.3623L139.449 101.761C138.882 102.094 138.411 102.573 138.083 103.15C137.755 103.727 137.582 104.382 137.582 105.048V157.988C137.582 158.288 137.645 158.989 138.213 158.989C138.463 158.977 138.705 158.898 138.915 158.76L188.659 129.517L191.769 138.3C191.901 138.606 192.122 138.863 192.402 139.039C192.681 139.214 193.006 139.299 193.334 139.282C193.662 139.265 193.977 139.147 194.238 138.943C194.498 138.74 194.692 138.461 194.794 138.143L199.005 123.436L234.802 102.397C236.101 101.639 236.676 100.868 236.676 99.9029V46.1412C236.677 46.0196 236.654 45.8991 236.608 45.7869C236.562 45.6748 236.493 45.5735 236.407 45.4892C236.321 45.4049 236.219 45.3394 236.107 45.2967C235.995 45.254 235.876 45.2349 235.757 45.2408Z" fill="white"/>
<path d="M138.213 159.582C137.511 159.582 137.027 158.967 137.027 158.017V105.048C137.029 104.283 137.228 103.531 137.603 102.868C137.979 102.205 138.518 101.653 139.168 101.268L235.041 44.8833C235.253 44.7549 235.496 44.6858 235.743 44.6832C236.112 44.6923 236.464 44.8458 236.726 45.1119C236.987 45.378 237.138 45.7363 237.147 46.1125V99.8742C237.147 101.418 235.911 102.318 234.992 102.861L199.468 123.85L195.32 138.336C195.19 138.769 194.932 139.151 194.581 139.431C194.23 139.71 193.804 139.873 193.36 139.898C192.915 139.923 192.474 139.809 192.095 139.57C191.716 139.332 191.419 138.981 191.242 138.564L188.343 130.389L139.175 159.253C138.889 159.448 138.557 159.562 138.213 159.582ZM235.778 45.8481C235.721 45.8487 235.666 45.8634 235.616 45.891L139.75 102.275C139.267 102.559 138.866 102.968 138.586 103.459C138.307 103.951 138.159 104.509 138.157 105.077V158.017C138.144 158.17 138.176 158.324 138.248 158.46C138.386 158.428 138.519 158.375 138.641 158.302L188.961 128.717L192.281 138.143C192.369 138.337 192.512 138.5 192.693 138.61C192.873 138.72 193.082 138.771 193.292 138.757C193.508 138.747 193.716 138.67 193.888 138.536C194.06 138.402 194.188 138.217 194.253 138.007L198.521 123.093L198.71 122.978L234.507 101.939C235.911 101.118 236.108 100.467 236.108 99.9385V46.1411C236.107 46.096 236.097 46.0516 236.079 46.0105C236.06 45.9695 236.034 45.9328 236.001 45.9026C235.968 45.8725 235.929 45.8495 235.887 45.8352C235.845 45.8209 235.801 45.8156 235.757 45.8195L235.778 45.8481Z" fill="#4EA92E"/>
<path d="M148.433 118.846C148.495 117.123 148.73 115.411 149.135 113.737C149.534 112.059 150.116 110.431 150.869 108.884C151.607 107.38 152.524 105.973 153.599 104.697C154.653 103.447 155.906 102.386 157.305 101.559C158.414 100.836 159.689 100.419 161.004 100.352C162.003 100.322 162.978 100.668 163.742 101.324C164.563 102.079 165.163 103.051 165.475 104.132C165.911 105.519 166.148 106.964 166.177 108.42C166.219 109.678 166.24 111 166.24 112.4C166.24 113.801 166.24 115.109 166.177 116.352C166.115 118.075 165.879 119.788 165.475 121.462C165.078 123.145 164.497 124.778 163.742 126.329C163.012 127.844 162.092 129.257 161.004 130.531C159.949 131.767 158.699 132.815 157.305 133.632C156.197 134.367 154.92 134.796 153.599 134.876C152.601 134.908 151.627 134.558 150.869 133.897C150.049 133.12 149.45 132.132 149.135 131.038C148.7 129.65 148.464 128.206 148.433 126.75C148.398 125.557 148.377 124.263 148.377 122.87C148.377 121.476 148.398 120.133 148.433 118.846ZM160.906 119.218C160.906 118.675 160.948 118.067 160.969 117.403C160.99 116.738 160.969 116.066 160.969 115.38C160.969 114.694 160.969 114.044 160.969 113.415C160.969 112.786 160.927 112.229 160.906 111.736C160.885 111.102 160.786 110.473 160.611 109.863C160.483 109.4 160.241 108.977 159.909 108.634C159.614 108.348 159.222 108.187 158.814 108.184C158.266 108.21 157.735 108.385 157.277 108.691C156.697 109.032 156.18 109.472 155.747 109.992C155.309 110.519 154.94 111.103 154.652 111.729C154.346 112.375 154.11 113.053 153.95 113.751C153.788 114.484 153.687 115.23 153.648 115.981C153.613 116.502 153.585 117.088 153.578 117.732C153.571 118.375 153.578 119.039 153.578 119.725C153.578 120.411 153.578 121.076 153.578 121.719C153.578 122.362 153.578 122.948 153.648 123.463C153.62 124.585 153.966 125.683 154.631 126.579C155.206 127.222 156.082 127.198 157.256 126.507C158.428 125.822 159.347 124.766 159.874 123.499C160.469 122.142 160.818 120.687 160.906 119.204V119.218Z" fill="#455A64"/>
<path d="M183.985 104.219C183.985 104.647 183.985 105.219 183.985 105.912C183.985 106.605 183.985 107.191 183.985 107.649C183.94 109.126 183.731 110.593 183.36 112.022C182.989 113.474 182.464 114.881 181.795 116.217C181.148 117.521 180.341 118.736 179.394 119.833C178.496 120.882 177.437 121.775 176.257 122.477C175.312 123.09 174.23 123.449 173.112 123.521C172.244 123.564 171.39 123.282 170.712 122.727C169.993 122.102 169.454 121.289 169.153 120.376C168.749 119.205 168.536 117.974 168.522 116.732C168.522 116.296 168.522 115.731 168.522 115.031C168.522 114.331 168.522 113.759 168.522 113.301C168.55 111.829 168.751 110.366 169.118 108.942C169.492 107.487 170.022 106.078 170.698 104.74C171.358 103.433 172.169 102.209 173.112 101.096C174.006 100.032 175.069 99.1287 176.257 98.4229C177.199 97.8146 178.28 97.465 179.394 97.4081C180.266 97.3869 181.119 97.6721 181.809 98.2156C182.535 98.8386 183.077 99.6551 183.374 100.574C183.764 101.749 183.97 102.979 183.985 104.219ZM173.639 113.509C173.695 114.609 173.954 115.338 174.418 115.703C174.881 116.067 175.499 116.024 176.257 115.581C177.05 115.1 177.687 114.391 178.089 113.544C178.567 112.578 178.833 111.517 178.868 110.436C178.903 109.971 178.924 109.457 178.924 108.892C178.924 108.328 178.924 107.835 178.868 107.406C178.812 106.315 178.552 105.586 178.089 105.219C177.625 104.855 177.015 104.89 176.257 105.34C175.465 105.823 174.826 106.528 174.418 107.37C173.94 108.339 173.675 109.402 173.639 110.486C173.604 110.95 173.582 111.465 173.582 112.029C173.582 112.594 173.604 113.08 173.639 113.502V113.509Z" fill="#455A64"/>
<path d="M195.58 111.122C195.133 111.403 194.641 111.601 194.127 111.708C193.771 111.785 193.403 111.785 193.046 111.708C192.763 111.628 192.502 111.483 192.281 111.286C192.088 111.12 191.916 110.931 191.769 110.722V120.212C191.764 120.551 191.687 120.885 191.544 121.191C191.437 121.467 191.248 121.702 191.004 121.863L187.424 124.007C187.344 124.067 187.245 124.096 187.146 124.088C187.047 124.08 186.953 124.036 186.883 123.964C186.799 123.867 186.734 123.754 186.695 123.631C186.655 123.508 186.64 123.378 186.652 123.249V93.9567C186.656 93.6168 186.735 93.2821 186.883 92.9776C186.991 92.7021 187.18 92.4673 187.424 92.3059L190.863 90.2835C190.943 90.2233 191.042 90.1945 191.141 90.2024C191.241 90.2102 191.334 90.2542 191.404 90.3263C191.486 90.4241 191.548 90.5378 191.587 90.6605C191.626 90.7833 191.64 90.9126 191.628 91.041V92.07C191.797 91.6698 191.986 91.2482 192.183 90.8051C192.386 90.3483 192.633 89.9127 192.92 89.5045C193.24 89.051 193.602 88.6298 194.001 88.2468C194.479 87.7934 195.01 87.3999 195.58 87.0748C196.312 86.6162 197.139 86.3351 197.995 86.2529C198.356 86.2276 198.719 86.278 199.06 86.4009C199.402 86.5238 199.715 86.7167 199.981 86.9676C200.643 87.6208 201.127 88.4385 201.385 89.3402C201.776 90.705 201.973 92.1203 201.967 93.5422C201.967 93.971 201.967 94.5712 201.967 95.3288C201.967 96.0863 201.967 96.6937 201.967 97.1511C201.943 98.7945 201.748 100.431 201.385 102.032C201.06 103.411 200.589 104.751 199.981 106.027C199.461 107.137 198.792 108.169 197.995 109.093C197.299 109.893 196.484 110.578 195.58 111.122ZM196.857 99.588C196.914 98.7576 196.914 97.9243 196.857 97.0939C196.855 96.2709 196.629 95.4647 196.205 94.7642C195.826 94.2139 195.187 94.1996 194.296 94.7213C193.883 94.9685 193.519 95.2906 193.222 95.6718C192.918 96.0598 192.664 96.4847 192.464 96.9367C192.267 97.3979 192.112 97.8763 192 98.3659C191.884 98.8349 191.806 99.313 191.769 99.7952C191.734 100.26 191.713 100.796 191.713 101.389C191.713 101.982 191.713 102.489 191.769 102.911C191.798 103.305 191.876 103.694 192 104.069C192.096 104.386 192.253 104.68 192.464 104.933C192.66 105.153 192.931 105.288 193.222 105.312C193.603 105.318 193.978 105.206 194.296 104.991C195.175 104.482 195.851 103.675 196.205 102.711C196.585 101.712 196.806 100.658 196.857 99.588Z" fill="#455A64"/>
<path d="M213.022 93.4684C213.022 93.1397 212.952 92.9325 212.812 92.8324C212.586 92.7431 212.336 92.7431 212.11 92.8324C211.65 92.9505 211.198 93.0961 210.755 93.2683C210.201 93.4756 209.506 93.7114 208.65 93.983C207.208 94.4118 206.099 94.2307 205.323 93.4398C204.543 92.6538 204.157 91.2459 204.157 89.2307C204.163 88.1801 204.326 87.1366 204.642 86.1363C204.974 85.0651 205.426 84.0363 205.989 83.0706C206.582 82.0675 207.289 81.1392 208.095 80.3049C208.905 79.4674 209.824 78.7462 210.825 78.161C211.658 77.6368 212.583 77.2824 213.549 77.1177C214.271 76.9861 215.014 77.0401 215.711 77.2749C216.291 77.4928 216.785 77.8998 217.115 78.4326C217.473 79.0039 217.675 79.6629 217.697 80.3407C217.713 80.6779 217.641 81.0135 217.487 81.3126C217.377 81.6023 217.184 81.8515 216.932 82.0272L213.549 84.0139C213.338 84.1353 213.177 84.1639 213.051 84.0853C212.911 83.9989 212.765 83.9225 212.615 83.8566C212.404 83.7705 212.175 83.7363 211.949 83.7566C211.536 83.8201 211.143 83.9764 210.797 84.214C210.379 84.452 210.008 84.767 209.702 85.143C209.418 85.4815 209.261 85.9122 209.26 86.3578C209.233 86.6051 209.282 86.855 209.401 87.0725C209.499 87.1916 209.688 87.2202 209.969 87.1582C210.373 87.0583 210.771 86.9366 211.162 86.7938C211.675 86.608 212.349 86.3793 213.184 86.0791C214.904 85.5146 216.16 85.6861 216.946 86.608C217.81 87.7678 218.229 89.2083 218.125 90.6599C218.118 91.715 217.955 92.763 217.641 93.7686C217.305 94.8749 216.833 95.9337 216.237 96.9201C215.593 97.9806 214.829 98.9615 213.963 99.8429C213.055 100.763 212.034 101.558 210.924 102.208C210.008 102.789 208.99 103.182 207.927 103.366C207.192 103.49 206.438 103.4 205.751 103.109C205.181 102.847 204.708 102.406 204.403 101.851C204.083 101.279 203.902 100.637 203.877 99.9787C203.86 99.6414 203.933 99.3056 204.087 99.0068C204.197 98.717 204.39 98.4679 204.642 98.2922L208.151 96.2198C208.362 96.0983 208.509 96.0911 208.607 96.2198C208.715 96.3404 208.838 96.4461 208.972 96.5342C209.17 96.6519 209.398 96.7044 209.625 96.6843C210.086 96.6195 210.526 96.4457 210.91 96.1769C211.463 95.8537 211.961 95.441 212.384 94.9549C212.78 94.5637 213.009 94.03 213.022 93.4684Z" fill="#455A64"/>
<path d="M225.86 82.1108C225.855 82.4498 225.778 82.7837 225.635 83.0898C225.528 83.3654 225.339 83.6001 225.095 83.7616L221.515 85.8697C221.435 85.9299 221.336 85.9587 221.237 85.9509C221.138 85.943 221.045 85.899 220.975 85.8269C220.891 85.73 220.828 85.6164 220.789 85.4935C220.75 85.3705 220.737 85.2407 220.75 85.1122V65.9172C220.751 65.5777 220.828 65.2429 220.975 64.9382C221.082 64.6626 221.271 64.4279 221.515 64.2664L225.095 62.1225C225.175 62.0624 225.274 62.0336 225.373 62.0414C225.472 62.0493 225.565 62.0933 225.635 62.1654C225.718 62.263 225.781 62.3766 225.819 62.4994C225.858 62.6222 225.872 62.7517 225.86 62.8801V82.1108ZM225.86 91.6868C225.856 92.0259 225.779 92.3601 225.635 92.6659C225.528 92.9415 225.339 93.1762 225.095 93.3376L221.515 95.4458C221.435 95.506 221.336 95.5348 221.237 95.5269C221.138 95.519 221.045 95.475 220.975 95.4029C220.89 95.3063 220.827 95.1928 220.788 95.0697C220.75 94.9467 220.737 94.8168 220.75 94.6883V90.1861C220.751 89.8466 220.828 89.5118 220.975 89.2071C221.082 88.9315 221.271 88.6968 221.515 88.5353L225.095 86.3914C225.175 86.3312 225.274 86.3024 225.373 86.3103C225.472 86.3182 225.565 86.3622 225.635 86.4343C225.718 86.5321 225.78 86.6457 225.819 86.7685C225.857 86.8912 225.871 87.0206 225.86 87.1489V91.6868Z" fill="#455A64"/>
<path d="M88.022 114.757C88.5451 115.792 88.9322 116.892 89.1731 118.03C89.6925 120.846 88.6958 123.683 88.1413 126.484C87.9588 127.435 87.8956 128.306 88.5625 129.05C88.6218 129.132 88.7004 129.198 88.791 129.242C88.8817 129.285 88.9817 129.305 89.0819 129.3C89.2503 129.257 89.3626 129.085 89.4539 128.935C90.1161 127.782 90.6438 126.554 91.0261 125.276C91.1024 126.485 91.0625 127.699 90.9068 128.9C90.702 129.841 90.702 130.817 90.9068 131.758C91.2016 132.673 92.2123 133.409 93.0125 132.959C93.5053 132.578 93.8387 132.021 93.9461 131.401L94.5988 129.257C94.9189 128.261 95.1837 127.247 95.392 126.22C95.7257 124.369 95.6973 122.469 95.3082 120.63C94.9192 118.79 94.1772 117.047 93.1248 115.5C92.6166 114.669 91.8862 114.002 91.0191 113.578C90.6105 113.413 90.1713 113.34 89.7323 113.366C89.2934 113.392 88.8653 113.516 88.4782 113.728C87.9378 114.028 87.7623 114.221 88.022 114.757Z" fill="#F28F8F"/>
<path d="M97.0059 119.675C96.7041 115.923 96.5778 111.992 95.8899 108.441C95.2021 104.889 93.7421 91.2323 93.0823 87.4376C92.219 82.4352 91.0468 79.3051 90.3308 76.2107C89.5237 72.7519 88.8498 68.021 87.425 60.4888C86.0001 52.9566 84.2523 48.7403 80.5954 46.3106C77.9028 44.4506 74.7245 43.4549 71.4707 43.452C70.6424 45.7674 71.4075 53.8714 71.4075 53.8714C71.4075 53.8714 74.917 71.1511 75.2961 73.2736C75.6751 75.396 79.4303 85.1079 81.9431 93.0117C83.382 97.5496 85.5579 103.931 85.5579 103.931C86.2177 106.754 86.4493 107.654 85.8948 109.891C85.6632 110.835 85.2912 111.735 85.0595 112.678C84.8073 113.707 84.6522 114.757 84.5963 115.816C84.5612 116.53 84.5963 117.245 84.5331 117.959C84.4699 119.282 84.2594 120.596 84.1049 121.911C83.9997 122.876 84.5471 123.469 85.5088 123.169C86.2029 122.898 86.7683 122.366 87.088 121.683C87.491 120.715 87.7717 119.699 87.9233 118.66C88.0356 118.167 88.6252 115.201 89.5447 116.009C90.3308 116.687 91.1661 119.003 92.1979 120.575C92.7564 121.266 93.1692 122.067 93.4107 122.928C93.6522 123.788 93.7172 124.69 93.6017 125.577C93.4262 127.971 92.3032 131.173 92.6822 133.195C93.0612 135.218 94.1702 135.654 94.5703 134.818C94.9704 133.982 96.1847 129.101 96.5918 127.407C97.1446 124.87 97.2845 122.258 97.0059 119.675Z" fill="#FFA8A7"/>
<path d="M87.902 117.016C92.1766 118.931 97.5041 119.975 99.8344 129.265C102.165 138.555 104.923 172.693 104.923 172.693C103.812 174.12 102.392 175.266 100.774 176.042C99.1555 176.818 97.3832 177.203 95.5949 177.167L95.9739 186.907C95.9739 186.907 89.727 189.966 80.4197 187.572C75.9065 186.414 73.127 182.212 73.127 182.212C73.127 182.212 74.1868 154.649 74.9238 144.122C75.6608 133.596 76.6014 111.878 87.902 117.016Z" fill="#455A64"/>
<path d="M94.0862 139.675C94.0862 139.675 95.2233 167.545 95.5953 177.164C96.6341 177.165 97.669 177.036 98.6767 176.778L94.0862 139.675Z" fill="#37474F"/>
<path d="M84.5189 117.937C84.4557 119.259 84.2452 120.574 84.0907 121.889C83.9855 122.854 84.5329 123.447 85.4946 123.147C86.1887 122.876 86.7541 122.344 87.0738 121.661C87.4768 120.693 87.7575 119.677 87.9091 118.638C87.9933 118.259 88.3513 116.437 88.9339 115.965L84.5891 115.801C84.547 116.508 84.554 117.223 84.5189 117.937ZM88.9269 115.965H89.5235C89.4834 115.925 89.436 115.895 89.384 115.874C89.3319 115.854 89.2764 115.844 89.2207 115.846C89.165 115.848 89.1102 115.862 89.0597 115.886C89.0093 115.91 88.9641 115.944 88.9269 115.986V115.965Z" fill="#FFA8A7"/>
<path d="M75.4019 42.9443C82.3296 45.8457 84.5266 48.1826 85.8672 52.4561C87.2079 56.7296 89.3206 67.5348 90.0155 72.2299C90.7104 76.925 92.4511 81.1485 93.4197 87.2872C94.3884 93.4259 95.343 102.409 95.343 102.409C95.343 102.409 94.0865 104.052 90.2963 104.281C86.506 104.51 84.5336 103.116 84.5336 103.116C84.5336 103.116 80.5047 90.8603 78.9816 86.7655C77.4584 82.6707 73.97 72.4729 73.97 72.4729L75.4019 42.9443Z" fill="#E6E6E6"/>
<path d="M16.1326 213.503L20.7581 214.947L21.453 211.552L17.6627 211.917L16.1326 213.503Z" fill="black"/>
<path d="M17.3959 204.011C17.3959 204.011 15.4586 206.276 14.862 206.998C14.2654 207.72 15.6411 212.508 16.1254 213.501L17.6556 211.915C17.81 213.123 17.5573 214.309 17.3116 216.16C17.1081 217.696 16.35 220.319 16.9677 222.999C17.8872 226.979 20.9405 231.024 24.7518 234.24C28.5632 237.456 31.5392 238.227 33.308 238.242C35.0768 238.256 36.1929 237.527 36.6772 236.284C37.1615 235.04 17.3959 204.011 17.3959 204.011Z" fill="#263238"/>
<path d="M34.0168 204.112L35.1117 202.768C35.8487 203.311 34.4098 205.377 34.1501 207.956C33.6961 211.777 33.7267 215.642 34.2414 219.455C35.4276 226.251 37.2175 231.346 37.7509 234.391C38.4528 238.471 31.6092 238.736 25.4957 233.362C22.4564 230.689 18.0485 224.65 17.9081 221.499C17.7677 218.347 19.0452 214.61 18.8205 212.209C18.5959 209.807 16.9394 206.291 17.4167 203.99C17.6835 202.725 19.5225 200.746 21.193 199.109C22.7021 197.616 24.0006 194.378 24.7516 195.315L24.1901 196.429C24.0146 197.466 24.6814 199.874 26.9065 202.318C28.0015 203.561 31.7286 206.663 34.0168 204.112Z" fill="#455A64"/>
<path opacity="0.15" d="M28.8932 204.018C30.1988 204.869 31.8202 205.483 33.1819 204.768C33.1819 204.768 33.217 204.768 33.231 204.768C32.8003 205.191 32.4702 205.708 32.2658 206.28C32.0614 206.852 31.9882 207.465 32.0518 208.07C32.1641 210.328 32.122 225.593 32.122 225.593C32.122 225.593 31.4201 212.401 31.2306 209.871C30.9919 206.169 30.5848 205.44 28.8862 204.011L28.8932 204.018Z" fill="black"/>
<path d="M37.7507 234.391C37.3155 231.818 35.9679 227.78 34.8448 222.492C34.6904 224.129 35.0343 225.758 34.8448 226.201C34.4167 227.302 30.837 226.494 28.9067 225.672C26.9765 224.85 26.9344 221.092 26.1693 217.097C25.4042 213.102 21.4595 213.967 18.4484 216.303C18.095 218 17.9185 219.729 17.9219 221.463C18.0623 224.615 22.4703 230.653 25.5095 233.326C31.595 238.736 38.4526 238.471 37.7507 234.391Z" fill="#37474F"/>
<path opacity="0.15" d="M28.563 207.815C28.4939 207.884 28.4063 207.931 28.3113 207.95C28.2162 207.968 28.118 207.957 28.0288 207.919C27.9396 207.881 27.8634 207.817 27.8099 207.735C27.7563 207.653 27.7278 207.556 27.7278 207.458C27.7278 207.359 27.7563 207.263 27.8099 207.181C27.8634 207.099 27.9396 207.035 28.0288 206.996C28.118 206.958 28.2162 206.948 28.3113 206.966C28.4063 206.985 28.4939 207.031 28.563 207.1C28.6097 207.147 28.6468 207.203 28.6721 207.264C28.6974 207.325 28.7104 207.391 28.7104 207.458C28.7104 207.524 28.6974 207.59 28.6721 207.652C28.6468 207.713 28.6097 207.769 28.563 207.815Z" fill="black"/>
<path opacity="0.15" d="M28.844 211.416C28.7749 211.485 28.6873 211.532 28.5923 211.55C28.4973 211.569 28.399 211.558 28.3098 211.52C28.2206 211.482 28.1444 211.418 28.0909 211.336C28.0374 211.253 28.0088 211.157 28.0088 211.059C28.0088 210.96 28.0374 210.864 28.0909 210.781C28.1444 210.699 28.2206 210.635 28.3098 210.597C28.399 210.559 28.4973 210.548 28.5923 210.567C28.6873 210.585 28.7749 210.632 28.844 210.701C28.8907 210.748 28.9278 210.803 28.9531 210.865C28.9784 210.926 28.9915 210.992 28.9915 211.059C28.9915 211.125 28.9784 211.191 28.9531 211.252C28.9278 211.314 28.8907 211.369 28.844 211.416Z" fill="black"/>
<path opacity="0.15" d="M29.1249 215.018C29.0788 215.065 29.0241 215.102 28.9638 215.127C28.9036 215.153 28.8391 215.166 28.7739 215.166C28.7087 215.166 28.6442 215.153 28.584 215.127C28.5238 215.102 28.469 215.065 28.423 215.018C28.3769 214.971 28.3403 214.915 28.3154 214.854C28.2904 214.792 28.2776 214.726 28.2776 214.66C28.2776 214.594 28.2904 214.528 28.3154 214.467C28.3403 214.405 28.3769 214.349 28.423 214.303C28.5163 214.208 28.6424 214.155 28.7739 214.155C28.9054 214.155 29.0315 214.208 29.1249 214.303C29.1716 214.349 29.2086 214.405 29.234 214.466C29.2593 214.528 29.2723 214.593 29.2723 214.66C29.2723 214.727 29.2593 214.793 29.234 214.854C29.2086 214.915 29.1716 214.971 29.1249 215.018Z" fill="black"/>
<path opacity="0.15" d="M29.4124 218.619C29.319 218.713 29.1929 218.766 29.0614 218.766C28.9299 218.766 28.8038 218.713 28.7105 218.619C28.6638 218.573 28.6267 218.517 28.6014 218.456C28.576 218.394 28.563 218.328 28.563 218.262C28.563 218.195 28.576 218.129 28.6014 218.068C28.6267 218.006 28.6638 217.951 28.7105 217.904C28.8035 217.809 28.9298 217.756 29.0614 217.756C29.193 217.756 29.3193 217.809 29.4124 217.904C29.5054 217.999 29.5577 218.128 29.5577 218.262C29.5577 218.396 29.5054 218.524 29.4124 218.619Z" fill="black"/>
<path opacity="0.15" d="M29.6931 222.228C29.5998 222.323 29.4736 222.376 29.3422 222.376C29.2107 222.376 29.0846 222.323 28.9912 222.228C28.9445 222.182 28.9074 222.126 28.8821 222.065C28.8568 222.003 28.8438 221.937 28.8438 221.871C28.8438 221.804 28.8568 221.738 28.8821 221.677C28.9074 221.616 28.9445 221.56 28.9912 221.513C29.0868 221.432 29.2086 221.39 29.3329 221.396C29.4572 221.402 29.5748 221.455 29.6628 221.544C29.7507 221.634 29.8026 221.754 29.8082 221.88C29.8139 222.007 29.7728 222.131 29.6931 222.228Z" fill="black"/>
<path d="M28.0789 207.615C28.06 207.601 28.0445 207.583 28.0335 207.562C28.0226 207.541 28.0165 207.518 28.0157 207.494C28.0117 207.467 28.013 207.441 28.0193 207.415C28.0257 207.389 28.037 207.365 28.0527 207.343C28.0684 207.322 28.0881 207.304 28.1107 207.291C28.1333 207.277 28.1582 207.268 28.1842 207.265C28.3245 207.265 31.6024 206.879 33.9538 208.952C33.9938 208.987 34.0185 209.037 34.0225 209.091C34.0264 209.145 34.0093 209.198 33.9749 209.238C33.9404 209.279 33.8915 209.304 33.8388 209.308C33.7862 209.312 33.7341 209.295 33.6941 209.26C31.4761 207.301 28.2684 207.665 28.2333 207.665C28.2055 207.672 28.1764 207.671 28.1491 207.663C28.1219 207.654 28.0975 207.637 28.0789 207.615Z" fill="#263238"/>
<path d="M28.3669 211.217C28.3485 211.201 28.3335 211.182 28.3226 211.159C28.3118 211.137 28.3054 211.113 28.3037 211.089C28.2998 211.063 28.3011 211.036 28.3075 211.011C28.314 210.985 28.3254 210.962 28.3412 210.941C28.3569 210.92 28.3767 210.903 28.3992 210.89C28.4217 210.877 28.4466 210.87 28.4722 210.867C28.6126 210.867 31.8905 210.474 34.2419 212.547C34.2819 212.582 34.3066 212.632 34.3105 212.686C34.3145 212.74 34.2973 212.793 34.2629 212.833C34.2285 212.874 34.1795 212.899 34.1269 212.903C34.0742 212.907 34.0222 212.89 33.9821 212.855C31.7641 210.896 28.5564 211.26 28.5213 211.267C28.4936 211.271 28.4655 211.268 28.4388 211.259C28.4122 211.251 28.3877 211.236 28.3669 211.217Z" fill="#263238"/>
<path d="M28.6267 214.826C28.5922 214.791 28.5699 214.746 28.5635 214.697C28.5596 214.671 28.5609 214.644 28.5673 214.619C28.5737 214.594 28.5852 214.57 28.6009 214.549C28.6167 214.528 28.6365 214.511 28.659 214.498C28.6815 214.486 28.7063 214.478 28.732 214.475C28.8724 214.475 32.1502 214.082 34.5016 216.156C34.5416 216.191 34.5663 216.24 34.5703 216.294C34.5742 216.348 34.5571 216.401 34.5227 216.442C34.4882 216.482 34.4393 216.508 34.3867 216.512C34.334 216.516 34.2819 216.498 34.2419 216.463C32.0239 214.504 28.8162 214.868 28.7811 214.876C28.7534 214.878 28.7254 214.876 28.6988 214.867C28.6722 214.858 28.6477 214.844 28.6267 214.826Z" fill="#263238"/>
<path d="M28.9212 218.426C28.8867 218.392 28.8644 218.346 28.858 218.297C28.852 218.245 28.8663 218.193 28.8978 218.152C28.9293 218.11 28.9755 218.083 29.0265 218.076C29.1669 218.076 32.4448 217.682 34.7961 219.756C34.8322 219.795 34.8523 219.846 34.8523 219.899C34.8523 219.952 34.8322 220.004 34.7961 220.042C34.7778 220.061 34.756 220.076 34.7319 220.087C34.7078 220.097 34.6819 220.102 34.6558 220.102C34.6296 220.102 34.6037 220.097 34.5796 220.087C34.5555 220.076 34.5337 220.061 34.5154 220.042C32.2974 218.083 29.0897 218.448 29.0546 218.455C29.0082 218.461 28.9611 218.451 28.9212 218.426Z" fill="#263238"/>
<path d="M29.2015 222.029C29.167 221.994 29.1448 221.949 29.1384 221.9C29.1344 221.873 29.1359 221.846 29.1428 221.82C29.1497 221.795 29.1617 221.77 29.1782 221.75C29.1947 221.729 29.2153 221.712 29.2387 221.699C29.262 221.687 29.2876 221.68 29.3139 221.678C29.4472 221.678 32.7251 221.285 35.0765 223.359C35.1121 223.396 35.132 223.446 35.132 223.498C35.132 223.55 35.1121 223.6 35.0765 223.637C35.0582 223.656 35.0363 223.672 35.0122 223.682C34.9881 223.692 34.9622 223.698 34.9361 223.698C34.91 223.698 34.8841 223.692 34.86 223.682C34.8359 223.672 34.814 223.656 34.7957 223.637C32.5847 221.685 29.37 222.043 29.3349 222.05C29.2894 222.059 29.2423 222.051 29.2015 222.029Z" fill="#263238"/>
<path d="M81.1008 99.9062C81.1008 99.9062 81.6062 108.832 81.171 127.391C80.806 142.92 82.4906 150.974 76.37 160.864C70.9022 169.69 36.7756 203.406 34.3119 206.465C34.3119 206.465 23.5096 207.465 22.9832 196.196C22.9832 196.196 33.0414 177.908 37.7863 167.539C42.5312 157.17 49.0168 152.196 49.0168 152.196L40.1517 106.988L81.1008 99.9062Z" fill="#263238"/>
<path d="M43.9206 106.337L40.1724 106.98V107.145L48.7146 150.737L49.0024 151.83H48.9322L49.0024 152.166C49.0024 152.166 44.3909 155.739 40.0952 163.057C41.6113 167.002 44.5874 173.877 44.5874 173.877C44.8541 174.942 41.8359 179.301 43.5556 192.421C43.6819 193.365 43.9066 194.737 44.1663 196.216C51.8451 188.312 62.3175 177.557 69.3365 169.589C69.6805 167.538 70.7403 160.785 70.1227 155.625C69.505 150.465 67.2308 125.153 67.2308 125.153C69.4271 123.755 71.35 121.955 72.9022 119.844C74.2156 118.129 75.1213 116.128 75.5484 113.998C76.7279 110.611 77.7008 107.152 78.4613 103.643L43.9206 106.337Z" fill="black"/>
<path d="M57.3899 250.566L61.9874 249.029L60.6397 245.849L57.7408 248.365L57.3899 250.566Z" fill="black"/>
<path d="M53.0664 242.044C53.0664 242.044 52.7576 245.038 52.6804 245.982C52.6031 246.925 56.4285 250.034 57.3901 250.563L57.7411 248.362C58.5553 249.262 59.0115 250.377 59.8468 252.035C60.5487 253.414 61.412 256.008 63.4335 257.83C66.4306 260.546 71.2176 262.068 76.145 262.468C81.0724 262.869 83.9572 261.754 85.4101 260.725C86.8631 259.696 87.3544 258.438 87.0596 257.151C86.7648 255.865 53.0664 242.044 53.0664 242.044Z" fill="#263238"/>
<path d="M66.7118 232.4L66.8451 230.663C67.7576 230.663 67.7576 233.2 68.993 235.465C70.6565 238.517 73.1202 242.355 75.5628 244.82C80.3708 249.687 84.6875 252.802 86.8634 254.989C89.7412 257.919 84.2945 262.136 76.2577 261.328C72.2638 260.921 65.2448 258.562 63.3497 256.068C61.4545 253.574 60.3806 249.765 58.8575 247.95C57.3343 246.135 53.9441 244.22 53.0668 242.047C52.5684 240.861 52.9755 238.153 53.3967 235.851C53.7897 233.708 52.9966 230.349 54.1617 230.663L54.3372 231.899C54.7794 232.85 56.6745 234.429 59.8822 235.13C61.4826 235.473 66.2766 235.83 66.7118 232.4Z" fill="#455A64"/>
<path opacity="0.15" d="M62.4655 235.335C64.0097 235.263 65.6943 234.82 66.3962 233.434V233.391C66.2813 233.988 66.3025 234.604 66.4583 235.191C66.614 235.778 66.9002 236.321 67.2946 236.778C68.6984 238.558 77.2617 251.071 77.2617 251.071C77.2617 251.071 69.2108 240.716 67.6596 238.765C65.3784 235.906 64.6274 235.52 62.4304 235.342L62.4655 235.335Z" fill="black"/>
<path d="M86.8845 254.986C85.0736 253.135 81.6904 250.627 77.7598 246.961C78.5669 248.39 79.7672 249.519 79.8655 249.984C80.1322 251.134 76.749 252.571 74.7065 253.028C72.6639 253.485 70.4951 250.441 67.6383 247.647C64.7816 244.853 62.0231 247.847 60.8579 251.534C61.5272 253.129 62.3601 254.648 63.3426 256.065C65.2378 258.559 72.2568 260.917 76.2507 261.325C84.2945 262.132 89.7412 257.916 86.8845 254.986Z" fill="#37474F"/>
<path opacity="0.15" d="M64.3464 238.621C64.3269 238.753 64.2567 238.871 64.1514 238.951C64.0461 239.03 63.9143 239.063 63.7849 239.043C63.6555 239.023 63.5392 238.952 63.4615 238.844C63.3839 238.737 63.3512 238.603 63.3708 238.471C63.3793 238.405 63.4007 238.342 63.4338 238.285C63.467 238.228 63.511 238.178 63.5635 238.138C63.6159 238.099 63.6756 238.071 63.739 238.055C63.8023 238.04 63.8681 238.038 63.9323 238.049C64.0611 238.07 64.1766 238.142 64.254 238.249C64.3314 238.356 64.3646 238.49 64.3464 238.621Z" fill="black"/>
<path opacity="0.15" d="M66.6064 241.405C66.5978 241.471 66.5764 241.534 66.5433 241.591C66.5102 241.648 66.4661 241.698 66.4137 241.737C66.3612 241.777 66.3015 241.805 66.2382 241.82C66.1748 241.836 66.109 241.838 66.0448 241.827C65.949 241.812 65.8597 241.768 65.7882 241.701C65.7167 241.634 65.6662 241.547 65.6431 241.451C65.6199 241.356 65.6252 241.255 65.6582 241.162C65.6913 241.069 65.7505 240.988 65.8286 240.929C65.9067 240.871 66 240.837 66.0969 240.832C66.1938 240.828 66.2899 240.852 66.3731 240.903C66.4563 240.954 66.5228 241.029 66.5643 241.118C66.6058 241.207 66.6204 241.307 66.6064 241.405Z" fill="black"/>
<path opacity="0.15" d="M68.8736 244.191C68.8531 244.323 68.7821 244.441 68.6761 244.519C68.5701 244.598 68.4379 244.63 68.3085 244.609C68.1792 244.588 68.0632 244.516 67.9862 244.408C67.9092 244.3 67.8774 244.166 67.8979 244.034C67.9203 243.902 67.9922 243.784 68.0983 243.706C68.2044 243.627 68.3365 243.593 68.4665 243.612C68.5307 243.622 68.5923 243.646 68.6476 243.68C68.703 243.715 68.751 243.761 68.7888 243.815C68.8267 243.869 68.8537 243.93 68.8682 243.994C68.8828 244.059 68.8846 244.126 68.8736 244.191Z" fill="black"/>
<path opacity="0.15" d="M71.1407 246.97C71.1202 247.102 71.0492 247.22 70.9432 247.299C70.8372 247.377 70.705 247.41 70.5756 247.389C70.4463 247.368 70.3303 247.296 70.2533 247.188C70.1763 247.08 70.1445 246.945 70.165 246.813C70.1751 246.748 70.1978 246.685 70.2317 246.629C70.2656 246.573 70.31 246.524 70.3625 246.485C70.415 246.446 70.4744 246.418 70.5375 246.403C70.6006 246.387 70.666 246.385 70.7301 246.395C70.7941 246.405 70.8556 246.428 70.9109 246.463C70.9662 246.497 71.0143 246.543 71.0524 246.596C71.0905 246.649 71.1179 246.71 71.1331 246.774C71.1482 246.839 71.1508 246.905 71.1407 246.97Z" fill="black"/>
<path opacity="0.15" d="M73.4075 249.748C73.3926 249.846 73.3497 249.937 73.2841 250.009C73.2186 250.082 73.1333 250.134 73.0391 250.157C72.9449 250.181 72.846 250.175 72.7548 250.142C72.6636 250.108 72.5842 250.048 72.5266 249.968C72.469 249.889 72.4358 249.794 72.4312 249.695C72.4266 249.596 72.4508 249.498 72.5007 249.413C72.5506 249.329 72.6241 249.261 72.7117 249.219C72.7994 249.176 72.8974 249.161 72.9934 249.176C73.0576 249.185 73.1192 249.208 73.1749 249.242C73.2305 249.276 73.2789 249.321 73.3174 249.374C73.3559 249.427 73.3837 249.488 73.3992 249.552C73.4146 249.616 73.4175 249.683 73.4075 249.748Z" fill="black"/>
<path d="M63.8336 238.752C63.7839 238.746 63.7385 238.72 63.7073 238.68C63.6712 238.642 63.6511 238.59 63.6511 238.537C63.6511 238.484 63.6712 238.433 63.7073 238.394C63.8126 238.301 66.2833 236.077 69.3786 236.392C69.4045 236.395 69.4296 236.403 69.4525 236.415C69.4753 236.428 69.4955 236.445 69.5118 236.466C69.5281 236.486 69.5403 236.51 69.5475 236.535C69.5548 236.561 69.557 236.587 69.5541 236.614C69.5488 236.667 69.523 236.717 69.4824 236.752C69.4418 236.786 69.3894 236.804 69.3365 236.8C66.4166 236.499 63.9951 238.673 63.974 238.695C63.9351 238.73 63.8855 238.75 63.8336 238.752Z" fill="#263238"/>
<path d="M66.1012 241.516C66.0767 241.516 66.0526 241.51 66.0308 241.499C66.0089 241.488 65.9897 241.472 65.9749 241.452C65.9388 241.413 65.9187 241.362 65.9187 241.309C65.9187 241.256 65.9388 241.205 65.9749 241.166C66.0801 241.073 68.5508 238.849 71.6462 239.164C71.6721 239.166 71.6972 239.174 71.7201 239.187C71.7429 239.2 71.7631 239.217 71.7794 239.237C71.7957 239.258 71.8079 239.282 71.8151 239.307C71.8224 239.332 71.8246 239.359 71.8217 239.385C71.8164 239.439 71.7907 239.489 71.75 239.523C71.7094 239.558 71.657 239.575 71.6041 239.571C68.6912 239.271 66.2626 241.445 66.2416 241.466C66.2229 241.484 66.2008 241.498 66.1766 241.507C66.1524 241.515 66.1267 241.519 66.1012 241.516Z" fill="#263238"/>
<path d="M68.361 244.313C68.315 244.307 68.2727 244.284 68.2416 244.249C68.2221 244.23 68.2064 244.208 68.1957 244.184C68.185 244.159 68.1794 244.133 68.1794 244.106C68.1794 244.079 68.185 244.052 68.1957 244.027C68.2064 244.003 68.2221 243.981 68.2416 243.963C68.3469 243.87 70.8106 241.639 73.906 241.96C73.9581 241.966 74.0059 241.993 74.0388 242.034C74.0717 242.076 74.0871 242.129 74.0815 242.182C74.0759 242.235 74.0498 242.284 74.009 242.317C73.9682 242.351 73.916 242.367 73.8639 242.361C70.944 242.061 68.5224 244.241 68.5013 244.263C68.4624 244.297 68.4123 244.315 68.361 244.313Z" fill="#263238"/>
<path d="M70.6283 247.091C70.5823 247.084 70.54 247.061 70.5089 247.026C70.4903 247.008 70.4754 246.985 70.4653 246.961C70.4552 246.936 70.45 246.91 70.45 246.883C70.45 246.857 70.4552 246.83 70.4653 246.806C70.4754 246.781 70.4903 246.759 70.5089 246.74C70.6072 246.647 73.0779 244.416 76.1733 244.738C76.2243 244.745 76.2705 244.772 76.302 244.814C76.3335 244.855 76.3477 244.908 76.3417 244.96C76.3401 244.987 76.333 245.013 76.3209 245.036C76.3088 245.06 76.292 245.081 76.2716 245.098C76.2511 245.115 76.2274 245.127 76.2021 245.134C76.1767 245.141 76.1502 245.143 76.1242 245.139C73.2113 244.838 70.7897 247.019 70.7616 247.041C70.7438 247.058 70.7228 247.071 70.6999 247.079C70.677 247.088 70.6527 247.092 70.6283 247.091Z" fill="#263238"/>
<path d="M72.8956 249.871C72.8712 249.871 72.8471 249.865 72.8252 249.854C72.8033 249.843 72.7842 249.827 72.7693 249.807C72.7332 249.768 72.7131 249.717 72.7131 249.664C72.7131 249.611 72.7332 249.559 72.7693 249.521C72.8676 249.428 75.3383 247.204 78.4337 247.519C78.4846 247.526 78.5308 247.553 78.5623 247.595C78.5938 247.636 78.6081 247.688 78.6021 247.74C78.6004 247.767 78.5933 247.794 78.5813 247.818C78.5693 247.842 78.5526 247.863 78.5323 247.881C78.5119 247.898 78.4884 247.911 78.463 247.919C78.4376 247.927 78.4109 247.929 78.3845 247.926C75.4716 247.626 73.05 249.8 73.022 249.821C72.9877 249.854 72.9425 249.872 72.8956 249.871Z" fill="#263238"/>
<path d="M31.9601 97.0258C31.9601 97.0258 31.7144 108.46 31.7636 113.591C31.8618 124.125 33.8693 128.462 36.4242 137.324C38.5299 144.513 47.0019 170.911 47.6547 173.463C46.7562 179.037 45.8087 183.968 47.6547 196.138C50.3009 213.704 53.2699 234.564 53.2699 234.564C54.8492 236.793 65.6164 237.601 68.7469 234.371C68.7469 234.371 69.6734 178.172 69.3365 166.688C69.0487 156.683 64.4723 123.974 64.4723 123.974C64.4723 123.974 79.1421 117.693 80.4055 100.12L31.9601 97.0258Z" fill="#263238"/>
<path d="M50.2443 37.5669C50.2443 37.5669 66.3179 38.6746 75.4006 42.9481C77.4291 43.8985 83.4654 51.9524 82.7495 63.0506C80.9386 91.007 81.6616 106.557 81.6616 106.557C81.1632 107.987 75.9551 115.705 61.5801 117.091C46.7699 118.52 38.4172 116.962 31.4543 110.738C31.5035 98.8679 31.707 83.7106 31.8334 73.5271C31.9316 65.6662 32.051 60.6638 32.9494 55.1039C33.546 51.4093 35.0551 45.8852 37.5469 44.4631C40.3538 42.834 43.2664 41.4014 46.2645 40.1753C47.7544 39.5961 49.1096 38.7078 50.2443 37.5669Z" fill="#FAFAFA"/>
<path d="M50.5114 38.3031C52.7786 38.4817 66.936 39.7323 75.0781 43.5913C76.9311 44.4632 82.7148 52.2169 82.0129 63.0007C80.3213 89.192 80.8547 104.707 80.9249 106.436C80.6371 107.072 79.3456 109.116 76.3836 111.253C73.6953 113.196 68.9294 115.662 61.4822 116.384C58.0709 116.712 55.1229 116.877 52.4697 116.877C43.4011 116.877 37.2875 114.94 32.1145 110.445C32.1566 99.9329 32.3251 86.7408 32.4444 77.0861L32.4865 73.563C32.5848 65.8307 32.7111 60.6996 33.5955 55.247C34.2974 51.0307 35.8627 46.2569 37.8491 45.1135C40.6296 43.4849 43.5165 42.0523 46.4895 40.8257C47.9616 40.247 49.3122 39.3885 50.4693 38.2959L50.5114 38.3031ZM50.2026 37.5813C49.0679 38.7222 47.7126 39.6105 46.2228 40.1897C43.2247 41.4158 40.3121 42.8484 37.5051 44.4775C35.0414 45.9068 33.5043 51.4237 32.9077 55.1183C32.0092 60.6567 31.8899 65.7163 31.7916 73.5415C31.6653 83.725 31.4617 98.8823 31.4126 110.752C36.7962 115.576 43.0361 117.599 52.4697 117.599C55.2072 117.599 58.2113 117.427 61.5453 117.105C75.9203 115.719 81.1285 107.994 81.6268 106.572C81.6268 106.572 80.9249 91.0214 82.7148 63.065C83.4167 51.9668 77.3943 43.9129 75.3658 42.9625C66.2832 38.6747 50.2096 37.5813 50.2096 37.5813H50.2026Z" fill="#E0E0E0"/>
<path d="M50.561 6.09272C46.2022 11.0951 47.613 16.998 49.1572 22.9151C50.9822 29.6541 51.0945 31.8337 54.8988 33.5203C54.0425 12.36 60.6825 38.2869 77.3597 21.836C80.3709 18.8632 80.5604 9.68732 76.9105 5.48529C71.7515 -0.417568 59.0822 -3.3547 50.561 6.09272Z" fill="#37474F"/>
<path d="M49.6837 29.5614C52.7159 30.8478 54.0916 28.7253 54.0916 28.7253L51.4104 36.5862C51.4104 36.5862 49.6837 41.46 53.5863 43.8112C64.3816 50.4144 61.9389 53.1943 65.5888 56.403C66.8242 54.8236 66.6627 47.7488 66.8593 45.8836L69.2247 38.3156C70.4579 38.3594 71.6926 38.3021 72.9167 38.1441C75.8086 37.7297 77.444 35.6358 78.3565 32.4771C79.8094 27.3889 79.5918 19.7138 77.802 9.77329C74.6083 7.20776 64.0236 6.65035 57.18 10.9381C57.4257 16.7838 55.8675 17.7343 55.8675 20.2283C55.8675 23.0511 55.6779 23.7014 54.8286 24.0802C53.9793 24.459 53.2213 23.1369 52.8773 22.3079C52.3018 20.8787 51.8105 20.0068 50.4558 19.6638C49.1011 19.3208 47.585 19.5423 46.3426 21.4003C44.4194 24.2874 47.4516 28.6324 49.6837 29.5614Z" fill="#FFA8A7"/>
<path d="M69.2242 38.3428C65.8059 38.1713 61.0049 36.3418 59.0676 34.4981C57.1304 32.6543 55.8669 29.0669 55.8669 29.0669C55.9565 31.506 56.8238 33.849 58.3376 35.7415C60.8645 38.8716 68.5082 40.6368 68.5082 40.6368L69.2242 38.3428Z" fill="#F28F8F"/>
<path d="M67.4065 12.5898C67.3152 12.5898 67.2029 12.647 67.1959 12.7399C67.1889 12.8328 67.2872 12.8614 67.3573 12.9042C67.4749 12.9721 67.5875 13.0485 67.6943 13.1329C67.8063 13.211 67.8998 13.3135 67.968 13.4331C68.0066 13.5248 68.0348 13.6207 68.0522 13.7189C68.0744 13.8799 68.0861 14.0423 68.0873 14.2049C68.0873 14.3406 68.1996 14.4335 68.326 14.3192C68.3728 14.276 68.4089 14.2221 68.4313 14.162C68.5062 13.9816 68.5375 13.7855 68.5225 13.5903C68.5085 13.4821 68.4802 13.3763 68.4383 13.2758C68.3492 13.0726 68.2046 12.8998 68.0216 12.7782C67.8386 12.6565 67.625 12.5911 67.4065 12.5898ZM72.6286 12.8042C72.6406 12.7519 72.6389 12.6973 72.6237 12.6459C72.6084 12.5945 72.5803 12.548 72.5419 12.5112C72.5036 12.4743 72.4564 12.4483 72.4051 12.4357C72.3538 12.4232 72.3002 12.4246 72.2496 12.4397C72.0765 12.5249 71.9239 12.6479 71.8027 12.7997C71.6814 12.9516 71.5943 13.1288 71.5477 13.3187C71.4429 13.5749 71.4137 13.8566 71.4636 14.1295C71.5134 14.4023 71.6402 14.6545 71.8285 14.8552C71.8917 14.9123 71.9829 14.9624 72.0461 14.9195C72.1092 14.8766 72.0461 14.2049 72.0952 14.0548C72.1033 13.803 72.1733 13.5573 72.2988 13.3402C72.383 13.1758 72.5725 13.0186 72.6286 12.8042ZM69.7859 11.5536C69.7741 11.545 69.7603 11.5395 69.7459 11.5374C69.7315 11.5353 69.7168 11.5368 69.7031 11.5417C69.6893 11.5466 69.6769 11.5548 69.6669 11.5655C69.6569 11.5763 69.6496 11.5894 69.6456 11.6036C69.6305 11.6686 69.6296 11.7363 69.6429 11.8017C69.6562 11.8671 69.6835 11.9288 69.7228 11.9824C69.7868 12.1186 69.8408 12.2595 69.8842 12.404C69.977 12.6928 70.029 12.9936 70.0386 13.2973C70.0446 13.5819 70.0258 13.8665 69.9825 14.1477C69.9404 14.4121 69.8631 14.6694 69.821 14.9338C69.821 14.9338 69.821 15.0338 69.8772 15.0052C70.0818 14.7962 70.2383 14.5436 70.3354 14.2655C70.4326 13.9875 70.4678 13.6909 70.4387 13.3973C70.4355 13.0678 70.3858 12.7405 70.2913 12.4254C70.2171 12.0879 70.0403 11.7828 69.7859 11.5536Z" fill="#F28F8F"/>
<path d="M63.6299 15.0462L66.7183 13.8378C66.8686 14.267 66.8503 14.7387 66.6672 15.1545C66.4841 15.5703 66.1503 15.8978 65.7356 16.0687C65.5318 16.1475 65.3144 16.1834 65.0966 16.1743C64.8789 16.1651 64.6651 16.1112 64.4684 16.0156C64.2716 15.9201 64.0959 15.7849 63.9518 15.6183C63.8077 15.4517 63.6982 15.2571 63.6299 15.0462Z" fill="#37474F"/>
<path d="M73.4428 13.3613L76.433 14.8629C76.3469 15.0666 76.2211 15.2502 76.063 15.4026C75.905 15.555 75.7181 15.6729 75.5137 15.7492C75.3094 15.8255 75.092 15.8586 74.8747 15.8463C74.6574 15.8341 74.4449 15.7769 74.25 15.6781C73.8489 15.4717 73.5413 15.1158 73.391 14.6844C73.2406 14.253 73.2592 13.7792 73.4428 13.3613Z" fill="#37474F"/>
<path d="M66.7193 18.2917C66.4315 17.5766 66.0174 18.5848 65.1751 18.9424C64.3328 19.2999 63.4133 18.8565 63.7011 19.5645C63.9139 19.893 64.2324 20.1358 64.6019 20.2511C64.9713 20.3665 65.3687 20.3473 65.7257 20.1967C66.0827 20.0462 66.3772 19.7737 66.5585 19.426C66.7398 19.0784 66.7966 18.6773 66.7193 18.2917Z" fill="#263238"/>
<path d="M76.4539 18.9935C76.6294 18.2785 75.752 18.8148 74.8325 18.6074C73.913 18.4 73.4287 17.4919 73.2743 18.2356C73.2507 18.6331 73.3658 19.0262 73.5993 19.3456C73.8329 19.6649 74.1697 19.8898 74.5503 19.9805C74.9309 20.0713 75.3307 20.0219 75.6791 19.8413C76.0275 19.6607 76.3019 19.3604 76.4539 18.9935Z" fill="#263238"/>
<path d="M69.1128 16.5825L70.3622 25.8727L74.9105 24.8008C73.9068 22.1066 71.0851 17.8117 69.1128 16.5825Z" fill="#F28F8F"/>
<path d="M67.0274 28.0398C66.8163 28.1727 66.6385 28.3537 66.508 28.5686C66.1079 29.2404 66.6764 29.5834 67.2801 29.6406C67.9449 29.704 68.5924 29.8931 69.1892 30.198C69.4444 30.3858 69.7517 30.4859 70.0666 30.4838C70.1666 30.4691 70.2628 30.4344 70.3495 30.3816C70.4362 30.3289 70.5118 30.2592 70.572 30.1765C70.6634 30.0014 70.6978 29.8012 70.6703 29.6048C70.6099 29.2064 70.4487 28.8309 70.2026 28.5151C69.9564 28.1994 69.6338 27.9543 69.2664 27.804C68.9004 27.666 68.5082 27.6156 68.12 27.6565C67.7317 27.6974 67.3579 27.8285 67.0274 28.0398Z" fill="#B16668"/>
<path d="M69.1892 30.2347C69.33 30.317 69.4753 30.391 69.6244 30.4563C69.4767 29.8207 69.1239 29.254 68.6225 28.8469C68.1211 28.4398 67.5001 28.2159 66.8589 28.2111C66.7189 28.3187 66.5998 28.4521 66.508 28.6043C66.1079 29.2765 66.6764 29.6197 67.2801 29.6769C67.9449 29.7404 68.5924 29.9296 69.1892 30.2347Z" fill="#F28F8F"/>
<path d="M64.325 61.0271C61.0331 58.6974 54.8704 53.5592 49.7605 38.309L47.739 39.7382C47.739 39.7382 50.9818 55.4101 63.8337 63.3711L64.325 61.0271Z" fill="#4EA92E"/>
<path d="M67.4697 60.7287C68.4173 59.4137 70.6002 50.4594 68.4173 40.8405L70.2072 42.5913C72.0461 51.9887 70.0527 60.7358 68.3331 63.3585L67.4697 60.7287Z" fill="#4EA92E"/>
<path d="M67.3226 65.5878C67.3226 65.5878 71.19 93.2583 71.3445 95.9739C71.4989 98.6895 67.3085 105.264 66.74 105.629C66.1714 105.993 62.4162 99.5542 62.3671 97.4103C62.318 95.2665 65.0835 65.5807 65.0835 65.5807L67.3226 65.5878Z" fill="#4EA92E"/>
<path d="M67.4697 60.7257C66.4144 60.5294 65.3263 60.6333 64.3252 61.0258C63.7356 62.1049 63.525 63.7772 63.9883 64.5633C64.4515 65.3494 65.3219 66.5642 66.3888 66.5142C67.4557 66.4642 68.3541 65.0849 68.4945 63.7629C68.6349 62.3336 67.4697 60.7257 67.4697 60.7257Z" fill="#4EA92E"/>
<path opacity="0.2" d="M67.4697 60.7257C66.4144 60.5294 65.3263 60.6333 64.3252 61.0258C63.7356 62.1049 63.525 63.7772 63.9883 64.5633C64.4515 65.3494 65.3219 66.5642 66.3888 66.5142C67.4557 66.4642 68.3541 65.0849 68.4945 63.7629C68.6349 62.3336 67.4697 60.7257 67.4697 60.7257Z" fill="white"/>
<path d="M65.5396 56.4314C63.6514 54.2375 62.9917 47.6414 61.5949 46.5337C60.1981 45.4261 52.0911 40.3808 51.326 36.7576L52.2244 34.1206C51.2558 33.6704 49.9503 36.8219 46.2653 40.1735C46.2653 40.1735 45.809 44.0039 48.6307 48.356C51.9507 53.4942 54.8636 55.2165 54.8636 55.2165C54.8636 55.2165 58.9206 49.8854 59.5874 49.6781C60.2542 49.4709 63.2794 55.6453 65.5396 56.4314Z" fill="#F0F0F0"/>
<path d="M65.5396 56.4328C66.5503 54.632 66.3889 47.2284 66.6766 46.2493C67.2803 44.1912 69.0561 38.8672 69.0561 38.8672C69.3537 39.0999 69.6224 39.3687 69.8563 39.6676C73.2114 44.084 73.1061 50.4585 72.1866 52.4237C71.2179 50.3299 68.9157 47.6286 68.5016 48.136C68.0875 48.6433 67.2733 55.5538 65.5396 56.4328Z" fill="#F0F0F0"/>
<path d="M53.0038 146.86L54.6462 180.905C54.7234 182.556 53.6285 183.563 52.2668 184.478L48.8485 186.736C48.471 187.047 48.0326 187.271 47.5628 187.394C47.0931 187.517 46.6028 187.537 46.1251 187.451C45.4573 187.303 44.8126 187.063 44.2089 186.736C44.186 186.743 44.1616 186.743 44.1387 186.736L43.9422 186.629L6.97992 167.334C5.65242 166.642 4.52771 165.606 3.71929 164.33C2.91086 163.054 2.44731 161.583 2.37542 160.066L0.880371 129.066C0.882773 128.679 0.974936 128.298 1.14936 127.954C1.32377 127.61 1.57552 127.312 1.88409 127.086L7.7099 123.263C8.0382 123.071 8.40677 122.96 8.78513 122.942C9.1635 122.923 9.54079 122.996 9.8858 123.156L51.7895 144.995C52.1218 145.183 52.402 145.453 52.6037 145.781C52.8243 146.101 52.9619 146.472 53.0038 146.86Z" fill="#37474F"/>
<path d="M53.0041 146.861L54.6465 180.906C54.7238 182.556 53.6288 183.564 52.2671 184.479L48.8488 186.737C48.4713 187.047 48.0329 187.271 47.5632 187.395C47.0934 187.518 46.6032 187.537 46.1254 187.452C45.4576 187.304 44.8129 187.063 44.2092 186.737C45.613 187.337 46.715 186.537 46.6308 184.85L45.0866 152.778C45.0377 152.192 44.842 151.628 44.5181 151.141L52.6321 145.817C52.8373 146.129 52.965 146.487 53.0041 146.861Z" fill="#263238"/>
<path d="M45.0865 152.74C45.0306 152.153 44.8393 151.589 44.5282 151.092C44.2172 150.595 43.7952 150.18 43.2967 149.881L3.66717 129.157C2.10192 128.335 0.859555 129.157 0.978879 130.922L2.38269 159.943C2.45477 161.461 2.91833 162.932 3.72667 164.209C4.535 165.486 5.65959 166.524 6.98718 167.218L43.9494 186.513C45.5147 187.335 46.7571 186.513 46.6377 184.748L45.0865 152.74Z" fill="#455A64"/>
<path d="M5.82165 124.412L47.8376 146.616C48.4295 146.931 48.9304 147.398 49.291 147.971C49.6516 148.544 49.8595 149.202 49.8942 149.882L51.5858 184.898L50.9822 185.299L49.2695 149.889C49.2398 149.321 49.0657 148.771 48.7642 148.292C48.4628 147.814 48.0443 147.423 47.5498 147.159L5.21802 124.791L5.82165 124.412Z" fill="#4EA92E"/>
<path opacity="0.2" d="M49.2908 147.974C49.6524 148.546 49.8605 149.204 49.8945 149.882L51.5861 184.899L50.9824 185.3L49.2698 149.89C49.2425 149.322 49.0681 148.772 48.7644 148.296L49.2908 147.974Z" fill="black"/>
<path opacity="0.2" d="M48.7641 148.317C48.4654 147.835 48.0463 147.443 47.5498 147.18L5.21802 124.812L5.82165 124.412L47.8376 146.616C48.4279 146.934 48.9282 147.402 49.2906 147.973" fill="black"/>
<path d="M20.541 128.042L20.7937 133.308L18.8003 134.602L18.4634 127.598C18.4634 127.241 18.681 127.084 18.9968 127.248L20.541 128.042Z" fill="#4EA92E"/>
<path opacity="0.4" d="M20.541 128.042L20.7937 133.308L18.8003 134.602L18.4634 127.598C18.4634 127.241 18.681 127.084 18.9968 127.248L20.541 128.042Z" fill="black"/>
<path d="M35.0204 132.539L35.4346 141.072L33.5394 142.308L32.2058 141.593L31.8619 134.59C31.842 134.395 31.7776 134.208 31.6741 134.043C31.5705 133.878 31.4305 133.74 31.2652 133.64L21.1368 128.351L19.0311 127.251C18.7152 127.086 18.4766 127.251 18.4976 127.601L18.8345 134.604L17.4939 133.89L17.0798 125.357C17.0763 125.319 17.0763 125.281 17.0798 125.243C17.0964 125.066 17.1501 124.894 17.2372 124.74C17.3244 124.586 17.4431 124.453 17.5851 124.349L18.3853 123.821C18.5555 123.726 18.7448 123.673 18.9384 123.666C19.132 123.659 19.3247 123.697 19.5013 123.778L34.4238 131.589C34.5906 131.687 34.7317 131.825 34.8355 131.99C34.9393 132.155 35.0027 132.344 35.0204 132.539Z" fill="#4EA92E"/>
<path opacity="0.2" d="M33.1464 133.774L33.5394 142.307L32.2058 141.592L31.8619 134.589C31.842 134.394 31.7777 134.206 31.6741 134.041C31.5705 133.876 31.4305 133.738 31.2653 133.638L21.1368 128.35L19.0311 127.249C18.7152 127.085 18.4766 127.249 18.4976 127.599L18.8345 134.603L17.4939 133.888L17.0798 125.355C17.0763 125.317 17.0763 125.279 17.0798 125.241C17.1149 124.962 17.3325 124.855 17.6132 124.998L32.5427 132.809C32.7107 132.91 32.8529 133.05 32.9578 133.218C33.0626 133.386 33.1273 133.576 33.1464 133.774Z" fill="black"/>
<path d="M26.1138 127.237L32.473 130.567C32.4482 129.555 32.1573 128.568 31.6307 127.709C30.9288 126.994 28.1212 124.136 27.1807 124.429C26.7385 124.564 26.3243 125.808 26.1138 127.237Z" fill="#F28F8F"/>
<path d="M26.1138 130.996C26.1622 131.197 26.2279 131.393 26.3103 131.582C26.9778 132.84 27.9015 133.939 29.0197 134.805C29.7984 134.599 30.504 134.173 31.0552 133.576L26.1138 130.996Z" fill="#F28F8F"/>
<path d="M35.9054 47.5629C31.2869 49.6282 27.9388 53.237 25.5523 60.905C23.1658 68.573 20.2459 77.6774 19.0808 85.6598C17.9156 93.6423 16.8978 110.315 16.6101 115.481C16.4161 117.564 16.3622 119.658 16.4486 121.749C16.6583 124.114 17.0312 126.461 17.5646 128.774C17.6477 129.319 17.8641 129.835 18.194 130.273C18.5239 130.712 18.9568 131.058 19.4528 131.282C19.7341 131.358 20.007 131.463 20.267 131.596C20.7373 131.889 20.9689 132.475 21.3409 132.876C21.8189 133.311 22.4401 133.548 23.0816 133.54C23.3694 133.54 23.6572 133.54 23.9379 133.576C24.9838 133.733 25.7488 134.676 26.7456 135.005C27.4809 135.33 28.3118 135.351 29.0618 135.062C29.4475 134.859 29.814 134.619 30.1568 134.348C30.3463 134.205 30.8587 133.683 31.0201 133.533C29.6163 133.662 28.5845 132.475 28.0511 131.389C27.4453 130.086 27.1062 128.671 27.0544 127.23C27.0298 126.89 27.0777 126.549 27.1948 126.229C27.222 126.151 27.2697 126.082 27.3328 126.029C27.3959 125.976 27.4719 125.941 27.5527 125.929C27.7352 125.929 27.8546 126.108 27.9528 126.265C28.5104 127.396 29.2724 128.409 30.1989 129.252C30.583 129.613 31.0805 129.823 31.6027 129.845C31.8591 129.848 32.1069 129.751 32.2959 129.575C32.4849 129.398 32.6009 129.155 32.6205 128.895C32.5974 128.687 32.5355 128.486 32.438 128.302C31.7312 126.793 31.1603 125.221 30.7324 123.607C30.4119 122.093 29.8999 120.627 29.2092 119.248C28.4301 117.818 26.6052 115.874 26.8017 114.245C27.1246 111.451 32.1993 89.6475 32.1993 89.6475C32.1993 89.6475 38.3199 70.5668 39.7869 65.5215C41.6259 59.2542 40.3414 51.2075 35.9054 47.5629Z" fill="#FFA8A7"/>
<path d="M37.5475 44.4597C30.1635 48.2901 28.3737 51.313 26.3522 57.0086C24.5342 62.104 20.4983 76.075 19.4875 81.0488C17.6907 89.946 16.6799 106.961 16.6799 106.961C16.6799 106.961 17.5503 109.405 21.9232 110.477C26.296 111.549 28.0438 110.184 28.0438 110.184L32.9571 88.5739C32.9571 88.5739 40.5587 70.6367 41.1764 68.1069C42.4609 63.0258 43.5207 47.8828 37.5475 44.4597Z" fill="#E6E6E6"/>
<path d="M93.7559 30.1849C93.9384 30.6637 94.0296 31.1711 94.2402 31.6142C94.4474 32.0649 94.7194 32.4816 95.0474 32.8505C95.7269 33.6175 96.6629 34.0991 97.6725 34.2012C99.8273 34.3941 102.221 32.5647 101.73 30.1849C101.723 30.1299 101.727 30.0739 101.743 30.0208C101.759 29.9677 101.785 29.9186 101.821 29.8767C101.857 29.8349 101.901 29.8012 101.951 29.778C102 29.7547 102.054 29.7424 102.109 29.7419C103.512 29.5989 104.291 28.1554 104.277 26.8119C104.328 26.0953 104.117 25.3849 103.684 24.8175C103.251 24.2501 102.628 23.8659 101.933 23.739C101.634 23.6903 101.33 23.6735 101.028 23.6889C100.737 23.7364 100.444 23.7627 100.15 23.7675C99.5887 23.7175 99.5325 22.9957 99.2939 22.5955C99.0471 22.1533 98.6965 21.7802 98.2736 21.5095C97.8506 21.2388 97.3684 21.079 96.8699 21.0444C96.3715 21.0097 95.8724 21.1012 95.4172 21.3108C94.962 21.5204 94.5649 21.8414 94.2612 22.2454C93.8319 22.8807 93.5753 23.6204 93.5172 24.3893C93.5172 24.475 93.2996 24.7251 93.2505 24.5322C93.1168 23.8218 93.2095 23.0864 93.515 22.4334C93.8206 21.7804 94.323 21.2438 94.9491 20.9019C95.617 20.5194 96.3839 20.3541 97.1467 20.4282C97.9096 20.5023 98.6319 20.8122 99.2167 21.3164C99.4871 21.5422 99.7235 21.807 99.9186 22.1025C100.023 22.2604 100.112 22.4279 100.185 22.6027C100.227 22.6884 100.312 23.0886 100.382 23.1315C100.519 23.1343 100.655 23.1199 100.789 23.0886C100.964 23.0886 101.147 23.0886 101.322 23.0886C101.727 23.0858 102.13 23.1338 102.523 23.2316C103.271 23.4364 103.929 23.8934 104.389 24.5282C104.849 25.1629 105.085 25.9377 105.057 26.7261C105.101 27.5321 104.876 28.3296 104.419 28.9888C103.961 29.648 103.298 30.1301 102.537 30.3564C102.832 32.9863 100.27 34.973 97.8269 34.9086C96.6121 34.8733 95.4578 34.3612 94.6052 33.4794C93.8612 32.7219 93.0329 31.4355 93.2365 30.3207C93.2575 30.0706 93.6576 29.9205 93.7559 30.1849Z" fill="#455A64"/>
<path d="M84.9681 26.6614C86.0851 26.3038 87.2353 26.0642 88.4004 25.9463L89.9025 25.7032C90.4272 25.5923 90.9603 25.5277 91.4958 25.5101C91.7415 25.5101 91.6011 25.8534 91.4537 25.9106C90.9051 26.0967 90.3413 26.233 89.7691 26.3181L88.1758 26.6042L86.6527 26.8544C86.0896 26.9721 85.514 27.0154 84.94 26.9832C84.7786 26.9903 84.8628 26.7114 84.9681 26.6614Z" fill="#455A64"/>
<path d="M85.8739 29.9335C86.0741 29.866 86.2815 29.8228 86.4916 29.8048C86.7303 29.769 86.9619 29.7476 87.1935 29.7261L88.4219 29.6546C88.836 29.6546 89.2431 29.6546 89.6572 29.6117C90.1458 29.5627 90.6385 29.5747 91.1242 29.6475C91.3558 29.6975 91.1242 30.0336 91.0049 30.0694C90.6011 30.1373 90.1928 30.1732 89.7836 30.1766L88.5061 30.2481L87.2426 30.3268L86.653 30.3625C86.3713 30.4019 86.0855 30.4019 85.8037 30.3625C85.6142 30.2767 85.7546 29.9836 85.8739 29.9335Z" fill="#455A64"/>
</svg>
