<svg width="383" height="469" viewBox="0 0 383 469" fill="none" xmlns="http://www.w3.org/2000/svg">
<mask id="mask0_4176_16226" style="mask-type:alpha" maskUnits="userSpaceOnUse" x="0" y="0" width="383" height="469">
<rect width="383" height="469" fill="#C4C4C4"/>
</mask>
<g mask="url(#mask0_4176_16226)">
<path d="M205.288 192.767C277.936 192.693 328.703 215.465 359.749 265.991C398.363 328.833 387.225 408.134 323.957 447.135C302.916 460.27 278.422 467.167 252.472 467.263C226.521 467.359 199.85 460.651 174.632 447.686L186.88 353.49C219.39 364.643 246.802 367.5 266.444 355.392C283.191 345.068 291.12 328.744 281.39 312.907C271.659 297.071 256.167 298.303 231.228 298.08L189.25 297.963C113.815 297.675 63.3467 280.957 26.7406 221.383C-17.2794 149.743 -3.65785 67.5242 68.2941 23.1706C90.2322 8.72176 116.003 0.951088 143.426 0.516795C170.849 0.0825026 199.115 6.99734 225.832 20.6756L216.672 119.899C180.763 104.604 140.803 102.203 119.093 115.586C98.417 128.331 91.3007 152.473 102.422 170.572C113.542 188.67 134.602 192.324 166.356 192.505L205.288 192.767Z" fill="#F3F0EC"/>
</g>
</svg>
