<svg width="375" height="620" viewBox="0 0 375 620" fill="none" xmlns="http://www.w3.org/2000/svg">
<g clip-path="url(#clip0_4249_16470)">
<path d="M521.783 604.054C632.997 636.818 713.46 626.54 767.066 567.058C833.741 493.075 826.225 372.805 734.052 287.678C703.419 259.127 666.748 238.092 627.03 226.287C587.312 214.483 545.671 212.243 505.504 219.752L512.929 362.17C564.042 360.574 606.353 368.743 634.969 395.171C659.367 417.705 669.543 444.997 652.741 463.641C635.939 482.284 612.369 473.53 574.162 462.644L509.88 443.944C394.354 410.452 315.078 412.065 251.871 482.201C175.861 566.541 186.829 692.168 291.653 788.979C323.502 819.842 362.023 842.721 403.955 855.679C445.886 868.638 489.993 871.293 532.541 863.422L530.45 715.085C473.633 721.173 412.166 706.7 380.538 677.489C350.417 649.67 342.425 611.381 361.627 590.074C380.829 568.767 413.511 572.923 462.148 586.935L521.783 604.054Z" fill="white"/>
</g>
<defs>
<clipPath id="clip0_4249_16470">
<rect width="375" height="620"/>
</clipPath>
</defs>
</svg>
