<svg width="1920" height="750" viewBox="0 0 1920 750" fill="none" xmlns="http://www.w3.org/2000/svg">
<g clip-path="url(#clip0_4249_16731)">
<path d="M-376.936 101.539C-787.017 62.399 -1038.73 -77.9733 -1136.78 -345.051C-1258.73 -677.238 -1074.78 -1063.87 -658.196 -1222.59C-519.401 -1276.2 -370.645 -1297.03 -224.057 -1283.39C-77.4689 -1269.76 62.8005 -1222.04 185.312 -1144.12L-27.6422 -684.335C-194.069 -757.24 -344.398 -786.295 -473.73 -737.019C-584.003 -695.004 -653.674 -618.478 -622.943 -534.767C-592.212 -451.056 -502.906 -448.732 -362.514 -434.065L-125.806 -410.657C299.454 -368.213 558.726 -257.982 674.333 56.9311C813.353 435.624 610.939 835.354 137.174 1015.86C-8.6898 1075.48 -165.988 1099.94 -321.401 1087.18C-476.815 1074.42 -625.768 1024.81 -755.649 942.546L-552.451 456.184C-373.16 551.45 -151.324 585.068 -8.37743 530.605C127.762 478.735 204.784 363.057 169.663 267.387C134.542 171.717 21.2772 142.172 -157.642 124.009L-376.936 101.539Z" fill="white"/>
</g>
<defs>
<clipPath id="clip0_4249_16731">
<rect width="1920" height="750" />
</clipPath>
</defs>
</svg>
