<svg width="768" height="750" viewBox="0 0 768 750" fill="none" xmlns="http://www.w3.org/2000/svg">
<g clip-path="url(#clip0_4249_16367)">
<path d="M947.282 715.046C1098.4 759.564 1207.72 745.599 1280.56 664.777C1371.16 564.253 1360.94 400.835 1235.7 285.169C1194.08 246.375 1144.25 217.794 1090.29 201.754C1036.32 185.715 979.741 182.672 925.164 192.874L935.253 386.385C1004.7 384.216 1062.19 395.317 1101.07 431.226C1134.23 461.844 1148.05 498.927 1125.22 524.259C1102.39 549.591 1070.37 537.696 1018.45 522.904L931.11 497.496C774.139 451.988 666.422 454.18 580.538 549.477C477.261 664.075 492.163 834.771 634.592 966.314C677.868 1008.25 730.209 1039.34 787.183 1056.94C844.158 1074.55 904.088 1078.16 961.9 1067.46L959.059 865.91C881.859 874.182 798.341 854.516 755.366 814.827C714.438 777.027 703.579 725.002 729.67 696.051C755.761 667.1 800.168 672.747 866.254 691.785L947.282 715.046Z" fill="white"/>
</g>
<defs>
<clipPath id="clip0_4249_16367">
<rect width="768" height="750" />
</clipPath>
</defs>
</svg>
