<svg width="375" height="620" viewBox="0 0 375 620" fill="none" xmlns="http://www.w3.org/2000/svg">
<g clip-path="url(#clip0_4249_16753)">
<path d="M-136.793 32.2403C-286.413 -56.0931 -357.433 -154.751 -347.086 -274.303C-334.217 -423 -194.773 -537.753 -7.26057 -523.825C55.3425 -519.461 115.886 -500.798 169.433 -469.357C222.98 -437.917 268.014 -394.589 300.863 -342.907L137.248 -205.407C86.7303 -263.034 34.5137 -301.033 -23.701 -305.356C-73.3367 -309.043 -113.641 -292.283 -116.884 -254.811C-120.127 -217.339 -86.4335 -200.47 -35.4375 -169.745L50.781 -118.446C205.607 -26.1338 284.907 62.3644 272.707 203.329C258.036 372.843 109.195 489.292 -104.055 473.453C-170.434 470.121 -234.89 451.317 -291.964 418.631C-349.039 385.945 -397.051 340.341 -431.936 285.68L-267.292 136.283C-215.863 204.753 -137.152 257.291 -72.809 262.07C-11.5304 266.621 38.5881 236.223 42.2943 193.398C46.0006 150.574 8.02774 119.02 -57.0574 80.0653L-136.793 32.2403Z" fill="white"/>
</g>
<defs>
<clipPath id="clip0_4249_16753">
<rect width="375" height="620" />
</clipPath>
</defs>
</svg>
