<svg width="657" height="679" viewBox="0 0 657 679" fill="none" xmlns="http://www.w3.org/2000/svg">
    <path d="M334.695 275.375C446.464 244.643 531.523 257.653 594.69 320.911C673.256 399.59 680.278 524.108 594.804 609.705C566.428 638.422 530.838 659.167 490.935 670.25C451.032 681.332 407.946 682.439 365.19 673.478L355.339 525.986C408.762 529.135 451.815 521.898 478.351 495.324C500.977 472.666 508.204 444.657 488.405 424.83C468.607 405.003 445.142 413.394 406.699 423.569L342.068 441.085C225.899 472.446 143.146 468.457 68.6648 393.87C-20.9006 304.176 -24.9898 174.203 72.2165 76.8574C101.573 45.7785 138.862 23.1745 180.928 10.9599C222.994 -1.25486 268.597 -2.72059 313.876 6.68633L330.013 160.473C270.094 152.498 207.872 165.714 178.543 195.085C150.61 223.058 147.015 262.536 169.642 285.195C192.269 307.855 225.789 304.499 274.708 291.388L334.695 275.375Z" fill="#F3F0EC"/>
</svg>