<svg width="1920" height="750" viewBox="0 0 1920 750" fill="none" xmlns="http://www.w3.org/2000/svg">
<g clip-path="url(#clip0_4249_16262)">
<path d="M1871.18 1197.5C1584.31 1112.86 1424.33 977.984 1391.4 774.062C1350.45 520.427 1535.05 270.31 1853.93 214.824C1960.27 195.823 2069.17 201.557 2171.76 231.56C2274.36 261.562 2367.73 314.983 2444.27 387.467L2228.87 685.708C2120.34 610.718 2017.21 569.209 1918.21 586.435C1833.81 601.123 1773.56 646.026 1783.88 709.942C1794.2 773.858 1857.53 787.871 1955.56 817.75L2121.04 867.186C2418.26 956.279 2587.8 1070.72 2626.63 1311.16C2673.31 1600.31 2473.74 1857.2 2111.09 1920.3C1998.88 1942.61 1883.38 1938.29 1774.38 1907.69C1665.37 1877.09 1566.08 1821.12 1484.89 1744.51L1697.01 1425.98C1811.61 1518.69 1965.07 1573.34 2074.49 1554.31C2178.7 1536.17 2249.6 1464.38 2237.81 1391.34C2226.01 1318.29 2149.37 1281.56 2024.37 1243.86L1871.18 1197.5Z" fill="white"/>
</g>
<defs>
<clipPath id="clip0_4249_16262">
<rect width="1920" height="750" />
</clipPath>
</defs>
</svg>
