<svg width="657" height="680" viewBox="0 0 657 680" fill="none" xmlns="http://www.w3.org/2000/svg">
    <path d="M322.074 275.375C210.305 244.643 125.246 257.653 62.0791 320.911C-16.4871 399.59 -23.5093 524.108 61.9653 609.705C90.3407 638.422 125.931 659.167 165.834 670.25C205.737 681.332 248.823 682.439 291.579 673.478L301.43 525.986C248.007 529.135 204.954 521.898 178.418 495.324C155.792 472.666 148.565 444.657 168.364 424.83C188.162 405.003 211.627 413.394 250.07 423.569L314.701 441.085C430.87 472.446 513.624 468.457 588.104 393.87C677.67 304.176 681.759 174.203 584.552 76.8574C555.196 45.7785 517.907 23.1745 475.841 10.9599C433.776 -1.25486 388.173 -2.72059 342.893 6.68633L326.756 160.473C386.675 152.498 448.897 165.714 478.226 195.085C506.159 223.058 509.754 262.536 487.127 285.195C464.5 307.855 430.98 304.499 382.061 291.388L322.074 275.375Z" fill="#E9DEFF"/>
</svg>