<svg width="768" height="750" viewBox="0 0 768 750" fill="none" xmlns="http://www.w3.org/2000/svg">
<g clip-path="url(#clip0_4249_16742)">
<path d="M-128.356 58.5998C-325.608 -57.8552 -419.237 -187.922 -405.596 -345.534C-388.631 -541.569 -204.794 -692.854 42.4143 -674.493C124.947 -668.739 204.765 -644.134 275.359 -602.684C345.953 -561.234 405.324 -504.113 448.63 -435.978L232.928 -254.703C166.328 -330.676 97.4876 -380.773 20.7399 -386.473C-44.6976 -391.333 -97.8331 -369.237 -102.109 -319.836C-106.384 -270.435 -61.9638 -248.196 5.26701 -207.689L118.934 -140.058C323.05 -18.3581 427.595 98.3139 411.511 284.155C392.17 507.635 195.944 661.156 -85.195 640.275C-172.707 635.882 -257.682 611.091 -332.927 568C-408.171 524.909 -471.468 464.786 -517.459 392.723L-300.4 195.766C-232.598 286.033 -128.828 355.297 -44.0019 361.597C36.7851 367.597 102.859 327.521 107.745 271.063C112.631 214.605 62.5697 173.006 -23.2357 121.65L-128.356 58.5998Z" fill="white"/>
</g>
<defs>
<clipPath id="clip0_4249_16742">
<rect width="768" height="750" />
</clipPath>
</defs>
</svg>
