<svg viewBox="0 0 164 24" xmlns="http://www.w3.org/2000/svg">
<path d="M38.156 17.27C40.802 17.27 43.358 15.938 43.358 13.148C43.358 10.538 41.108 9.88999 39.776 9.52999L37.526 8.91799C36.698 8.70199 35.798 8.37799 35.798 7.53199C35.798 6.61399 36.878 6.03799 38.03 6.07399C39.2 6.10999 40.316 6.77599 40.604 8.03599L43.25 7.58599C42.62 5.15599 40.748 3.82399 38.066 3.78799C35.402 3.76999 33.224 5.04799 33.224 7.65799C33.224 10.124 35.15 10.754 36.158 11.042L39.524 12.032C40.532 12.338 40.784 12.806 40.784 13.328C40.784 14.408 39.524 14.984 38.318 14.984C36.878 14.984 35.636 14.156 35.276 12.662L32.72 13.04C33.116 15.668 35.276 17.27 38.156 17.27Z"/>
<path d="M53.0941 8.77399C52.4101 7.47799 51.0061 7.00999 49.2961 7.00999C46.9561 7.00999 45.6241 8.12599 45.1381 9.72799L47.3521 10.43C47.6581 9.54799 48.5761 9.24199 49.2961 9.24199C50.4481 9.24199 50.9701 9.65599 51.0781 10.556C49.2601 10.826 47.8561 11.042 46.9201 11.384C45.3541 11.96 44.7961 12.968 44.7961 14.318C44.7961 15.938 45.9481 17.27 48.0361 17.27C49.5301 17.27 50.4841 16.838 51.3481 15.812V17H53.4901V11.06C53.4901 10.178 53.4721 9.49399 53.0941 8.77399ZM50.8081 14.048C50.6101 14.462 49.9081 15.344 48.5581 15.344C47.7121 15.344 47.1901 14.948 47.1901 14.282C47.1901 13.796 47.4781 13.454 48.1981 13.166C48.7561 12.968 49.4221 12.824 51.0601 12.554C51.0421 13.022 51.0061 13.634 50.8081 14.048Z"/>
<path d="M58.1067 17H60.5547L64.0827 7.27999H61.6347L59.3307 14.012L57.0267 7.27999H54.5787L58.1067 17Z"/>
<path d="M65.8892 5.92999H68.3372V3.76999H65.8892V5.92999ZM65.8892 17H68.3372V7.27999H65.8892V17Z"/>
<path d="M76.3454 6.99199C74.9414 6.99199 73.8974 7.49599 73.1954 8.28799V7.27999H71.0174V17H73.5014V12.068C73.5014 9.65599 74.7254 9.29599 75.5714 9.29599C77.6594 9.29599 77.6594 11.528 77.6594 12.41V17H80.1434V11.546C80.1434 10.736 80.1434 6.99199 76.3454 6.99199Z"/>
<path d="M89.0487 7.27999V7.81999C88.4007 7.29799 87.5547 7.00999 86.5467 7.00999C83.7567 7.00999 81.9387 9.16999 81.9387 12.14C81.9387 15.056 83.7387 17.27 86.4207 17.27C87.3387 17.27 88.1127 17.054 88.7427 16.658V17.63C88.7787 18.71 87.7527 19.268 86.6547 19.268C85.9707 19.268 85.3407 18.962 85.0347 18.386L82.7667 19.484C83.5047 20.744 84.9807 21.59 86.6367 21.59C88.7787 21.59 90.5787 20.762 91.0467 18.98C91.1547 18.566 91.1907 18.152 91.1907 17.666V7.27999H89.0487ZM86.8167 15.092C85.2327 15.092 84.5307 13.778 84.5307 12.14C84.5307 10.52 85.2687 9.18799 86.9067 9.18799C88.4367 9.18799 89.0487 10.376 89.0487 12.14C89.0487 13.904 88.4547 15.092 86.8167 15.092Z"/>
<path d="M97.5091 17.27C100.047 17.27 101.577 16.064 101.577 14.066C101.577 12.554 100.731 11.762 98.5171 11.186C96.2491 10.61 95.9251 10.448 95.9251 9.94399C95.9251 9.38599 96.5191 9.06199 97.4191 9.11599C98.3371 9.18799 98.8951 9.61999 98.9851 10.34L101.487 9.88999C101.235 8.12599 99.6511 7.00999 97.3651 7.00999C95.0071 7.00999 93.4951 8.19799 93.4951 10.07C93.4951 11.564 94.3591 12.32 96.7351 12.932C98.8411 13.49 99.0751 13.616 99.0751 14.192C99.0751 14.804 98.5711 15.164 97.6891 15.164C96.6091 15.164 95.8711 14.624 95.6731 13.706L93.1711 14.084C93.4951 16.118 95.0611 17.27 97.5091 17.27Z"/>
<path d="M107.011 17H108.325V5.29999H112.861V4.03999H102.475V5.29999H107.011V17Z"/>
<path d="M115.343 7.90999C115.055 8.14399 114.785 8.44999 114.587 8.80999V7.27999H113.399V17H114.731V12.158C114.731 10.988 114.875 9.72799 115.847 8.95399C116.567 8.39599 117.467 8.34199 118.187 8.52199V7.27999C117.323 7.06399 116.099 7.26199 115.343 7.90999Z"/>
<path d="M126.931 8.95399C126.409 7.69399 125.113 7.00999 123.349 7.00999C121.189 7.00999 119.821 8.01799 119.371 9.74599L120.667 10.124C121.027 8.84599 121.981 8.25199 123.313 8.25199C125.185 8.25199 125.887 9.09799 125.905 10.88C124.609 11.042 122.791 11.24 121.477 11.564C120.037 11.942 119.011 12.806 119.011 14.39C119.011 15.938 120.127 17.27 122.341 17.27C123.979 17.27 125.275 16.622 126.031 15.398V17H127.219V10.97C127.219 10.232 127.165 9.51199 126.931 8.95399ZM122.485 16.118C120.919 16.118 120.343 15.236 120.343 14.39C120.343 13.346 121.189 12.86 122.017 12.626C123.097 12.338 124.627 12.176 125.905 12.032C125.905 12.464 125.869 13.094 125.761 13.562C125.527 15.038 124.339 16.118 122.485 16.118Z"/>
<path d="M133.585 17.27C135.511 17.27 136.933 16.352 137.653 14.606L136.339 14.228C135.835 15.38 134.899 16.01 133.585 16.01C131.497 16.01 130.435 14.462 130.417 12.14C130.435 9.87199 131.443 8.26999 133.585 8.26999C134.863 8.26999 135.907 8.95399 136.357 10.124L137.653 9.69199C137.113 8.03599 135.565 7.00999 133.603 7.00999C130.687 7.00999 129.049 9.07999 129.013 12.14C129.049 15.146 130.651 17.27 133.585 17.27Z"/>
<path d="M139.52 17H140.852V12.32L145.622 17H147.548L142.4 12.14L146.954 7.27999H145.19L140.852 11.96V4.03999H139.52V17Z"/>
<path d="M149.156 12.518H156.806C156.896 9.07999 155.222 7.00999 152.342 7.00999C149.534 7.00999 147.734 8.98999 147.734 12.176C147.734 15.272 149.552 17.27 152.378 17.27C154.268 17.27 155.852 16.298 156.626 14.606L155.384 14.138C154.79 15.344 153.728 16.01 152.342 16.01C150.398 16.01 149.264 14.732 149.156 12.518ZM152.378 8.21599C154.178 8.21599 155.204 9.31399 155.42 11.402H149.174C149.39 9.36799 150.488 8.21599 152.378 8.21599Z"/>
<path d="M160.747 7.90999C160.459 8.14399 160.189 8.44999 159.991 8.80999V7.27999H158.803V17H160.135V12.158C160.135 10.988 160.279 9.72799 161.251 8.95399C161.971 8.39599 162.871 8.34199 163.591 8.52199V7.27999C162.727 7.06399 161.503 7.26199 160.747 7.90999Z"/>
<path d="M15.78 2H8.22C4.44 2 3.5 3.01 3.5 7.04V18.3C3.5 20.96 4.96 21.59 6.73 19.69L6.74 19.68C7.56 18.81 8.81 18.88 9.52 19.83L10.53 21.18C11.34 22.25 12.65 22.25 13.46 21.18L14.47 19.83C15.19 18.87 16.44 18.8 17.26 19.68C19.04 21.58 20.49 20.95 20.49 18.29V7.04C20.5 3.01 19.56 2 15.78 2ZM9 7C9.55 7 10 7.45 10 8C10 8.55 9.56 9 9 9C8.44 9 8 8.55 8 8C8 7.45 8.44 7 9 7ZM15 14C14.44 14 14 13.55 14 13C14 12.45 14.45 12 15 12C15.55 12 16 12.45 16 13C16 13.55 15.56 14 15 14ZM15.9 7.59L9.17 14.32C9.02 14.47 8.83 14.54 8.64 14.54C8.45 14.54 8.26 14.47 8.11 14.32C7.82 14.03 7.82 13.55 8.11 13.26L14.84 6.53C15.13 6.24 15.61 6.24 15.9 6.53C16.19 6.82 16.19 7.3 15.9 7.59Z"/>
</svg>
