<svg width="54" height="55" viewBox="0 0 54 55" fill="none" xmlns="http://www.w3.org/2000/svg">
<g filter="url(#filter0_d_141_95)">
<path d="M34.5 19.5L33.01 20.99L30.01 17.99L31.5 16.5C31.92 16.08 32.46 15.88 33 15.88C33.54 15.88 34.08 16.08 34.5 16.5C35.33 17.33 35.33 18.67 34.5 19.5Z" fill="white"/>
<path d="M32.31 21.7L21.5 32.5C20.67 33.33 19.33 33.33 18.5 32.5C17.67 31.67 17.67 30.33 18.5 29.5L29.31 18.7L32.31 21.7Z" fill="white"/>
<path d="M24.95 15.5L25.36 14.11C25.4 13.98 25.36 13.84 25.27 13.74C25.18 13.64 25.02 13.6 24.89 13.64L23.5 14.05L22.11 13.64C21.98 13.6 21.84 13.64 21.74 13.73C21.64 13.83 21.61 13.97 21.65 14.1L22.05 15.5L21.64 16.89C21.6 17.02 21.64 17.16 21.73 17.26C21.83 17.36 21.97 17.39 22.1 17.35L23.5 16.95L24.89 17.36C24.93 17.37 24.96 17.38 25 17.38C25.1 17.38 25.19 17.34 25.27 17.27C25.37 17.17 25.4 17.03 25.36 16.9L24.95 15.5Z" fill="white"/>
<path d="M20.95 21.5L21.36 20.11C21.4 19.98 21.36 19.84 21.27 19.74C21.17 19.64 21.03 19.61 20.9 19.65L19.5 20.05L18.11 19.64C17.98 19.6 17.84 19.64 17.74 19.73C17.64 19.83 17.61 19.97 17.65 20.1L18.05 21.5L17.64 22.89C17.6 23.02 17.64 23.16 17.73 23.26C17.83 23.36 17.97 23.39 18.1 23.35L19.49 22.94L20.88 23.35C20.91 23.36 20.95 23.36 20.99 23.36C21.09 23.36 21.18 23.32 21.26 23.25C21.36 23.15 21.39 23.01 21.35 22.88L20.95 21.5Z" fill="white"/>
<path d="M35.95 26.5L36.36 25.11C36.4 24.98 36.36 24.84 36.27 24.74C36.17 24.64 36.03 24.61 35.9 24.65L34.51 25.06L33.12 24.65C32.99 24.61 32.85 24.65 32.75 24.74C32.65 24.84 32.62 24.98 32.66 25.11L33.07 26.5L32.66 27.89C32.62 28.02 32.66 28.16 32.75 28.26C32.85 28.36 32.99 28.39 33.12 28.35L34.51 27.94L35.9 28.35C35.93 28.36 35.97 28.36 36.01 28.36C36.11 28.36 36.2 28.32 36.28 28.25C36.38 28.15 36.41 28.01 36.37 27.88L35.95 26.5Z" fill="white"/>
</g>
<defs>
<filter id="filter0_d_141_95" x="-2" y="-1" width="58" height="58" filterUnits="userSpaceOnUse" color-interpolation-filters="sRGB">
<feFlood flood-opacity="0" result="BackgroundImageFix"/>
<feColorMatrix in="SourceAlpha" type="matrix" values="0 0 0 0 0 0 0 0 0 0 0 0 0 0 0 0 0 0 127 0" result="hardAlpha"/>
<feOffset dy="4"/>
<feGaussianBlur stdDeviation="8.5"/>
<feComposite in2="hardAlpha" operator="out"/>
<feColorMatrix type="matrix" values="0 0 0 0 0 0 0 0 0 0 0 0 0 0 0 0 0 0 0.25 0"/>
<feBlend mode="normal" in2="BackgroundImageFix" result="effect1_dropShadow_141_95"/>
<feBlend mode="normal" in="SourceGraphic" in2="effect1_dropShadow_141_95" result="shape"/>
</filter>
</defs>
</svg>
