<svg width="451" height="100" viewBox="0 0 451 100" fill="none" xmlns="http://www.w3.org/2000/svg">
<rect x="2" y="2" width="447" height="96" rx="26" stroke="#E379FE" stroke-width="4" stroke-dasharray="8 8"/>
<path d="M134.12 52.52V65H129.32V35H145.64L145.112 38.984H134.12V48.728H143.72V52.52H134.12ZM158.452 65.48C156.372 65.48 154.644 65.304 153.268 64.952C151.924 64.568 150.868 63.928 150.1 63.032C149.332 62.104 148.788 60.824 148.468 59.192C148.18 57.56 148.036 55.496 148.036 53C148.036 50.504 148.18 48.44 148.468 46.808C148.788 45.176 149.332 43.912 150.1 43.016C150.868 42.088 151.924 41.448 153.268 41.096C154.644 40.712 156.372 40.52 158.452 40.52C160.564 40.52 162.292 40.712 163.636 41.096C165.012 41.448 166.068 42.088 166.804 43.016C167.572 43.912 168.1 45.176 168.388 46.808C168.708 48.408 168.868 50.472 168.868 53C168.868 55.496 168.708 57.56 168.388 59.192C168.1 60.824 167.572 62.104 166.804 63.032C166.036 63.928 164.964 64.568 163.588 64.952C162.244 65.304 160.532 65.48 158.452 65.48ZM153.028 61.544H161.572C162.5 61.544 163.108 61.464 163.396 61.304C163.716 61.144 163.876 60.824 163.876 60.344V44.456H155.332C154.436 44.456 153.828 44.536 153.508 44.696C153.188 44.856 153.028 45.176 153.028 45.656V61.544ZM162.868 37.4C161.812 37.4 161.124 37.192 160.804 36.776C160.516 36.36 160.372 35.656 160.372 34.664C160.372 33.64 160.516 32.92 160.804 32.504C161.124 32.088 161.812 31.88 162.868 31.88C163.892 31.88 164.548 32.088 164.836 32.504C165.156 32.92 165.316 33.64 165.316 34.664C165.316 35.656 165.156 36.36 164.836 36.776C164.548 37.192 163.892 37.4 162.868 37.4ZM154.084 37.4C153.028 37.4 152.34 37.192 152.02 36.776C151.732 36.36 151.588 35.656 151.588 34.664C151.588 33.64 151.732 32.92 152.02 32.504C152.34 32.088 153.028 31.88 154.084 31.88C155.108 31.88 155.764 32.088 156.052 32.504C156.372 32.92 156.532 33.64 156.532 34.664C156.532 35.656 156.372 36.36 156.052 36.776C155.764 37.192 155.108 37.4 154.084 37.4ZM178.31 41L179.99 44.792C181.43 43.48 182.662 42.488 183.686 41.816C184.71 41.112 185.67 40.6 186.566 40.28L187.046 44.984C186.374 45.176 185.654 45.448 184.886 45.8C184.118 46.12 183.382 46.472 182.678 46.856C182.006 47.24 181.398 47.64 180.854 48.056V65H176.054V41H178.31ZM200.678 53.864H196.886V65H192.086V33.8L196.886 33.08V50.504H200.678L205.766 41H210.806L204.662 52.184L211.046 65H206.102L200.678 53.864ZM220.411 61.448C220.699 61.48 221.035 61.528 221.419 61.592C221.835 61.624 222.235 61.656 222.619 61.688L222.331 64.952C221.691 65.144 221.115 65.272 220.603 65.336C220.123 65.432 219.643 65.48 219.163 65.48C217.979 65.48 217.083 65.192 216.475 64.616C215.899 64.008 215.611 63.096 215.611 61.88V33.8L220.411 33.08V61.448ZM234.547 65.48C231.923 65.48 230.035 64.936 228.883 63.848C227.763 62.728 227.203 60.872 227.203 58.28C227.203 56.616 227.363 55.288 227.683 54.296C228.003 53.272 228.627 52.504 229.555 51.992C230.515 51.448 231.923 51.096 233.779 50.936C235.635 50.744 238.083 50.648 241.123 50.648H243.283V53.768H235.459C233.955 53.768 232.931 53.96 232.387 54.344C231.843 54.728 231.571 55.464 231.571 56.552V61.784H238.003C239.507 61.784 240.515 61.592 241.027 61.208C241.571 60.824 241.843 60.088 241.843 59V44.84C240.659 44.488 239.043 44.312 236.995 44.312C235.747 44.312 234.435 44.408 233.059 44.6C231.683 44.792 230.291 45.08 228.883 45.464L228.259 41.96C229.059 41.672 229.987 41.416 231.043 41.192C232.099 40.968 233.219 40.808 234.403 40.712C235.587 40.584 236.723 40.52 237.811 40.52C239.987 40.52 241.715 40.744 242.995 41.192C244.307 41.608 245.235 42.312 245.779 43.304C246.355 44.264 246.643 45.576 246.643 47.24V65H244.435L243.139 62.6C241.987 63.592 240.707 64.328 239.299 64.808C237.923 65.256 236.339 65.48 234.547 65.48ZM257.295 41L258.975 44.792C260.415 43.48 261.647 42.488 262.671 41.816C263.695 41.112 264.655 40.6 265.551 40.28L266.031 44.984C265.359 45.176 264.639 45.448 263.871 45.8C263.103 46.12 262.367 46.472 261.663 46.856C260.991 47.24 260.383 47.64 259.839 48.056V65H255.039V41H257.295ZM276.734 65.48C274.11 65.48 272.222 64.936 271.07 63.848C269.95 62.728 269.39 60.872 269.39 58.28C269.39 56.616 269.55 55.288 269.87 54.296C270.19 53.272 270.814 52.504 271.742 51.992C272.702 51.448 274.11 51.096 275.966 50.936C277.822 50.744 280.27 50.648 283.31 50.648H285.47V53.768H277.646C276.142 53.768 275.118 53.96 274.574 54.344C274.03 54.728 273.758 55.464 273.758 56.552V61.784H280.19C281.694 61.784 282.702 61.592 283.214 61.208C283.758 60.824 284.03 60.088 284.03 59V44.84C282.846 44.488 281.23 44.312 279.182 44.312C277.934 44.312 276.622 44.408 275.246 44.6C273.87 44.792 272.478 45.08 271.07 45.464L270.446 41.96C271.246 41.672 272.174 41.416 273.23 41.192C274.286 40.968 275.406 40.808 276.59 40.712C277.774 40.584 278.91 40.52 279.998 40.52C282.174 40.52 283.902 40.744 285.182 41.192C286.494 41.608 287.422 42.312 287.966 43.304C288.542 44.264 288.83 45.576 288.83 47.24V65H286.622L285.326 62.6C284.174 63.592 282.894 64.328 281.486 64.808C280.11 65.256 278.526 65.48 276.734 65.48Z" fill="white"/>
</svg>
