<svg width="424" height="753" viewBox="0 0 424 753" fill="none" xmlns="http://www.w3.org/2000/svg">
<rect width="358" height="10" rx="2" fill="white"/>
<rect x="138" y="148" width="282" height="10" rx="2" fill="white"/>
<rect x="380" width="44" height="10" rx="2" fill="#E379FE"/>
<rect y="111" width="24" height="10" rx="2" fill="#E379FE"/>
<rect y="37" width="93" height="10" rx="2" fill="#E379FE"/>
<rect x="282" y="74" width="138" height="10" rx="2" fill="white"/>
<rect x="314" y="111" width="73" height="10" rx="2" fill="white"/>
<rect x="115" y="37" width="265" height="10" rx="2" fill="white"/>
<rect y="74" width="260" height="10" rx="2" fill="#E379FE"/>
<rect x="46" y="111" width="112" height="10" rx="2" fill="white"/>
<rect x="180" y="111" width="112" height="10" rx="2" fill="#E379FE"/>
<rect y="148" width="116" height="10" rx="2" fill="white"/>
<rect y="335" width="420" height="10" rx="2" fill="white"/>
<rect x="274" y="372" width="61" height="10" rx="2" fill="#00C2FF"/>
<rect y="409" width="93" height="10" rx="2" fill="white"/>
<rect x="21" y="372" width="231" height="10" rx="2" fill="white"/>
<rect x="115" y="409" width="260" height="10" rx="2" fill="#00C2FF"/>
<rect y="446" width="420" height="10" rx="2" fill="#00C2FF"/>
<rect x="72" y="483" width="168" height="10" rx="2" fill="white"/>
<rect x="21" y="519" width="132" height="10" rx="2" fill="white"/>
<rect x="21" y="705" width="132" height="10" rx="2" fill="white"/>
<rect x="356" y="483" width="36" height="10" rx="2" fill="white"/>
<rect x="93" y="557" width="60" height="10" rx="2" fill="white"/>
<rect x="93" y="743" width="60" height="10" rx="2" fill="white"/>
<rect x="175" y="519" width="197" height="10" rx="2" fill="#00C2FF"/>
<rect x="175" y="705" width="197" height="10" rx="2" fill="#00C2FF"/>
<rect x="21" y="630" width="139" height="10" rx="2" fill="#00C2FF"/>
<rect x="262" y="483" width="72" height="10" rx="2" fill="#00C2FF"/>
<rect y="556" width="72" height="10" rx="2" fill="#00C2FF"/>
<rect y="742" width="72" height="10" rx="2" fill="#00C2FF"/>
<rect y="593" width="93" height="10" rx="2" fill="white"/>
<rect x="316" y="630" width="73" height="10" rx="2" fill="#00C2FF"/>
<rect x="175" y="556" width="245" height="10" rx="2" fill="white"/>
<rect x="175" y="742" width="245" height="10" rx="2" fill="white"/>
<rect x="115" y="593" width="282" height="10" rx="2" fill="#00C2FF"/>
<rect x="138" y="667" width="136" height="10" rx="2" fill="#00C2FF"/>
<rect x="294" y="667" width="126" height="10" rx="2" fill="white"/>
<rect x="182" y="630" width="112" height="10" rx="2" fill="white"/>
<rect y="667" width="116" height="10" rx="2" fill="white"/>
</svg>
