<svg width="451" height="100" viewBox="0 0 451 100" fill="none" xmlns="http://www.w3.org/2000/svg">
<rect x="2" y="2" width="447" height="96" rx="26" stroke="#E379FE" stroke-width="4" stroke-dasharray="8 8"/>
<path d="M128.12 50.024C128.12 46.76 128.28 44.104 128.6 42.056C128.952 39.976 129.56 38.376 130.424 37.256C131.288 36.136 132.504 35.368 134.072 34.952C135.672 34.504 137.736 34.28 140.264 34.28C142.76 34.28 144.808 34.504 146.408 34.952C148.008 35.368 149.24 36.152 150.104 37.304C150.968 38.424 151.56 40.008 151.88 42.056C152.232 44.104 152.408 46.76 152.408 50.024C152.408 53.288 152.232 55.944 151.88 57.992C151.56 60.04 150.968 61.624 150.104 62.744C149.24 63.864 148.008 64.632 146.408 65.048C144.808 65.496 142.76 65.72 140.264 65.72C137.736 65.72 135.672 65.496 134.072 65.048C132.504 64.632 131.288 63.864 130.424 62.744C129.56 61.624 128.952 60.04 128.6 57.992C128.28 55.944 128.12 53.288 128.12 50.024ZM133.256 61.64H143.144C144.68 61.64 145.752 61.384 146.36 60.872C146.968 60.36 147.272 59.448 147.272 58.136V38.36H137.336C135.8 38.36 134.728 38.616 134.12 39.128C133.544 39.64 133.256 40.552 133.256 41.864V61.64ZM144.68 31.4C143.624 31.4 142.936 31.192 142.616 30.776C142.328 30.36 142.184 29.656 142.184 28.664C142.184 27.64 142.328 26.92 142.616 26.504C142.936 26.088 143.624 25.88 144.68 25.88C145.704 25.88 146.36 26.088 146.648 26.504C146.968 26.92 147.128 27.64 147.128 28.664C147.128 29.656 146.968 30.36 146.648 30.776C146.36 31.192 145.704 31.4 144.68 31.4ZM135.896 31.4C134.84 31.4 134.152 31.192 133.832 30.776C133.544 30.36 133.4 29.656 133.4 28.664C133.4 27.64 133.544 26.92 133.832 26.504C134.152 26.088 134.84 25.88 135.896 25.88C136.92 25.88 137.576 26.088 137.864 26.504C138.184 26.92 138.344 27.64 138.344 28.664C138.344 29.656 138.184 30.36 137.864 30.776C137.576 31.192 136.92 31.4 135.896 31.4ZM155.804 41H160.556L166.316 60.92H166.796L172.556 41H177.308L170.204 65H162.908L155.804 41ZM189.786 65.48C187.962 65.48 186.442 65.288 185.226 64.904C184.01 64.52 183.05 63.864 182.346 62.936C181.674 62.008 181.194 60.744 180.906 59.144C180.618 57.512 180.474 55.464 180.474 53C180.474 49.832 180.778 47.336 181.386 45.512C181.994 43.688 183.034 42.408 184.506 41.672C186.01 40.904 188.042 40.52 190.602 40.52C193.13 40.52 195.082 40.728 196.458 41.144C197.866 41.56 198.842 42.296 199.386 43.352C199.93 44.376 200.202 45.832 200.202 47.72C200.202 49.384 200.026 50.728 199.674 51.752C199.354 52.744 198.682 53.512 197.658 54.056C196.666 54.568 195.194 54.92 193.242 55.112C191.322 55.272 188.746 55.352 185.514 55.352H184.074V52.232H191.85C193.418 52.232 194.474 52.04 195.018 51.656C195.594 51.272 195.882 50.536 195.882 49.448V44.456H189.498C187.962 44.456 186.906 44.648 186.33 45.032C185.786 45.416 185.514 46.152 185.514 47.24V61.16C186.218 61.352 186.97 61.496 187.77 61.592C188.57 61.656 189.53 61.688 190.65 61.688C191.93 61.688 193.194 61.608 194.442 61.448C195.69 61.256 197.194 60.952 198.954 60.536L199.578 64.04C198.394 64.488 196.922 64.84 195.162 65.096C193.434 65.352 191.642 65.48 189.786 65.48ZM210.139 41L211.819 44.792C213.259 43.48 214.491 42.488 215.515 41.816C216.539 41.112 217.499 40.6 218.395 40.28L218.875 44.984C218.203 45.176 217.483 45.448 216.715 45.8C215.947 46.12 215.211 46.472 214.507 46.856C213.835 47.24 213.227 47.64 212.683 48.056V65H207.883V41H210.139ZM222.282 47.432C222.282 44.968 223.018 43.16 224.49 42.008C225.962 40.856 228.25 40.28 231.354 40.28C232.794 40.28 234.154 40.376 235.434 40.568C236.746 40.728 238.042 40.984 239.322 41.336L238.65 44.84C237.85 44.616 236.906 44.44 235.818 44.312C234.762 44.152 233.754 44.072 232.794 44.072C231.77 44.072 230.778 44.12 229.818 44.216C228.89 44.28 228.058 44.376 227.322 44.504V50.168C230.106 50.552 232.362 50.952 234.09 51.368C235.818 51.752 237.146 52.232 238.074 52.808C239.002 53.384 239.642 54.104 239.994 54.968C240.346 55.832 240.522 56.92 240.522 58.232C240.522 60.024 240.186 61.48 239.514 62.6C238.874 63.688 237.818 64.488 236.346 65C234.874 65.48 232.906 65.72 230.442 65.72C229.034 65.72 227.61 65.592 226.17 65.336C224.73 65.112 223.258 64.776 221.754 64.328L222.522 60.488C224.986 61.448 227.61 61.928 230.394 61.928C231.354 61.928 232.186 61.88 232.89 61.784C233.626 61.688 234.49 61.512 235.482 61.256V55.592C232.538 55.176 230.186 54.776 228.426 54.392C226.666 54.008 225.338 53.544 224.442 53C223.578 52.424 223.002 51.704 222.714 50.84C222.426 49.944 222.282 48.808 222.282 47.432ZM252.687 65.48C250.063 65.48 248.175 64.936 247.023 63.848C245.903 62.728 245.343 60.872 245.343 58.28C245.343 56.616 245.503 55.288 245.823 54.296C246.143 53.272 246.767 52.504 247.695 51.992C248.655 51.448 250.063 51.096 251.919 50.936C253.775 50.744 256.223 50.648 259.263 50.648H261.423V53.768H253.599C252.095 53.768 251.071 53.96 250.527 54.344C249.983 54.728 249.711 55.464 249.711 56.552V61.784H256.143C257.647 61.784 258.655 61.592 259.167 61.208C259.711 60.824 259.983 60.088 259.983 59V44.84C258.799 44.488 257.183 44.312 255.135 44.312C253.887 44.312 252.575 44.408 251.199 44.6C249.823 44.792 248.431 45.08 247.023 45.464L246.399 41.96C247.199 41.672 248.127 41.416 249.183 41.192C250.239 40.968 251.359 40.808 252.543 40.712C253.727 40.584 254.863 40.52 255.951 40.52C258.127 40.52 259.855 40.744 261.135 41.192C262.447 41.608 263.375 42.312 263.919 43.304C264.495 44.264 264.783 45.576 264.783 47.24V65H262.575L261.279 62.6C260.127 63.592 258.847 64.328 257.439 64.808C256.063 65.256 254.479 65.48 252.687 65.48ZM260.367 37.4C259.311 37.4 258.623 37.192 258.303 36.776C258.015 36.36 257.871 35.656 257.871 34.664C257.871 33.64 258.015 32.92 258.303 32.504C258.623 32.088 259.311 31.88 260.367 31.88C261.391 31.88 262.047 32.088 262.335 32.504C262.655 32.92 262.815 33.64 262.815 34.664C262.815 35.656 262.655 36.36 262.335 36.776C262.047 37.192 261.391 37.4 260.367 37.4ZM251.583 37.4C250.527 37.4 249.839 37.192 249.519 36.776C249.231 36.36 249.087 35.656 249.087 34.664C249.087 33.64 249.231 32.92 249.519 32.504C249.839 32.088 250.527 31.88 251.583 31.88C252.607 31.88 253.263 32.088 253.551 32.504C253.871 32.92 254.031 33.64 254.031 34.664C254.031 35.656 253.871 36.36 253.551 36.776C253.263 37.192 252.607 37.4 251.583 37.4ZM278.171 65.48C276.987 65.48 276.091 65.192 275.483 64.616C274.907 64.008 274.619 63.096 274.619 61.88V35.864L279.419 34.664V61.448C279.867 61.48 280.347 61.528 280.859 61.592C281.371 61.624 282.027 61.656 282.827 61.688L282.539 64.952C281.547 65.144 280.699 65.272 279.995 65.336C279.291 65.432 278.683 65.48 278.171 65.48ZM271.259 44.312V41H283.691V44.312H271.259ZM295.14 65.48C293.956 65.48 293.06 65.192 292.452 64.616C291.876 64.008 291.588 63.096 291.588 61.88V35.864L296.388 34.664V61.448C296.836 61.48 297.316 61.528 297.828 61.592C298.34 61.624 298.996 61.656 299.796 61.688L299.508 64.952C298.516 65.144 297.668 65.272 296.964 65.336C296.26 65.432 295.652 65.48 295.14 65.48ZM288.228 44.312V41H300.66V44.312H288.228Z" fill="white"/>
</svg>
