<svg width="451" height="100" viewBox="0 0 451 100" fill="none" xmlns="http://www.w3.org/2000/svg">
<rect x="2" y="2" width="447" height="96" rx="26" stroke="#00C2FF" stroke-width="4" stroke-dasharray="8 8"/>
<path d="M140.312 65.72C137.976 65.72 136.056 65.576 134.552 65.288C133.08 65 131.928 64.504 131.096 63.8C130.264 63.096 129.672 62.104 129.32 60.824C129 59.544 128.84 57.912 128.84 55.928V35H133.64V61.64H140.552C142.312 61.64 143.64 61.576 144.536 61.448C145.464 61.288 146.104 61.032 146.456 60.68C146.808 60.296 146.984 59.768 146.984 59.096V35H151.784V55.928C151.784 57.912 151.608 59.544 151.256 60.824C150.936 62.104 150.36 63.096 149.528 63.8C148.696 64.504 147.528 65 146.024 65.288C144.552 65.576 142.648 65.72 140.312 65.72ZM164.921 65.48C163.737 65.48 162.841 65.192 162.233 64.616C161.657 64.008 161.369 63.096 161.369 61.88V35.864L166.169 34.664V61.448C166.617 61.48 167.097 61.528 167.609 61.592C168.121 61.624 168.777 61.656 169.577 61.688L169.289 64.952C168.297 65.144 167.449 65.272 166.745 65.336C166.041 65.432 165.433 65.48 164.921 65.48ZM158.009 44.312V41H170.441V44.312H158.009ZM172.866 41H177.618L183.378 60.92H183.858L189.618 41H194.37L187.266 65H179.97L172.866 41ZM206.848 65.48C205.024 65.48 203.504 65.288 202.288 64.904C201.072 64.52 200.112 63.864 199.408 62.936C198.736 62.008 198.256 60.744 197.968 59.144C197.68 57.512 197.536 55.464 197.536 53C197.536 49.832 197.84 47.336 198.448 45.512C199.056 43.688 200.096 42.408 201.568 41.672C203.072 40.904 205.104 40.52 207.664 40.52C210.192 40.52 212.144 40.728 213.52 41.144C214.928 41.56 215.904 42.296 216.448 43.352C216.992 44.376 217.264 45.832 217.264 47.72C217.264 49.384 217.088 50.728 216.736 51.752C216.416 52.744 215.744 53.512 214.72 54.056C213.728 54.568 212.256 54.92 210.304 55.112C208.384 55.272 205.808 55.352 202.576 55.352H201.136V52.232H208.912C210.48 52.232 211.536 52.04 212.08 51.656C212.656 51.272 212.944 50.536 212.944 49.448V44.456H206.56C205.024 44.456 203.968 44.648 203.392 45.032C202.848 45.416 202.576 46.152 202.576 47.24V61.16C203.28 61.352 204.032 61.496 204.832 61.592C205.632 61.656 206.592 61.688 207.712 61.688C208.992 61.688 210.256 61.608 211.504 61.448C212.752 61.256 214.256 60.952 216.016 60.536L216.64 64.04C215.456 64.488 213.984 64.84 212.224 65.096C210.496 65.352 208.704 65.48 206.848 65.48ZM232.145 65.48C230.417 65.48 228.993 65.304 227.873 64.952C226.753 64.568 225.873 63.912 225.233 62.984C224.593 62.056 224.145 60.792 223.889 59.192C223.633 57.56 223.505 55.496 223.505 53C223.505 50.504 223.633 48.44 223.889 46.808C224.145 45.176 224.593 43.912 225.233 43.016C225.873 42.088 226.753 41.448 227.873 41.096C228.993 40.712 230.417 40.52 232.145 40.52C233.009 40.52 233.905 40.552 234.833 40.616C235.793 40.68 236.705 40.776 237.569 40.904C238.465 41.032 239.249 41.192 239.921 41.384L239.345 45.032C238.193 44.776 237.073 44.6 235.985 44.504C234.897 44.376 233.793 44.312 232.673 44.312C231.105 44.312 230.017 44.616 229.409 45.224C228.801 45.8 228.497 46.84 228.497 48.344V61.16C229.649 61.512 231.281 61.688 233.393 61.688C234.417 61.688 235.409 61.608 236.369 61.448C237.361 61.256 238.545 60.952 239.921 60.536L240.449 64.04C239.361 64.488 238.081 64.84 236.609 65.096C235.169 65.352 233.681 65.48 232.145 65.48ZM255.287 53.864H251.495V65H246.695V33.8L251.495 33.08V50.504H255.287L260.375 41H265.415L259.271 52.184L265.655 65H260.711L255.287 53.864ZM275.021 61.448C275.309 61.48 275.645 61.528 276.029 61.592C276.445 61.624 276.845 61.656 277.229 61.688L276.941 64.952C276.301 65.144 275.725 65.272 275.213 65.336C274.733 65.432 274.253 65.48 273.773 65.48C272.589 65.48 271.693 65.192 271.085 64.616C270.509 64.008 270.221 63.096 270.221 61.88V33.8L275.021 33.08V61.448ZM289.156 65.48C286.532 65.48 284.644 64.936 283.492 63.848C282.372 62.728 281.812 60.872 281.812 58.28C281.812 56.616 281.972 55.288 282.292 54.296C282.612 53.272 283.236 52.504 284.164 51.992C285.124 51.448 286.532 51.096 288.388 50.936C290.244 50.744 292.692 50.648 295.732 50.648H297.892V53.768H290.068C288.564 53.768 287.54 53.96 286.996 54.344C286.452 54.728 286.18 55.464 286.18 56.552V61.784H292.612C294.116 61.784 295.124 61.592 295.636 61.208C296.18 60.824 296.452 60.088 296.452 59V44.84C295.268 44.488 293.652 44.312 291.604 44.312C290.356 44.312 289.044 44.408 287.668 44.6C286.292 44.792 284.9 45.08 283.492 45.464L282.868 41.96C283.668 41.672 284.596 41.416 285.652 41.192C286.708 40.968 287.828 40.808 289.012 40.712C290.196 40.584 291.332 40.52 292.42 40.52C294.596 40.52 296.324 40.744 297.604 41.192C298.916 41.608 299.844 42.312 300.388 43.304C300.964 44.264 301.252 45.576 301.252 47.24V65H299.044L297.748 62.6C296.596 63.592 295.316 64.328 293.908 64.808C292.532 65.256 290.948 65.48 289.156 65.48Z" fill="white"/>
</svg>
