<svg width="480" height="1148" viewBox="0 0 480 1148" fill="none" xmlns="http://www.w3.org/2000/svg">
<path d="M-95.3308 470.612C64.215 417.712 182.435 428.46 265.52 511.545C368.86 614.884 367.774 788.753 240.306 916.221C197.964 958.958 146.197 991.159 89.2275 1010.2C32.2576 1029.24 -28.3023 1034.58 -87.5138 1025.79L-88.3796 819.975C-13.6871 819.687 47.3646 805.758 86.9378 766.185C120.679 732.443 133.282 692.559 107.24 666.518C81.1986 640.476 47.534 654.299 -7.30774 671.939L-99.5436 702.171C-265.319 756.34 -381.097 758.031 -479.063 660.066C-596.87 542.259 -591.189 360.488 -446.226 215.525C-402.3 169.391 -347.985 134.435 -287.881 113.618C-227.777 92.7999 -163.654 86.7335 -100.939 95.9313L-91.8064 310.012C-175.189 304.109 -263.667 328.103 -307.405 371.842C-349.061 413.497 -357.575 469.134 -327.813 498.896C-298.051 528.657 -250.717 521.006 -180.918 498.329L-95.3308 470.612Z" fill="white" fill-opacity="0.3"/>
</svg>
