<svg width="112" height="395" viewBox="0 0 112 395" fill="none" xmlns="http://www.w3.org/2000/svg">
<path d="M-74.1105 159.98C-8.48364 140.578 41.0626 147.065 77.2721 183.174C122.309 228.086 125.052 300.696 74.1861 351.788C57.2968 368.924 36.2797 381.501 12.8488 388.492C-10.5822 395.484 -35.7636 396.692 -60.6419 392.018L-64.7867 306.032C-33.613 307.173 -8.38426 302.386 7.40732 286.524C20.8717 273 25.3993 256.553 14.05 245.235C2.70077 233.917 -11.0977 239.123 -33.6661 245.565L-71.6124 256.635C-139.816 276.462 -188.115 275.212 -230.809 232.636C-282.151 181.436 -283.121 105.603 -225.274 47.4989C-207.786 28.9701 -185.756 15.2861 -161.049 7.60557C-136.343 -0.0749543 -109.687 -1.5258 -83.3393 3.37569L-75.5915 92.9546C-110.507 89.0804 -146.999 97.6083 -164.453 115.14C-181.075 131.836 -183.606 154.933 -170.636 167.867C-157.665 180.802 -138.047 178.406 -109.328 170.112L-74.1105 159.98Z" fill="white" fill-opacity="0.3"/>
</svg>
