<svg width="228" height="288" viewBox="0 0 228 288" fill="none" xmlns="http://www.w3.org/2000/svg">
<path d="M196.368 47.5558C262.31 27.8679 311.961 34.6234 348.051 71.6493C392.938 117.701 395.232 191.984 343.896 244.125C326.849 261.614 305.691 274.428 282.147 281.523C258.603 288.618 267.924 289.793 243.002 284.952L239.385 196.982C270.644 198.225 261.393 193.39 277.33 177.202C290.92 163.4 295.564 146.586 284.252 134.981C272.941 123.376 259.069 128.668 236.393 135.203L198.266 146.435C129.736 166.551 81.3035 165.156 38.7505 121.499C-12.4209 68.9992 -12.9173 -8.57615 45.4654 -67.8737C63.1214 -86.7853 85.3022 -100.73 110.13 -108.527C134.958 -116.324 161.701 -117.743 188.096 -112.665L195.303 -21.0117C160.31 -25.0595 123.656 -16.4244 106.041 1.46715C89.2644 18.5067 86.5808 42.127 99.5083 55.39C112.436 68.653 132.127 66.2489 160.983 57.835L196.368 47.5558Z" fill="white" fill-opacity="0.3"/>
</svg>
