<svg width="279" height="366" viewBox="0 0 279 366" fill="none" xmlns="http://www.w3.org/2000/svg">
<path d="M292.677 31.4635C379.193 -21.9755 452.792 -31.3841 518.872 7.65756C601.062 56.2168 633.45 161.456 580.523 255.651C563.017 287.179 537.804 313.607 506.94 332.781C476.076 351.954 440.436 363.33 402.925 365.98L363.284 241.696C408.439 231.473 442.745 214.84 459.177 185.597C473.187 160.663 473.235 134.86 452.523 122.623C431.811 110.386 414.062 123.271 384.22 141.311L334.137 171.993C244.092 227.037 174.335 243.636 96.4194 197.602C2.72303 142.244 -28.3854 31.6108 31.8061 -75.5125C49.6257 -109.307 75.8574 -137.743 108.281 -158.412C140.704 -179.081 178.363 -191.375 218.071 -194.252L264.287 -66.0832C212.695 -58.4331 163.702 -32.027 145.541 0.294641C128.244 31.0772 133.665 65.8512 157.336 79.8363C181.007 93.8214 208.203 82.8283 246.141 59.7312L292.677 31.4635Z" fill="white" fill-opacity="0.3"/>
</svg>
