<svg width="495" height="647" viewBox="0 0 495 647" fill="none" xmlns="http://www.w3.org/2000/svg">
<path d="M487.056 253.034C359.495 306.428 261.551 304.95 187.539 241.843C95.4843 163.352 84.4591 20.4073 180.532 -92.2678C212.419 -130.021 252.777 -159.703 298.316 -178.893C343.854 -198.084 393.284 -206.24 442.573 -202.696L457.393 -33.6233C395.997 -28.7404 346.751 -13.4965 316.925 21.4843C291.494 51.3101 283.865 84.8688 307.063 104.649C330.261 124.428 356.994 110.975 400.879 93.0682L474.648 62.4875C607.244 7.66278 702.328 -0.929097 789.596 73.4805C894.538 162.96 902.327 312.684 793.067 440.825C760.111 481.467 717.847 513.571 669.853 534.416C621.859 555.262 569.549 564.236 517.351 560.579L495.167 385.226C564.133 384.89 635.24 359.669 668.206 321.006C699.603 284.184 702.789 237.936 676.277 215.33C649.766 192.725 611.37 201.957 555.531 224.933L487.056 253.034Z" fill="white" fill-opacity="0.3"/>
</svg>
